<ttFont>
    <TTGlyph name="A" xMin="-10" yMin="-13" xMax="511" yMax="663">
      <contour>
        <pt x="313" y="569" on="1"/>
        <pt x="302" y="545" on="0"/>
        <pt x="253" y="431" on="0"/>
        <pt x="203" y="320" on="0"/>
        <pt x="178" y="268" on="1"/>
        <pt x="250" y="266" on="0"/>
        <pt x="288" y="266" on="1"/>
        <pt x="344" y="266" on="0"/>
        <pt x="371" y="268" on="1"/>
        <pt x="353" y="349" on="0"/>
      </contour>
      <contour>
        <pt x="264" y="207" on="1"/>
        <pt x="242" y="207" on="0"/>
        <pt x="150" y="209" on="1"/>
        <pt x="139" y="185" on="0"/>
        <pt x="93" y="83" on="0"/>
        <pt x="61" y="12" on="0"/>
        <pt x="53" y="-13" on="1"/>
        <pt x="31" y="-12" on="0"/>
        <pt x="-10" y="9" on="0"/>
        <pt x="-10" y="28" on="1"/>
        <pt x="-10" y="37" on="0"/>
        <pt x="31" y="121" on="0"/>
        <pt x="113" y="283" on="0"/>
        <pt x="139" y="336" on="1"/>
        <pt x="255" y="577" on="0"/>
        <pt x="278" y="659" on="1"/>
        <pt x="314" y="663" on="0"/>
        <pt x="323" y="663" on="1"/>
        <pt x="347" y="663" on="0"/>
        <pt x="369" y="641" on="0"/>
        <pt x="375" y="610" on="1"/>
        <pt x="378" y="597" on="0"/>
        <pt x="403" y="453" on="0"/>
        <pt x="427" y="334" on="0"/>
        <pt x="440" y="280" on="1"/>
        <pt x="484" y="87" on="0"/>
        <pt x="511" y="10" on="1"/>
        <pt x="483" y="-10" on="0"/>
        <pt x="462" y="-10" on="1"/>
        <pt x="431" y="-10" on="0"/>
        <pt x="425" y="17" on="1"/>
        <pt x="411" y="80" on="0"/>
        <pt x="384" y="209" on="1"/>
        <pt x="284" y="207" on="0"/>
      </contour>
    </TTGlyph>
    <TTGlyph name="AE" xMin="-40" yMin="-10" xMax="731" yMax="665">
      <contour>
        <pt x="299" y="266" on="1"/>
        <pt x="346" y="266" on="1"/>
        <pt x="374" y="470" on="0"/>
        <pt x="382" y="565" on="1"/>
        <pt x="368" y="543" on="0"/>
        <pt x="237" y="335" on="0"/>
        <pt x="192" y="268" on="1"/>
        <pt x="260" y="266" on="0"/>
      </contour>
      <contour>
        <pt x="717" y="580" on="1"/>
        <pt x="669" y="601" on="0"/>
        <pt x="553" y="601" on="1"/>
        <pt x="514" y="601" on="0"/>
        <pt x="463" y="598" on="1"/>
        <pt x="461" y="551" on="0"/>
        <pt x="439" y="386" on="1"/>
        <pt x="576" y="386" on="0"/>
        <pt x="609" y="390" on="1"/>
        <pt x="611" y="374" on="0"/>
        <pt x="611" y="368" on="1"/>
        <pt x="611" y="327" on="0"/>
        <pt x="566" y="324" on="1"/>
        <pt x="542" y="323" on="0"/>
        <pt x="430" y="323" on="1"/>
        <pt x="403" y="112" on="0"/>
        <pt x="403" y="61" on="1"/>
        <pt x="431" y="59" on="0"/>
        <pt x="453" y="59" on="1"/>
        <pt x="507" y="59" on="0"/>
        <pt x="618" y="73" on="0"/>
        <pt x="636" y="82" on="1"/>
        <pt x="644" y="55" on="0"/>
        <pt x="644" y="40" on="1"/>
        <pt x="644" y="11" on="0"/>
        <pt x="581" y="-3" on="0"/>
        <pt x="492" y="-3" on="1"/>
        <pt x="380" y="-3" on="0"/>
        <pt x="354" y="-1" on="1"/>
        <pt x="334" y="0" on="0"/>
        <pt x="318" y="16" on="0"/>
        <pt x="318" y="34" on="1"/>
        <pt x="318" y="68" on="0"/>
        <pt x="337" y="208" on="1"/>
        <pt x="310" y="207" on="0"/>
        <pt x="264" y="207" on="1"/>
        <pt x="244" y="207" on="0"/>
        <pt x="152" y="209" on="1"/>
        <pt x="38" y="38" on="0"/>
        <pt x="14" y="-10" on="1"/>
        <pt x="-40" y="-1" on="0"/>
        <pt x="-40" y="26" on="1"/>
        <pt x="-40" y="37" on="0"/>
        <pt x="2" y="99" on="1"/>
        <pt x="20" y="125" on="0"/>
        <pt x="114" y="259" on="0"/>
        <pt x="140" y="298" on="1"/>
        <pt x="283" y="508" on="0"/>
        <pt x="362" y="654" on="1"/>
        <pt x="467" y="665" on="0"/>
        <pt x="582" y="665" on="1"/>
        <pt x="711" y="665" on="0"/>
        <pt x="726" y="650" on="1"/>
        <pt x="731" y="644" on="0"/>
        <pt x="731" y="631" on="1"/>
        <pt x="731" y="605" on="0"/>
      </contour>
    </TTGlyph>
    <TTGlyph name="Aacute" xMin="-10" yMin="-13" xMax="511" yMax="879">
      <contour>
        <pt x="404" y="795" on="1"/>
        <pt x="382" y="783" on="0"/>
        <pt x="260" y="727" on="0"/>
        <pt x="245" y="716" on="1"/>
        <pt x="232" y="729" on="0"/>
        <pt x="232" y="745" on="1"/>
        <pt x="232" y="765" on="0"/>
        <pt x="253" y="775" on="1"/>
        <pt x="358" y="835" on="0"/>
        <pt x="403" y="879" on="1"/>
        <pt x="433" y="857" on="0"/>
        <pt x="433" y="834" on="1"/>
        <pt x="433" y="812" on="0"/>
      </contour>
      <contour>
        <pt x="313" y="569" on="1"/>
        <pt x="302" y="545" on="0"/>
        <pt x="253" y="431" on="0"/>
        <pt x="203" y="320" on="0"/>
        <pt x="178" y="268" on="1"/>
        <pt x="250" y="266" on="0"/>
        <pt x="288" y="266" on="1"/>
        <pt x="344" y="266" on="0"/>
        <pt x="371" y="268" on="1"/>
        <pt x="353" y="349" on="0"/>
      </contour>
      <contour>
        <pt x="264" y="207" on="1"/>
        <pt x="242" y="207" on="0"/>
        <pt x="150" y="209" on="1"/>
        <pt x="139" y="185" on="0"/>
        <pt x="93" y="83" on="0"/>
        <pt x="61" y="12" on="0"/>
        <pt x="53" y="-13" on="1"/>
        <pt x="31" y="-12" on="0"/>
        <pt x="-10" y="9" on="0"/>
        <pt x="-10" y="28" on="1"/>
        <pt x="-10" y="37" on="0"/>
        <pt x="31" y="121" on="0"/>
        <pt x="113" y="283" on="0"/>
        <pt x="139" y="336" on="1"/>
        <pt x="255" y="577" on="0"/>
        <pt x="278" y="659" on="1"/>
        <pt x="314" y="663" on="0"/>
        <pt x="323" y="663" on="1"/>
        <pt x="347" y="663" on="0"/>
        <pt x="369" y="641" on="0"/>
        <pt x="375" y="610" on="1"/>
        <pt x="378" y="597" on="0"/>
        <pt x="403" y="453" on="0"/>
        <pt x="427" y="334" on="0"/>
        <pt x="440" y="280" on="1"/>
        <pt x="484" y="87" on="0"/>
        <pt x="511" y="10" on="1"/>
        <pt x="483" y="-10" on="0"/>
        <pt x="462" y="-10" on="1"/>
        <pt x="431" y="-10" on="0"/>
        <pt x="425" y="17" on="1"/>
        <pt x="411" y="80" on="0"/>
        <pt x="384" y="209" on="1"/>
        <pt x="284" y="207" on="0"/>
      </contour>
    </TTGlyph>
    <TTGlyph name="Acircumflex" xMin="-10" yMin="-13" xMax="511" yMax="870">
      <contour>
        <pt x="339" y="870" on="1"/>
        <pt x="445" y="790" on="0"/>
        <pt x="445" y="743" on="1"/>
        <pt x="445" y="721" on="0"/>
        <pt x="418" y="710" on="1"/>
        <pt x="404" y="734" on="0"/>
        <pt x="358" y="778" on="0"/>
        <pt x="342" y="788" on="1"/>
        <pt x="327" y="799" on="1"/>
        <pt x="224" y="718" on="0"/>
        <pt x="209" y="718" on="1"/>
        <pt x="197" y="718" on="0"/>
        <pt x="187" y="736" on="1"/>
        <pt x="255" y="811" on="0"/>
      </contour>
      <contour>
        <pt x="313" y="569" on="1"/>
        <pt x="302" y="545" on="0"/>
        <pt x="253" y="431" on="0"/>
        <pt x="203" y="320" on="0"/>
        <pt x="178" y="268" on="1"/>
        <pt x="250" y="266" on="0"/>
        <pt x="288" y="266" on="1"/>
        <pt x="344" y="266" on="0"/>
        <pt x="371" y="268" on="1"/>
        <pt x="353" y="349" on="0"/>
      </contour>
      <contour>
        <pt x="264" y="207" on="1"/>
        <pt x="242" y="207" on="0"/>
        <pt x="150" y="209" on="1"/>
        <pt x="139" y="185" on="0"/>
        <pt x="93" y="83" on="0"/>
        <pt x="61" y="12" on="0"/>
        <pt x="53" y="-13" on="1"/>
        <pt x="31" y="-12" on="0"/>
        <pt x="-10" y="9" on="0"/>
        <pt x="-10" y="28" on="1"/>
        <pt x="-10" y="37" on="0"/>
        <pt x="31" y="121" on="0"/>
        <pt x="113" y="283" on="0"/>
        <pt x="139" y="336" on="1"/>
        <pt x="255" y="577" on="0"/>
        <pt x="278" y="659" on="1"/>
        <pt x="314" y="663" on="0"/>
        <pt x="323" y="663" on="1"/>
        <pt x="347" y="663" on="0"/>
        <pt x="369" y="641" on="0"/>
        <pt x="375" y="610" on="1"/>
        <pt x="378" y="597" on="0"/>
        <pt x="403" y="453" on="0"/>
        <pt x="427" y="334" on="0"/>
        <pt x="440" y="280" on="1"/>
        <pt x="484" y="87" on="0"/>
        <pt x="511" y="10" on="1"/>
        <pt x="483" y="-10" on="0"/>
        <pt x="462" y="-10" on="1"/>
        <pt x="431" y="-10" on="0"/>
        <pt x="425" y="17" on="1"/>
        <pt x="411" y="80" on="0"/>
        <pt x="384" y="209" on="1"/>
        <pt x="284" y="207" on="0"/>
      </contour>
    </TTGlyph>
    <TTGlyph name="Adieresis" xMin="-10" yMin="-13" xMax="511" yMax="819">
      <contour>
        <pt x="313" y="569" on="1"/>
        <pt x="302" y="545" on="0"/>
        <pt x="253" y="431" on="0"/>
        <pt x="203" y="320" on="0"/>
        <pt x="178" y="268" on="1"/>
        <pt x="250" y="266" on="0"/>
        <pt x="288" y="266" on="1"/>
        <pt x="344" y="266" on="0"/>
        <pt x="371" y="268" on="1"/>
        <pt x="353" y="349" on="0"/>
      </contour>
      <contour>
        <pt x="264" y="207" on="1"/>
        <pt x="242" y="207" on="0"/>
        <pt x="150" y="209" on="1"/>
        <pt x="139" y="185" on="0"/>
        <pt x="93" y="83" on="0"/>
        <pt x="61" y="12" on="0"/>
        <pt x="53" y="-13" on="1"/>
        <pt x="31" y="-12" on="0"/>
        <pt x="-10" y="9" on="0"/>
        <pt x="-10" y="28" on="1"/>
        <pt x="-10" y="37" on="0"/>
        <pt x="31" y="121" on="0"/>
        <pt x="113" y="283" on="0"/>
        <pt x="139" y="336" on="1"/>
        <pt x="255" y="577" on="0"/>
        <pt x="278" y="659" on="1"/>
        <pt x="314" y="663" on="0"/>
        <pt x="323" y="663" on="1"/>
        <pt x="347" y="663" on="0"/>
        <pt x="369" y="641" on="0"/>
        <pt x="375" y="610" on="1"/>
        <pt x="378" y="597" on="0"/>
        <pt x="403" y="453" on="0"/>
        <pt x="427" y="334" on="0"/>
        <pt x="440" y="280" on="1"/>
        <pt x="484" y="87" on="0"/>
        <pt x="511" y="10" on="1"/>
        <pt x="483" y="-10" on="0"/>
        <pt x="462" y="-10" on="1"/>
        <pt x="431" y="-10" on="0"/>
        <pt x="425" y="17" on="1"/>
        <pt x="411" y="80" on="0"/>
        <pt x="384" y="209" on="1"/>
        <pt x="284" y="207" on="0"/>
      </contour>
      <contour>
        <pt x="235" y="712" on="1"/>
        <pt x="216" y="712" on="0"/>
        <pt x="192" y="738" on="0"/>
        <pt x="192" y="759" on="1"/>
        <pt x="192" y="784" on="0"/>
        <pt x="226" y="819" on="0"/>
        <pt x="248" y="819" on="1"/>
        <pt x="266" y="819" on="0"/>
        <pt x="291" y="791" on="0"/>
        <pt x="291" y="770" on="1"/>
        <pt x="291" y="746" on="0"/>
        <pt x="255" y="712" on="0"/>
      </contour>
      <contour>
        <pt x="402" y="712" on="1"/>
        <pt x="383" y="712" on="0"/>
        <pt x="359" y="738" on="0"/>
        <pt x="359" y="759" on="1"/>
        <pt x="359" y="784" on="0"/>
        <pt x="393" y="819" on="0"/>
        <pt x="415" y="819" on="1"/>
        <pt x="433" y="819" on="0"/>
        <pt x="458" y="791" on="0"/>
        <pt x="458" y="770" on="1"/>
        <pt x="458" y="746" on="0"/>
        <pt x="422" y="712" on="0"/>
      </contour>
    </TTGlyph>
    <TTGlyph name="Agrave" xMin="-10" yMin="-13" xMax="511" yMax="892">
      <contour>
        <pt x="192" y="810" on="1"/>
        <pt x="167" y="826" on="0"/>
        <pt x="167" y="846" on="1"/>
        <pt x="167" y="873" on="0"/>
        <pt x="202" y="892" on="1"/>
        <pt x="214" y="877" on="0"/>
        <pt x="256" y="839" on="0"/>
        <pt x="292" y="811" on="0"/>
        <pt x="334" y="779" on="0"/>
        <pt x="338" y="776" on="1"/>
        <pt x="357" y="762" on="0"/>
        <pt x="357" y="748" on="1"/>
        <pt x="357" y="732" on="0"/>
        <pt x="341" y="716" on="1"/>
        <pt x="328" y="727" on="0"/>
        <pt x="216" y="794" on="0"/>
      </contour>
      <contour>
        <pt x="313" y="569" on="1"/>
        <pt x="302" y="545" on="0"/>
        <pt x="253" y="431" on="0"/>
        <pt x="203" y="320" on="0"/>
        <pt x="178" y="268" on="1"/>
        <pt x="250" y="266" on="0"/>
        <pt x="288" y="266" on="1"/>
        <pt x="344" y="266" on="0"/>
        <pt x="371" y="268" on="1"/>
        <pt x="353" y="349" on="0"/>
      </contour>
      <contour>
        <pt x="264" y="207" on="1"/>
        <pt x="242" y="207" on="0"/>
        <pt x="150" y="209" on="1"/>
        <pt x="139" y="185" on="0"/>
        <pt x="93" y="83" on="0"/>
        <pt x="61" y="12" on="0"/>
        <pt x="53" y="-13" on="1"/>
        <pt x="31" y="-12" on="0"/>
        <pt x="-10" y="9" on="0"/>
        <pt x="-10" y="28" on="1"/>
        <pt x="-10" y="37" on="0"/>
        <pt x="31" y="121" on="0"/>
        <pt x="113" y="283" on="0"/>
        <pt x="139" y="336" on="1"/>
        <pt x="255" y="577" on="0"/>
        <pt x="278" y="659" on="1"/>
        <pt x="314" y="663" on="0"/>
        <pt x="323" y="663" on="1"/>
        <pt x="347" y="663" on="0"/>
        <pt x="369" y="641" on="0"/>
        <pt x="375" y="610" on="1"/>
        <pt x="378" y="597" on="0"/>
        <pt x="403" y="453" on="0"/>
        <pt x="427" y="334" on="0"/>
        <pt x="440" y="280" on="1"/>
        <pt x="484" y="87" on="0"/>
        <pt x="511" y="10" on="1"/>
        <pt x="483" y="-10" on="0"/>
        <pt x="462" y="-10" on="1"/>
        <pt x="431" y="-10" on="0"/>
        <pt x="425" y="17" on="1"/>
        <pt x="411" y="80" on="0"/>
        <pt x="384" y="209" on="1"/>
        <pt x="284" y="207" on="0"/>
      </contour>
    </TTGlyph>
    <TTGlyph name="Aring" xMin="-10" yMin="-13" xMax="511" yMax="889">
      <contour>
        <pt x="319" y="711" on="1"/>
        <pt x="284" y="711" on="0"/>
        <pt x="244" y="751" on="0"/>
        <pt x="244" y="786" on="1"/>
        <pt x="244" y="830" on="0"/>
        <pt x="301" y="889" on="0"/>
        <pt x="342" y="889" on="1"/>
        <pt x="376" y="889" on="0"/>
        <pt x="416" y="849" on="0"/>
        <pt x="416" y="814" on="1"/>
        <pt x="416" y="770" on="0"/>
        <pt x="360" y="711" on="0"/>
      </contour>
      <contour>
        <pt x="338" y="856" on="1"/>
        <pt x="313" y="856" on="0"/>
        <pt x="286" y="819" on="0"/>
        <pt x="286" y="790" on="1"/>
        <pt x="286" y="769" on="0"/>
        <pt x="305" y="744" on="0"/>
        <pt x="323" y="744" on="1"/>
        <pt x="347" y="744" on="0"/>
        <pt x="373" y="781" on="0"/>
        <pt x="373" y="809" on="1"/>
        <pt x="373" y="830" on="0"/>
        <pt x="354" y="856" on="0"/>
      </contour>
      <contour>
        <pt x="313" y="569" on="1"/>
        <pt x="302" y="545" on="0"/>
        <pt x="253" y="431" on="0"/>
        <pt x="203" y="320" on="0"/>
        <pt x="178" y="268" on="1"/>
        <pt x="250" y="266" on="0"/>
        <pt x="288" y="266" on="1"/>
        <pt x="344" y="266" on="0"/>
        <pt x="371" y="268" on="1"/>
        <pt x="353" y="349" on="0"/>
      </contour>
      <contour>
        <pt x="264" y="207" on="1"/>
        <pt x="242" y="207" on="0"/>
        <pt x="150" y="209" on="1"/>
        <pt x="139" y="185" on="0"/>
        <pt x="93" y="83" on="0"/>
        <pt x="61" y="12" on="0"/>
        <pt x="53" y="-13" on="1"/>
        <pt x="31" y="-12" on="0"/>
        <pt x="-10" y="9" on="0"/>
        <pt x="-10" y="28" on="1"/>
        <pt x="-10" y="37" on="0"/>
        <pt x="31" y="121" on="0"/>
        <pt x="113" y="283" on="0"/>
        <pt x="139" y="336" on="1"/>
        <pt x="255" y="577" on="0"/>
        <pt x="278" y="659" on="1"/>
        <pt x="314" y="663" on="0"/>
        <pt x="323" y="663" on="1"/>
        <pt x="347" y="663" on="0"/>
        <pt x="369" y="641" on="0"/>
        <pt x="375" y="610" on="1"/>
        <pt x="378" y="597" on="0"/>
        <pt x="403" y="453" on="0"/>
        <pt x="427" y="334" on="0"/>
        <pt x="440" y="280" on="1"/>
        <pt x="484" y="87" on="0"/>
        <pt x="511" y="10" on="1"/>
        <pt x="483" y="-10" on="0"/>
        <pt x="462" y="-10" on="1"/>
        <pt x="431" y="-10" on="0"/>
        <pt x="425" y="17" on="1"/>
        <pt x="411" y="80" on="0"/>
        <pt x="384" y="209" on="1"/>
        <pt x="284" y="207" on="0"/>
      </contour>
    </TTGlyph>
    <TTGlyph name="Atilde" xMin="-10" yMin="-13" xMax="511" yMax="825">
      <contour>
        <pt x="313" y="569" on="1"/>
        <pt x="302" y="545" on="0"/>
        <pt x="253" y="431" on="0"/>
        <pt x="203" y="320" on="0"/>
        <pt x="178" y="268" on="1"/>
        <pt x="250" y="266" on="0"/>
        <pt x="288" y="266" on="1"/>
        <pt x="344" y="266" on="0"/>
        <pt x="371" y="268" on="1"/>
        <pt x="353" y="349" on="0"/>
      </contour>
      <contour>
        <pt x="264" y="207" on="1"/>
        <pt x="242" y="207" on="0"/>
        <pt x="150" y="209" on="1"/>
        <pt x="139" y="185" on="0"/>
        <pt x="93" y="83" on="0"/>
        <pt x="61" y="12" on="0"/>
        <pt x="53" y="-13" on="1"/>
        <pt x="31" y="-12" on="0"/>
        <pt x="-10" y="9" on="0"/>
        <pt x="-10" y="28" on="1"/>
        <pt x="-10" y="37" on="0"/>
        <pt x="31" y="121" on="0"/>
        <pt x="113" y="283" on="0"/>
        <pt x="139" y="336" on="1"/>
        <pt x="255" y="577" on="0"/>
        <pt x="278" y="659" on="1"/>
        <pt x="314" y="663" on="0"/>
        <pt x="323" y="663" on="1"/>
        <pt x="347" y="663" on="0"/>
        <pt x="369" y="641" on="0"/>
        <pt x="375" y="610" on="1"/>
        <pt x="378" y="597" on="0"/>
        <pt x="403" y="453" on="0"/>
        <pt x="427" y="334" on="0"/>
        <pt x="440" y="280" on="1"/>
        <pt x="484" y="87" on="0"/>
        <pt x="511" y="10" on="1"/>
        <pt x="483" y="-10" on="0"/>
        <pt x="462" y="-10" on="1"/>
        <pt x="431" y="-10" on="0"/>
        <pt x="425" y="17" on="1"/>
        <pt x="411" y="80" on="0"/>
        <pt x="384" y="209" on="1"/>
        <pt x="284" y="207" on="0"/>
      </contour>
      <contour>
        <pt x="393" y="780" on="1"/>
        <pt x="404" y="780" on="0"/>
        <pt x="443" y="806" on="0"/>
        <pt x="458" y="822" on="1"/>
        <pt x="471" y="817" on="0"/>
        <pt x="471" y="805" on="1"/>
        <pt x="471" y="777" on="0"/>
        <pt x="399" y="721" on="0"/>
        <pt x="363" y="721" on="1"/>
        <pt x="342" y="721" on="0"/>
        <pt x="274" y="766" on="0"/>
        <pt x="256" y="766" on="1"/>
        <pt x="237" y="766" on="0"/>
        <pt x="191" y="724" on="1"/>
        <pt x="178" y="730" on="0"/>
        <pt x="178" y="741" on="1"/>
        <pt x="178" y="769" on="0"/>
        <pt x="250" y="825" on="0"/>
        <pt x="287" y="825" on="1"/>
        <pt x="305" y="825" on="0"/>
        <pt x="376" y="780" on="0"/>
      </contour>
    </TTGlyph>
    <TTGlyph name="B" xMin="51" yMin="-10" xMax="483" yMax="673">
      <contour>
        <pt x="265" y="612" on="1"/>
        <pt x="244" y="612" on="0"/>
        <pt x="206" y="608" on="1"/>
        <pt x="193" y="476" on="0"/>
        <pt x="182" y="383" on="1"/>
        <pt x="210" y="381" on="0"/>
        <pt x="227" y="381" on="1"/>
        <pt x="401" y="381" on="0"/>
        <pt x="401" y="515" on="1"/>
        <pt x="401" y="612" on="0"/>
      </contour>
      <contour>
        <pt x="236" y="51" on="1"/>
        <pt x="297" y="51" on="0"/>
        <pt x="384" y="139" on="0"/>
        <pt x="384" y="211" on="1"/>
        <pt x="384" y="270" on="0"/>
        <pt x="310" y="331" on="0"/>
        <pt x="254" y="331" on="1"/>
        <pt x="199" y="331" on="0"/>
        <pt x="174" y="326" on="1"/>
        <pt x="159" y="220" on="0"/>
        <pt x="131" y="87" on="1"/>
        <pt x="145" y="73" on="0"/>
        <pt x="207" y="51" on="0"/>
      </contour>
      <contour>
        <pt x="51" y="56" on="1"/>
        <pt x="79" y="167" on="0"/>
        <pt x="107" y="387" on="1"/>
        <pt x="131" y="572" on="0"/>
        <pt x="131" y="660" on="1"/>
        <pt x="200" y="673" on="0"/>
        <pt x="279" y="673" on="1"/>
        <pt x="369" y="673" on="0"/>
        <pt x="483" y="607" on="0"/>
        <pt x="483" y="530" on="1"/>
        <pt x="483" y="473" on="0"/>
        <pt x="432" y="381" on="0"/>
        <pt x="386" y="362" on="1"/>
        <pt x="466" y="320" on="0"/>
        <pt x="466" y="227" on="1"/>
        <pt x="466" y="120" on="0"/>
        <pt x="336" y="-10" on="0"/>
        <pt x="245" y="-10" on="1"/>
        <pt x="112" y="-10" on="0"/>
      </contour>
    </TTGlyph>
    <TTGlyph name="C" xMin="48" yMin="-10" xMax="532" yMax="673">
      <contour>
        <pt x="427" y="134" on="1"/>
        <pt x="470" y="116" on="0"/>
        <pt x="470" y="87" on="1"/>
        <pt x="470" y="49" on="0"/>
        <pt x="358" y="-10" on="0"/>
        <pt x="282" y="-10" on="1"/>
        <pt x="173" y="-10" on="0"/>
        <pt x="48" y="139" on="0"/>
        <pt x="48" y="264" on="1"/>
        <pt x="48" y="445" on="0"/>
        <pt x="232" y="673" on="0"/>
        <pt x="378" y="673" on="1"/>
        <pt x="444" y="673" on="0"/>
        <pt x="532" y="616" on="0"/>
        <pt x="532" y="574" on="1"/>
        <pt x="532" y="549" on="0"/>
        <pt x="499" y="518" on="0"/>
        <pt x="473" y="514" on="1"/>
        <pt x="462" y="563" on="0"/>
        <pt x="396" y="612" on="0"/>
        <pt x="355" y="612" on="1"/>
        <pt x="257" y="612" on="0"/>
        <pt x="131" y="416" on="0"/>
        <pt x="131" y="287" on="1"/>
        <pt x="131" y="183" on="0"/>
        <pt x="214" y="51" on="0"/>
        <pt x="294" y="51" on="1"/>
        <pt x="376" y="51" on="0"/>
      </contour>
    </TTGlyph>
    <TTGlyph name="Ccedilla" xMin="48" yMin="-232" xMax="532" yMax="673">
      <contour>
        <pt x="427" y="134" on="1"/>
        <pt x="470" y="116" on="0"/>
        <pt x="470" y="87" on="1"/>
        <pt x="470" y="50" on="0"/>
        <pt x="362" y="-9" on="0"/>
        <pt x="288" y="-10" on="1"/>
        <pt x="281" y="-26" on="0"/>
        <pt x="281" y="-33" on="1"/>
        <pt x="281" y="-44" on="0"/>
        <pt x="303" y="-60" on="1"/>
        <pt x="341" y="-83" on="0"/>
        <pt x="341" y="-122" on="1"/>
        <pt x="341" y="-164" on="0"/>
        <pt x="264" y="-232" on="0"/>
        <pt x="210" y="-232" on="1"/>
        <pt x="179" y="-232" on="0"/>
        <pt x="179" y="-209" on="1"/>
        <pt x="179" y="-195" on="0"/>
        <pt x="198" y="-178" on="1"/>
        <pt x="211" y="-187" on="0"/>
        <pt x="225" y="-187" on="1"/>
        <pt x="250" y="-187" on="0"/>
        <pt x="287" y="-163" on="0"/>
        <pt x="287" y="-142" on="1"/>
        <pt x="287" y="-122" on="0"/>
        <pt x="230" y="-76" on="0"/>
        <pt x="230" y="-42" on="0"/>
        <pt x="246" y="-7" on="1"/>
        <pt x="153" y="5" on="0"/>
        <pt x="48" y="150" on="0"/>
        <pt x="48" y="264" on="1"/>
        <pt x="48" y="445" on="0"/>
        <pt x="232" y="673" on="0"/>
        <pt x="378" y="673" on="1"/>
        <pt x="444" y="673" on="0"/>
        <pt x="532" y="616" on="0"/>
        <pt x="532" y="574" on="1"/>
        <pt x="532" y="549" on="0"/>
        <pt x="499" y="518" on="0"/>
        <pt x="473" y="514" on="1"/>
        <pt x="462" y="563" on="0"/>
        <pt x="396" y="612" on="0"/>
        <pt x="355" y="612" on="1"/>
        <pt x="257" y="612" on="0"/>
        <pt x="131" y="416" on="0"/>
        <pt x="131" y="287" on="1"/>
        <pt x="131" y="183" on="0"/>
        <pt x="214" y="51" on="0"/>
        <pt x="294" y="51" on="1"/>
        <pt x="376" y="51" on="0"/>
      </contour>
    </TTGlyph>
    <TTGlyph name="D" xMin="51" yMin="-10" xMax="563" yMax="673">
      <contour>
        <pt x="51" y="53" on="1"/>
        <pt x="80" y="186" on="0"/>
        <pt x="128" y="532" on="0"/>
        <pt x="131" y="661" on="1"/>
        <pt x="185" y="673" on="0"/>
        <pt x="273" y="673" on="1"/>
        <pt x="563" y="673" on="0"/>
        <pt x="563" y="404" on="1"/>
        <pt x="563" y="296" on="0"/>
        <pt x="489" y="111" on="0"/>
        <pt x="336" y="-10" on="0"/>
        <pt x="235" y="-10" on="1"/>
        <pt x="111" y="-10" on="0"/>
      </contour>
      <contour>
        <pt x="208" y="608" on="1"/>
        <pt x="185" y="332" on="0"/>
        <pt x="134" y="87" on="1"/>
        <pt x="178" y="51" on="0"/>
        <pt x="246" y="51" on="1"/>
        <pt x="309" y="51" on="0"/>
        <pt x="405" y="116" on="0"/>
        <pt x="455" y="219" on="0"/>
        <pt x="479" y="328" on="0"/>
        <pt x="479" y="382" on="1"/>
        <pt x="479" y="497" on="0"/>
        <pt x="368" y="612" on="0"/>
        <pt x="264" y="612" on="1"/>
        <pt x="246" y="612" on="0"/>
      </contour>
    </TTGlyph>
    <TTGlyph name="Delta" xMin="16" yMin="0" xMax="565" yMax="643">
      <contour>
        <pt x="87" y="70" on="1"/>
        <pt x="144" y="60" on="0"/>
        <pt x="282" y="60" on="1"/>
        <pt x="415" y="60" on="0"/>
        <pt x="474" y="70" on="1"/>
        <pt x="368" y="463" on="0"/>
        <pt x="350" y="555" on="1"/>
        <pt x="168" y="222" on="0"/>
      </contour>
      <contour>
        <pt x="17" y="40" on="1"/>
        <pt x="44" y="89" on="0"/>
        <pt x="189" y="348" on="0"/>
        <pt x="289" y="532" on="0"/>
        <pt x="334" y="621" on="1"/>
        <pt x="345" y="643" on="0"/>
        <pt x="376" y="643" on="1"/>
        <pt x="382" y="643" on="0"/>
        <pt x="400" y="640" on="1"/>
        <pt x="480" y="339" on="0"/>
        <pt x="565" y="40" on="1"/>
        <pt x="561" y="0" on="0"/>
        <pt x="533" y="0" on="1"/>
        <pt x="38" y="0" on="1"/>
        <pt x="16" y="0" on="0"/>
        <pt x="16" y="27" on="1"/>
        <pt x="16" y="32" on="0"/>
      </contour>
    </TTGlyph>
    <TTGlyph name="E" xMin="60" yMin="-3" xMax="468" yMax="665">
      <contour>
        <pt x="454" y="580" on="1"/>
        <pt x="406" y="601" on="0"/>
        <pt x="290" y="601" on="1"/>
        <pt x="256" y="601" on="0"/>
        <pt x="205" y="598" on="1"/>
        <pt x="203" y="551" on="0"/>
        <pt x="181" y="386" on="1"/>
        <pt x="318" y="386" on="0"/>
        <pt x="351" y="390" on="1"/>
        <pt x="353" y="374" on="0"/>
        <pt x="353" y="368" on="1"/>
        <pt x="353" y="327" on="0"/>
        <pt x="308" y="324" on="1"/>
        <pt x="284" y="323" on="0"/>
        <pt x="172" y="323" on="1"/>
        <pt x="145" y="112" on="0"/>
        <pt x="145" y="61" on="1"/>
        <pt x="173" y="59" on="0"/>
        <pt x="209" y="59" on="1"/>
        <pt x="263" y="59" on="0"/>
        <pt x="374" y="73" on="0"/>
        <pt x="392" y="82" on="1"/>
        <pt x="400" y="55" on="0"/>
        <pt x="400" y="40" on="1"/>
        <pt x="400" y="11" on="0"/>
        <pt x="337" y="-3" on="0"/>
        <pt x="248" y="-3" on="1"/>
        <pt x="122" y="-3" on="0"/>
        <pt x="96" y="-1" on="1"/>
        <pt x="76" y="0" on="0"/>
        <pt x="60" y="16" on="0"/>
        <pt x="60" y="34" on="1"/>
        <pt x="60" y="62" on="0"/>
        <pt x="127" y="550" on="0"/>
        <pt x="127" y="631" on="1"/>
        <pt x="127" y="649" on="0"/>
        <pt x="126" y="656" on="1"/>
        <pt x="224" y="665" on="0"/>
        <pt x="319" y="665" on="1"/>
        <pt x="448" y="665" on="0"/>
        <pt x="463" y="650" on="1"/>
        <pt x="468" y="644" on="0"/>
        <pt x="468" y="631" on="1"/>
        <pt x="468" y="605" on="0"/>
      </contour>
    </TTGlyph>
    <TTGlyph name="Eacute" xMin="60" yMin="-3" xMax="473" yMax="878">
      <contour>
        <pt x="459" y="580" on="1"/>
        <pt x="411" y="601" on="0"/>
        <pt x="295" y="601" on="1"/>
        <pt x="256" y="601" on="0"/>
        <pt x="205" y="598" on="1"/>
        <pt x="203" y="551" on="0"/>
        <pt x="181" y="386" on="1"/>
        <pt x="318" y="386" on="0"/>
        <pt x="351" y="390" on="1"/>
        <pt x="353" y="374" on="0"/>
        <pt x="353" y="368" on="1"/>
        <pt x="353" y="327" on="0"/>
        <pt x="308" y="324" on="1"/>
        <pt x="284" y="323" on="0"/>
        <pt x="172" y="323" on="1"/>
        <pt x="145" y="112" on="0"/>
        <pt x="145" y="61" on="1"/>
        <pt x="173" y="59" on="0"/>
        <pt x="195" y="59" on="1"/>
        <pt x="249" y="59" on="0"/>
        <pt x="360" y="73" on="0"/>
        <pt x="378" y="82" on="1"/>
        <pt x="386" y="55" on="0"/>
        <pt x="386" y="40" on="1"/>
        <pt x="386" y="11" on="0"/>
        <pt x="323" y="-3" on="0"/>
        <pt x="234" y="-3" on="1"/>
        <pt x="122" y="-3" on="0"/>
        <pt x="96" y="-1" on="1"/>
        <pt x="76" y="0" on="0"/>
        <pt x="60" y="16" on="0"/>
        <pt x="60" y="34" on="1"/>
        <pt x="60" y="62" on="0"/>
        <pt x="127" y="550" on="0"/>
        <pt x="127" y="631" on="1"/>
        <pt x="127" y="649" on="0"/>
        <pt x="126" y="656" on="1"/>
        <pt x="224" y="665" on="0"/>
        <pt x="324" y="665" on="1"/>
        <pt x="453" y="665" on="0"/>
        <pt x="468" y="650" on="1"/>
        <pt x="473" y="644" on="0"/>
        <pt x="473" y="631" on="1"/>
        <pt x="473" y="605" on="0"/>
      </contour>
      <contour>
        <pt x="420" y="794" on="1"/>
        <pt x="398" y="782" on="0"/>
        <pt x="276" y="726" on="0"/>
        <pt x="261" y="715" on="1"/>
        <pt x="248" y="728" on="0"/>
        <pt x="248" y="744" on="1"/>
        <pt x="248" y="764" on="0"/>
        <pt x="269" y="774" on="1"/>
        <pt x="374" y="834" on="0"/>
        <pt x="419" y="878" on="1"/>
        <pt x="449" y="856" on="0"/>
        <pt x="449" y="833" on="1"/>
        <pt x="449" y="811" on="0"/>
      </contour>
    </TTGlyph>
    <TTGlyph name="Ecircumflex" xMin="60" yMin="-3" xMax="473" yMax="870">
      <contour>
        <pt x="329" y="870" on="1"/>
        <pt x="435" y="790" on="0"/>
        <pt x="435" y="743" on="1"/>
        <pt x="435" y="721" on="0"/>
        <pt x="408" y="710" on="1"/>
        <pt x="394" y="734" on="0"/>
        <pt x="348" y="778" on="0"/>
        <pt x="332" y="788" on="1"/>
        <pt x="317" y="799" on="1"/>
        <pt x="311" y="794" on="0"/>
        <pt x="284" y="773" on="0"/>
        <pt x="269" y="761" on="0"/>
        <pt x="246" y="743" on="0"/>
        <pt x="231" y="733" on="0"/>
        <pt x="214" y="723" on="0"/>
        <pt x="203" y="718" on="0"/>
        <pt x="199" y="718" on="1"/>
        <pt x="187" y="718" on="0"/>
        <pt x="177" y="736" on="1"/>
        <pt x="245" y="811" on="0"/>
      </contour>
      <contour>
        <pt x="459" y="580" on="1"/>
        <pt x="411" y="601" on="0"/>
        <pt x="295" y="601" on="1"/>
        <pt x="256" y="601" on="0"/>
        <pt x="205" y="598" on="1"/>
        <pt x="203" y="551" on="0"/>
        <pt x="181" y="386" on="1"/>
        <pt x="318" y="386" on="0"/>
        <pt x="351" y="390" on="1"/>
        <pt x="353" y="374" on="0"/>
        <pt x="353" y="368" on="1"/>
        <pt x="353" y="327" on="0"/>
        <pt x="308" y="324" on="1"/>
        <pt x="284" y="323" on="0"/>
        <pt x="172" y="323" on="1"/>
        <pt x="145" y="112" on="0"/>
        <pt x="145" y="61" on="1"/>
        <pt x="173" y="59" on="0"/>
        <pt x="195" y="59" on="1"/>
        <pt x="249" y="59" on="0"/>
        <pt x="360" y="73" on="0"/>
        <pt x="378" y="82" on="1"/>
        <pt x="386" y="55" on="0"/>
        <pt x="386" y="40" on="1"/>
        <pt x="386" y="11" on="0"/>
        <pt x="323" y="-3" on="0"/>
        <pt x="234" y="-3" on="1"/>
        <pt x="122" y="-3" on="0"/>
        <pt x="96" y="-1" on="1"/>
        <pt x="76" y="0" on="0"/>
        <pt x="60" y="16" on="0"/>
        <pt x="60" y="34" on="1"/>
        <pt x="60" y="62" on="0"/>
        <pt x="127" y="550" on="0"/>
        <pt x="127" y="631" on="1"/>
        <pt x="127" y="649" on="0"/>
        <pt x="126" y="656" on="1"/>
        <pt x="224" y="665" on="0"/>
        <pt x="324" y="665" on="1"/>
        <pt x="453" y="665" on="0"/>
        <pt x="468" y="650" on="1"/>
        <pt x="473" y="644" on="0"/>
        <pt x="473" y="631" on="1"/>
        <pt x="473" y="605" on="0"/>
      </contour>
    </TTGlyph>
    <TTGlyph name="Edieresis" xMin="60" yMin="-3" xMax="468" yMax="819">
      <contour>
        <pt x="454" y="580" on="1"/>
        <pt x="406" y="601" on="0"/>
        <pt x="290" y="601" on="1"/>
        <pt x="256" y="601" on="0"/>
        <pt x="205" y="598" on="1"/>
        <pt x="203" y="551" on="0"/>
        <pt x="181" y="386" on="1"/>
        <pt x="318" y="386" on="0"/>
        <pt x="351" y="390" on="1"/>
        <pt x="353" y="374" on="0"/>
        <pt x="353" y="368" on="1"/>
        <pt x="353" y="327" on="0"/>
        <pt x="308" y="324" on="1"/>
        <pt x="284" y="323" on="0"/>
        <pt x="172" y="323" on="1"/>
        <pt x="145" y="112" on="0"/>
        <pt x="145" y="61" on="1"/>
        <pt x="173" y="59" on="0"/>
        <pt x="209" y="59" on="1"/>
        <pt x="263" y="59" on="0"/>
        <pt x="374" y="73" on="0"/>
        <pt x="392" y="82" on="1"/>
        <pt x="400" y="55" on="0"/>
        <pt x="400" y="40" on="1"/>
        <pt x="400" y="11" on="0"/>
        <pt x="337" y="-3" on="0"/>
        <pt x="248" y="-3" on="1"/>
        <pt x="122" y="-3" on="0"/>
        <pt x="96" y="-1" on="1"/>
        <pt x="76" y="0" on="0"/>
        <pt x="60" y="16" on="0"/>
        <pt x="60" y="34" on="1"/>
        <pt x="60" y="62" on="0"/>
        <pt x="127" y="550" on="0"/>
        <pt x="127" y="631" on="1"/>
        <pt x="127" y="649" on="0"/>
        <pt x="126" y="656" on="1"/>
        <pt x="224" y="665" on="0"/>
        <pt x="319" y="665" on="1"/>
        <pt x="448" y="665" on="0"/>
        <pt x="463" y="650" on="1"/>
        <pt x="468" y="644" on="0"/>
        <pt x="468" y="631" on="1"/>
        <pt x="468" y="605" on="0"/>
      </contour>
      <contour>
        <pt x="218" y="712" on="1"/>
        <pt x="199" y="712" on="0"/>
        <pt x="175" y="738" on="0"/>
        <pt x="175" y="759" on="1"/>
        <pt x="175" y="784" on="0"/>
        <pt x="209" y="819" on="0"/>
        <pt x="231" y="819" on="1"/>
        <pt x="249" y="819" on="0"/>
        <pt x="274" y="791" on="0"/>
        <pt x="274" y="770" on="1"/>
        <pt x="274" y="746" on="0"/>
        <pt x="238" y="712" on="0"/>
      </contour>
      <contour>
        <pt x="385" y="712" on="1"/>
        <pt x="366" y="712" on="0"/>
        <pt x="342" y="738" on="0"/>
        <pt x="342" y="759" on="1"/>
        <pt x="342" y="784" on="0"/>
        <pt x="376" y="819" on="0"/>
        <pt x="398" y="819" on="1"/>
        <pt x="416" y="819" on="0"/>
        <pt x="441" y="791" on="0"/>
        <pt x="441" y="770" on="1"/>
        <pt x="441" y="746" on="0"/>
        <pt x="405" y="712" on="0"/>
      </contour>
    </TTGlyph>
    <TTGlyph name="Egrave" xMin="60" yMin="-3" xMax="473" yMax="892">
      <contour>
        <pt x="459" y="580" on="1"/>
        <pt x="411" y="601" on="0"/>
        <pt x="295" y="601" on="1"/>
        <pt x="256" y="601" on="0"/>
        <pt x="205" y="598" on="1"/>
        <pt x="203" y="551" on="0"/>
        <pt x="181" y="386" on="1"/>
        <pt x="318" y="386" on="0"/>
        <pt x="351" y="390" on="1"/>
        <pt x="353" y="374" on="0"/>
        <pt x="353" y="368" on="1"/>
        <pt x="353" y="327" on="0"/>
        <pt x="308" y="324" on="1"/>
        <pt x="284" y="323" on="0"/>
        <pt x="172" y="323" on="1"/>
        <pt x="145" y="112" on="0"/>
        <pt x="145" y="61" on="1"/>
        <pt x="173" y="59" on="0"/>
        <pt x="195" y="59" on="1"/>
        <pt x="249" y="59" on="0"/>
        <pt x="360" y="73" on="0"/>
        <pt x="378" y="82" on="1"/>
        <pt x="386" y="55" on="0"/>
        <pt x="386" y="40" on="1"/>
        <pt x="386" y="11" on="0"/>
        <pt x="323" y="-3" on="0"/>
        <pt x="234" y="-3" on="1"/>
        <pt x="122" y="-3" on="0"/>
        <pt x="96" y="-1" on="1"/>
        <pt x="76" y="0" on="0"/>
        <pt x="60" y="16" on="0"/>
        <pt x="60" y="34" on="1"/>
        <pt x="60" y="62" on="0"/>
        <pt x="127" y="550" on="0"/>
        <pt x="127" y="631" on="1"/>
        <pt x="127" y="649" on="0"/>
        <pt x="126" y="656" on="1"/>
        <pt x="224" y="665" on="0"/>
        <pt x="324" y="665" on="1"/>
        <pt x="453" y="665" on="0"/>
        <pt x="468" y="650" on="1"/>
        <pt x="473" y="644" on="0"/>
        <pt x="473" y="631" on="1"/>
        <pt x="473" y="605" on="0"/>
      </contour>
      <contour>
        <pt x="188" y="810" on="1"/>
        <pt x="163" y="826" on="0"/>
        <pt x="163" y="846" on="1"/>
        <pt x="163" y="873" on="0"/>
        <pt x="198" y="892" on="1"/>
        <pt x="210" y="877" on="0"/>
        <pt x="252" y="839" on="0"/>
        <pt x="288" y="811" on="0"/>
        <pt x="330" y="779" on="0"/>
        <pt x="334" y="776" on="1"/>
        <pt x="353" y="762" on="0"/>
        <pt x="353" y="748" on="1"/>
        <pt x="353" y="732" on="0"/>
        <pt x="337" y="716" on="1"/>
        <pt x="324" y="727" on="0"/>
        <pt x="212" y="794" on="0"/>
      </contour>
    </TTGlyph>
    <TTGlyph name="Eth" xMin="40" yMin="-10" xMax="586" yMax="673">
      <contour>
        <pt x="231" y="608" on="1"/>
        <pt x="222" y="497" on="0"/>
        <pt x="207" y="386" on="1"/>
        <pt x="345" y="386" on="0"/>
        <pt x="377" y="390" on="1"/>
        <pt x="379" y="374" on="0"/>
        <pt x="379" y="368" on="1"/>
        <pt x="379" y="327" on="0"/>
        <pt x="334" y="324" on="1"/>
        <pt x="313" y="323" on="0"/>
        <pt x="198" y="323" on="1"/>
        <pt x="179" y="196" on="0"/>
        <pt x="157" y="87" on="1"/>
        <pt x="201" y="51" on="0"/>
        <pt x="269" y="51" on="1"/>
        <pt x="332" y="51" on="0"/>
        <pt x="428" y="116" on="0"/>
        <pt x="478" y="219" on="0"/>
        <pt x="502" y="328" on="0"/>
        <pt x="502" y="382" on="1"/>
        <pt x="502" y="497" on="0"/>
        <pt x="391" y="612" on="0"/>
        <pt x="287" y="612" on="1"/>
        <pt x="269" y="612" on="0"/>
      </contour>
      <contour>
        <pt x="74" y="53" on="1"/>
        <pt x="103" y="187" on="0"/>
        <pt x="122" y="323" on="1"/>
        <pt x="69" y="323" on="0"/>
        <pt x="42" y="319" on="1"/>
        <pt x="40" y="335" on="0"/>
        <pt x="40" y="341" on="1"/>
        <pt x="40" y="386" on="0"/>
        <pt x="86" y="386" on="1"/>
        <pt x="131" y="386" on="1"/>
        <pt x="151" y="550" on="0"/>
        <pt x="154" y="661" on="1"/>
        <pt x="208" y="673" on="0"/>
        <pt x="296" y="673" on="1"/>
        <pt x="586" y="673" on="0"/>
        <pt x="586" y="404" on="1"/>
        <pt x="586" y="296" on="0"/>
        <pt x="512" y="111" on="0"/>
        <pt x="359" y="-10" on="0"/>
        <pt x="258" y="-10" on="1"/>
        <pt x="134" y="-10" on="0"/>
      </contour>
    </TTGlyph>
    <TTGlyph name="Euro" xMin="56" yMin="-9" xMax="574" yMax="673">
      <contour>
        <pt x="546" y="581" on="1"/>
        <pt x="505" y="617" on="0"/>
        <pt x="443" y="617" on="1"/>
        <pt x="376" y="617" on="0"/>
        <pt x="244" y="501" on="0"/>
        <pt x="215" y="402" on="1"/>
        <pt x="334" y="402" on="1"/>
        <pt x="431" y="402" on="0"/>
        <pt x="486" y="407" on="1"/>
        <pt x="487" y="399" on="1"/>
        <pt x="487" y="363" on="0"/>
        <pt x="458" y="363" on="1"/>
        <pt x="206" y="363" on="1"/>
        <pt x="198" y="328" on="0"/>
        <pt x="197" y="292" on="1"/>
        <pt x="319" y="292" on="1"/>
        <pt x="416" y="292" on="0"/>
        <pt x="471" y="297" on="1"/>
        <pt x="472" y="289" on="1"/>
        <pt x="472" y="253" on="0"/>
        <pt x="443" y="253" on="1"/>
        <pt x="197" y="253" on="1"/>
        <pt x="202" y="153" on="0"/>
        <pt x="305" y="48" on="0"/>
        <pt x="368" y="48" on="1"/>
        <pt x="429" y="48" on="0"/>
        <pt x="482" y="84" on="1"/>
        <pt x="497" y="72" on="0"/>
        <pt x="497" y="47" on="1"/>
        <pt x="497" y="-9" on="0"/>
        <pt x="366" y="-9" on="1"/>
        <pt x="320" y="-9" on="0"/>
        <pt x="239" y="20" on="0"/>
        <pt x="171" y="80" on="0"/>
        <pt x="131" y="184" on="0"/>
        <pt x="130" y="253" on="1"/>
        <pt x="107" y="252" on="0"/>
        <pt x="57" y="248" on="1"/>
        <pt x="56" y="252" on="0"/>
        <pt x="56" y="258" on="1"/>
        <pt x="56" y="292" on="0"/>
        <pt x="85" y="292" on="1"/>
        <pt x="131" y="292" on="1"/>
        <pt x="133" y="332" on="0"/>
        <pt x="138" y="363" on="1"/>
        <pt x="119" y="362" on="0"/>
        <pt x="72" y="358" on="1"/>
        <pt x="71" y="362" on="0"/>
        <pt x="71" y="368" on="1"/>
        <pt x="71" y="402" on="0"/>
        <pt x="100" y="402" on="1"/>
        <pt x="146" y="402" on="1"/>
        <pt x="179" y="533" on="0"/>
        <pt x="352" y="673" on="0"/>
        <pt x="455" y="673" on="1"/>
        <pt x="574" y="673" on="0"/>
        <pt x="574" y="629" on="1"/>
        <pt x="574" y="597" on="0"/>
      </contour>
    </TTGlyph>
    <TTGlyph name="Eurooldstyle" xMin="42" yMin="-10" xMax="542" yMax="580">
      <contour>
        <pt x="433" y="317" on="1"/>
        <pt x="191" y="317" on="1"/>
        <pt x="187" y="301" on="0"/>
        <pt x="182" y="256" on="1"/>
        <pt x="236" y="256" on="1"/>
        <pt x="395" y="256" on="0"/>
        <pt x="449" y="261" on="1"/>
        <pt x="449" y="254" on="1"/>
        <pt x="449" y="217" on="0"/>
        <pt x="420" y="217" on="1"/>
        <pt x="183" y="217" on="1"/>
        <pt x="189" y="134" on="0"/>
        <pt x="286" y="47" on="0"/>
        <pt x="349" y="47" on="1"/>
        <pt x="411" y="47" on="0"/>
        <pt x="462" y="83" on="1"/>
        <pt x="478" y="71" on="0"/>
        <pt x="478" y="46" on="1"/>
        <pt x="478" y="-10" on="0"/>
        <pt x="347" y="-10" on="1"/>
        <pt x="285" y="-10" on="0"/>
        <pt x="185" y="32" on="0"/>
        <pt x="116" y="138" on="0"/>
        <pt x="115" y="217" on="1"/>
        <pt x="96" y="216" on="0"/>
        <pt x="43" y="212" on="1"/>
        <pt x="42" y="216" on="0"/>
        <pt x="42" y="222" on="1"/>
        <pt x="42" y="256" on="0"/>
        <pt x="71" y="256" on="1"/>
        <pt x="115" y="256" on="1"/>
        <pt x="117" y="290" on="0"/>
        <pt x="124" y="317" on="1"/>
        <pt x="105" y="316" on="0"/>
        <pt x="56" y="312" on="1"/>
        <pt x="55" y="317" on="0"/>
        <pt x="55" y="322" on="1"/>
        <pt x="55" y="356" on="0"/>
        <pt x="84" y="356" on="1"/>
        <pt x="133" y="356" on="1"/>
        <pt x="167" y="469" on="0"/>
        <pt x="328" y="580" on="0"/>
        <pt x="425" y="580" on="1"/>
        <pt x="542" y="580" on="0"/>
        <pt x="542" y="537" on="1"/>
        <pt x="542" y="503" on="0"/>
        <pt x="516" y="487" on="1"/>
        <pt x="474" y="524" on="0"/>
        <pt x="350" y="524" on="0"/>
        <pt x="230" y="438" on="0"/>
        <pt x="201" y="356" on="1"/>
        <pt x="309" y="356" on="1"/>
        <pt x="408" y="356" on="0"/>
        <pt x="462" y="361" on="1"/>
        <pt x="462" y="354" on="1"/>
        <pt x="462" y="317" on="0"/>
      </contour>
    </TTGlyph>
    <TTGlyph name="F" xMin="60" yMin="-3" xMax="474" yMax="665">
      <contour>
        <pt x="150" y="5" on="1"/>
        <pt x="132" y="-3" on="0"/>
        <pt x="102" y="-3" on="1"/>
        <pt x="60" y="-3" on="0"/>
        <pt x="60" y="39" on="1"/>
        <pt x="60" y="46" on="0"/>
        <pt x="70" y="116" on="0"/>
        <pt x="93" y="286" on="0"/>
        <pt x="104" y="376" on="1"/>
        <pt x="128" y="559" on="0"/>
        <pt x="128" y="631" on="1"/>
        <pt x="128" y="649" on="0"/>
        <pt x="127" y="656" on="1"/>
        <pt x="225" y="665" on="0"/>
        <pt x="325" y="665" on="1"/>
        <pt x="454" y="665" on="0"/>
        <pt x="469" y="650" on="1"/>
        <pt x="474" y="644" on="0"/>
        <pt x="474" y="631" on="1"/>
        <pt x="474" y="605" on="0"/>
        <pt x="460" y="580" on="1"/>
        <pt x="412" y="601" on="0"/>
        <pt x="296" y="601" on="1"/>
        <pt x="257" y="601" on="0"/>
        <pt x="206" y="598" on="1"/>
        <pt x="204" y="551" on="0"/>
        <pt x="182" y="386" on="1"/>
        <pt x="319" y="386" on="0"/>
        <pt x="352" y="390" on="1"/>
        <pt x="354" y="374" on="0"/>
        <pt x="354" y="368" on="1"/>
        <pt x="354" y="327" on="0"/>
        <pt x="309" y="324" on="1"/>
        <pt x="285" y="323" on="0"/>
        <pt x="174" y="323" on="1"/>
        <pt x="146" y="114" on="0"/>
        <pt x="146" y="66" on="1"/>
        <pt x="146" y="32" on="0"/>
      </contour>
    </TTGlyph>
    <TTGlyph name="G" xMin="48" yMin="-10" xMax="532" yMax="673">
      <contour>
        <pt x="428" y="301" on="1"/>
        <pt x="446" y="304" on="0"/>
        <pt x="465" y="304" on="1"/>
        <pt x="509" y="304" on="0"/>
        <pt x="509" y="273" on="1"/>
        <pt x="509" y="267" on="0"/>
        <pt x="499" y="215" on="0"/>
        <pt x="484" y="126" on="0"/>
        <pt x="479" y="85" on="1"/>
        <pt x="471" y="44" on="0"/>
        <pt x="359" y="-10" on="0"/>
        <pt x="282" y="-10" on="1"/>
        <pt x="173" y="-10" on="0"/>
        <pt x="48" y="139" on="0"/>
        <pt x="48" y="264" on="1"/>
        <pt x="48" y="445" on="0"/>
        <pt x="232" y="673" on="0"/>
        <pt x="378" y="673" on="1"/>
        <pt x="444" y="673" on="0"/>
        <pt x="532" y="616" on="0"/>
        <pt x="532" y="574" on="1"/>
        <pt x="532" y="549" on="0"/>
        <pt x="499" y="518" on="0"/>
        <pt x="473" y="514" on="1"/>
        <pt x="462" y="563" on="0"/>
        <pt x="396" y="612" on="0"/>
        <pt x="355" y="612" on="1"/>
        <pt x="257" y="612" on="0"/>
        <pt x="131" y="416" on="0"/>
        <pt x="131" y="287" on="1"/>
        <pt x="131" y="183" on="0"/>
        <pt x="214" y="51" on="0"/>
        <pt x="294" y="51" on="1"/>
        <pt x="360" y="51" on="0"/>
        <pt x="408" y="91" on="1"/>
        <pt x="422" y="214" on="0"/>
      </contour>
    </TTGlyph>
    <TTGlyph name="H" xMin="60" yMin="-3" xMax="582" yMax="666">
      <contour>
        <pt x="538" y="666" on="1"/>
        <pt x="582" y="666" on="0"/>
        <pt x="582" y="633" on="1"/>
        <pt x="582" y="628" on="0"/>
        <pt x="572" y="573" on="0"/>
        <pt x="554" y="462" on="0"/>
        <pt x="547" y="404" on="1"/>
        <pt x="521" y="203" on="1"/>
        <pt x="509" y="115" on="0"/>
        <pt x="509" y="66" on="1"/>
        <pt x="509" y="32" on="0"/>
        <pt x="513" y="5" on="1"/>
        <pt x="495" y="-3" on="0"/>
        <pt x="465" y="-3" on="1"/>
        <pt x="423" y="-3" on="0"/>
        <pt x="423" y="39" on="1"/>
        <pt x="423" y="46" on="0"/>
        <pt x="432" y="109" on="0"/>
        <pt x="445" y="203" on="0"/>
        <pt x="449" y="231" on="1"/>
        <pt x="461" y="332" on="1"/>
        <pt x="415" y="330" on="0"/>
        <pt x="319" y="330" on="1"/>
        <pt x="216" y="330" on="0"/>
        <pt x="174" y="332" on="1"/>
        <pt x="158" y="203" on="1"/>
        <pt x="146" y="115" on="0"/>
        <pt x="146" y="66" on="1"/>
        <pt x="146" y="32" on="0"/>
        <pt x="150" y="5" on="1"/>
        <pt x="132" y="-3" on="0"/>
        <pt x="102" y="-3" on="1"/>
        <pt x="60" y="-3" on="0"/>
        <pt x="60" y="39" on="1"/>
        <pt x="60" y="46" on="0"/>
        <pt x="69" y="109" on="0"/>
        <pt x="82" y="203" on="0"/>
        <pt x="86" y="231" on="1"/>
        <pt x="111" y="431" on="1"/>
        <pt x="130" y="581" on="0"/>
        <pt x="134" y="663" on="1"/>
        <pt x="150" y="666" on="0"/>
        <pt x="175" y="666" on="1"/>
        <pt x="219" y="666" on="0"/>
        <pt x="219" y="633" on="1"/>
        <pt x="219" y="628" on="0"/>
        <pt x="209" y="572" on="0"/>
        <pt x="190" y="454" on="0"/>
        <pt x="182" y="391" on="1"/>
        <pt x="225" y="389" on="0"/>
        <pt x="328" y="389" on="1"/>
        <pt x="426" y="389" on="0"/>
        <pt x="469" y="391" on="1"/>
        <pt x="493" y="582" on="0"/>
        <pt x="497" y="663" on="1"/>
        <pt x="513" y="666" on="0"/>
      </contour>
    </TTGlyph>
    <TTGlyph name="I" xMin="60" yMin="-3" xMax="219" yMax="666">
      <contour>
        <pt x="175" y="666" on="1"/>
        <pt x="219" y="666" on="0"/>
        <pt x="219" y="633" on="1"/>
        <pt x="219" y="628" on="0"/>
        <pt x="209" y="573" on="0"/>
        <pt x="191" y="462" on="0"/>
        <pt x="184" y="404" on="1"/>
        <pt x="158" y="203" on="1"/>
        <pt x="146" y="115" on="0"/>
        <pt x="146" y="66" on="1"/>
        <pt x="146" y="32" on="0"/>
        <pt x="150" y="5" on="1"/>
        <pt x="132" y="-3" on="0"/>
        <pt x="102" y="-3" on="1"/>
        <pt x="60" y="-3" on="0"/>
        <pt x="60" y="39" on="1"/>
        <pt x="60" y="46" on="0"/>
        <pt x="70" y="119" on="0"/>
        <pt x="97" y="318" on="0"/>
        <pt x="111" y="431" on="1"/>
        <pt x="130" y="581" on="0"/>
        <pt x="134" y="663" on="1"/>
        <pt x="150" y="666" on="0"/>
      </contour>
    </TTGlyph>
    <TTGlyph name="Iacute" xMin="60" yMin="-3" xMax="312" yMax="879">
      <contour>
        <pt x="175" y="666" on="1"/>
        <pt x="219" y="666" on="0"/>
        <pt x="219" y="633" on="1"/>
        <pt x="219" y="628" on="0"/>
        <pt x="209" y="573" on="0"/>
        <pt x="191" y="462" on="0"/>
        <pt x="184" y="404" on="1"/>
        <pt x="158" y="203" on="1"/>
        <pt x="146" y="115" on="0"/>
        <pt x="146" y="66" on="1"/>
        <pt x="146" y="32" on="0"/>
        <pt x="150" y="5" on="1"/>
        <pt x="132" y="-3" on="0"/>
        <pt x="102" y="-3" on="1"/>
        <pt x="60" y="-3" on="0"/>
        <pt x="60" y="39" on="1"/>
        <pt x="60" y="46" on="0"/>
        <pt x="70" y="119" on="0"/>
        <pt x="97" y="318" on="0"/>
        <pt x="111" y="431" on="1"/>
        <pt x="130" y="581" on="0"/>
        <pt x="134" y="663" on="1"/>
        <pt x="150" y="666" on="0"/>
      </contour>
      <contour>
        <pt x="283" y="795" on="1"/>
        <pt x="261" y="783" on="0"/>
        <pt x="139" y="727" on="0"/>
        <pt x="124" y="716" on="1"/>
        <pt x="111" y="729" on="0"/>
        <pt x="111" y="745" on="1"/>
        <pt x="111" y="765" on="0"/>
        <pt x="132" y="775" on="1"/>
        <pt x="237" y="835" on="0"/>
        <pt x="282" y="879" on="1"/>
        <pt x="312" y="857" on="0"/>
        <pt x="312" y="834" on="1"/>
        <pt x="312" y="812" on="0"/>
      </contour>
    </TTGlyph>
    <TTGlyph name="Icircumflex" xMin="50" yMin="-3" xMax="308" yMax="870">
      <contour>
        <pt x="202" y="870" on="1"/>
        <pt x="308" y="790" on="0"/>
        <pt x="308" y="743" on="1"/>
        <pt x="308" y="721" on="0"/>
        <pt x="281" y="710" on="1"/>
        <pt x="267" y="734" on="0"/>
        <pt x="221" y="778" on="0"/>
        <pt x="206" y="788" on="1"/>
        <pt x="190" y="799" on="1"/>
        <pt x="184" y="794" on="0"/>
        <pt x="157" y="773" on="0"/>
        <pt x="142" y="761" on="0"/>
        <pt x="119" y="743" on="0"/>
        <pt x="104" y="733" on="0"/>
        <pt x="87" y="723" on="0"/>
        <pt x="76" y="718" on="0"/>
        <pt x="72" y="718" on="1"/>
        <pt x="60" y="718" on="0"/>
        <pt x="50" y="736" on="1"/>
        <pt x="118" y="811" on="0"/>
      </contour>
      <contour>
        <pt x="175" y="666" on="1"/>
        <pt x="219" y="666" on="0"/>
        <pt x="219" y="633" on="1"/>
        <pt x="219" y="628" on="0"/>
        <pt x="209" y="573" on="0"/>
        <pt x="191" y="462" on="0"/>
        <pt x="184" y="404" on="1"/>
        <pt x="158" y="203" on="1"/>
        <pt x="146" y="115" on="0"/>
        <pt x="146" y="66" on="1"/>
        <pt x="146" y="32" on="0"/>
        <pt x="150" y="5" on="1"/>
        <pt x="132" y="-3" on="0"/>
        <pt x="102" y="-3" on="1"/>
        <pt x="60" y="-3" on="0"/>
        <pt x="60" y="39" on="1"/>
        <pt x="60" y="46" on="0"/>
        <pt x="70" y="119" on="0"/>
        <pt x="97" y="318" on="0"/>
        <pt x="111" y="431" on="1"/>
        <pt x="130" y="581" on="0"/>
        <pt x="134" y="663" on="1"/>
        <pt x="150" y="666" on="0"/>
      </contour>
    </TTGlyph>
    <TTGlyph name="Idieresis" xMin="54" yMin="-3" xMax="320" yMax="819">
      <contour>
        <pt x="175" y="666" on="1"/>
        <pt x="219" y="666" on="0"/>
        <pt x="219" y="633" on="1"/>
        <pt x="219" y="628" on="0"/>
        <pt x="209" y="573" on="0"/>
        <pt x="191" y="462" on="0"/>
        <pt x="184" y="404" on="1"/>
        <pt x="158" y="203" on="1"/>
        <pt x="146" y="115" on="0"/>
        <pt x="146" y="66" on="1"/>
        <pt x="146" y="32" on="0"/>
        <pt x="150" y="5" on="1"/>
        <pt x="132" y="-3" on="0"/>
        <pt x="102" y="-3" on="1"/>
        <pt x="60" y="-3" on="0"/>
        <pt x="60" y="39" on="1"/>
        <pt x="60" y="46" on="0"/>
        <pt x="70" y="119" on="0"/>
        <pt x="97" y="318" on="0"/>
        <pt x="111" y="431" on="1"/>
        <pt x="130" y="581" on="0"/>
        <pt x="134" y="663" on="1"/>
        <pt x="150" y="666" on="0"/>
      </contour>
      <contour>
        <pt x="97" y="712" on="1"/>
        <pt x="78" y="712" on="0"/>
        <pt x="54" y="738" on="0"/>
        <pt x="54" y="759" on="1"/>
        <pt x="54" y="784" on="0"/>
        <pt x="88" y="819" on="0"/>
        <pt x="110" y="819" on="1"/>
        <pt x="128" y="819" on="0"/>
        <pt x="153" y="791" on="0"/>
        <pt x="153" y="770" on="1"/>
        <pt x="153" y="746" on="0"/>
        <pt x="117" y="712" on="0"/>
      </contour>
      <contour>
        <pt x="264" y="712" on="1"/>
        <pt x="245" y="712" on="0"/>
        <pt x="221" y="738" on="0"/>
        <pt x="221" y="759" on="1"/>
        <pt x="221" y="784" on="0"/>
        <pt x="255" y="819" on="0"/>
        <pt x="277" y="819" on="1"/>
        <pt x="295" y="819" on="0"/>
        <pt x="320" y="791" on="0"/>
        <pt x="320" y="770" on="1"/>
        <pt x="320" y="746" on="0"/>
        <pt x="284" y="712" on="0"/>
      </contour>
    </TTGlyph>
    <TTGlyph name="Igrave" xMin="46" yMin="-3" xMax="236" yMax="892">
      <contour>
        <pt x="175" y="666" on="1"/>
        <pt x="219" y="666" on="0"/>
        <pt x="219" y="633" on="1"/>
        <pt x="219" y="628" on="0"/>
        <pt x="209" y="573" on="0"/>
        <pt x="191" y="462" on="0"/>
        <pt x="184" y="404" on="1"/>
        <pt x="158" y="203" on="1"/>
        <pt x="146" y="115" on="0"/>
        <pt x="146" y="66" on="1"/>
        <pt x="146" y="32" on="0"/>
        <pt x="150" y="5" on="1"/>
        <pt x="132" y="-3" on="0"/>
        <pt x="102" y="-3" on="1"/>
        <pt x="60" y="-3" on="0"/>
        <pt x="60" y="39" on="1"/>
        <pt x="60" y="46" on="0"/>
        <pt x="70" y="119" on="0"/>
        <pt x="97" y="318" on="0"/>
        <pt x="111" y="431" on="1"/>
        <pt x="130" y="581" on="0"/>
        <pt x="134" y="663" on="1"/>
        <pt x="150" y="666" on="0"/>
      </contour>
      <contour>
        <pt x="71" y="810" on="1"/>
        <pt x="46" y="826" on="0"/>
        <pt x="46" y="846" on="1"/>
        <pt x="46" y="873" on="0"/>
        <pt x="81" y="892" on="1"/>
        <pt x="93" y="877" on="0"/>
        <pt x="135" y="839" on="0"/>
        <pt x="171" y="811" on="0"/>
        <pt x="213" y="779" on="0"/>
        <pt x="217" y="776" on="1"/>
        <pt x="236" y="762" on="0"/>
        <pt x="236" y="748" on="1"/>
        <pt x="236" y="732" on="0"/>
        <pt x="220" y="716" on="1"/>
        <pt x="207" y="727" on="0"/>
        <pt x="95" y="794" on="0"/>
      </contour>
    </TTGlyph>
    <TTGlyph name="J" xMin="0" yMin="-119" xMax="293" yMax="666">
      <contour>
        <pt x="36" y="-119" on="1"/>
        <pt x="0" y="-119" on="0"/>
        <pt x="0" y="-72" on="1"/>
        <pt x="0" y="-62" on="0"/>
        <pt x="1" y="-56" on="1"/>
        <pt x="78" y="-49" on="0"/>
        <pt x="128" y="31" on="0"/>
        <pt x="142" y="136" on="1"/>
        <pt x="183" y="431" on="1"/>
        <pt x="202" y="568" on="0"/>
        <pt x="208" y="663" on="1"/>
        <pt x="226" y="666" on="0"/>
        <pt x="250" y="666" on="1"/>
        <pt x="293" y="666" on="0"/>
        <pt x="293" y="635" on="1"/>
        <pt x="293" y="625" on="0"/>
        <pt x="281" y="564" on="0"/>
        <pt x="262" y="465" on="0"/>
        <pt x="256" y="421" on="1"/>
        <pt x="213" y="111" on="1"/>
        <pt x="205" y="56" on="0"/>
        <pt x="169" y="-30" on="0"/>
        <pt x="128" y="-78" on="0"/>
        <pt x="81" y="-109" on="0"/>
        <pt x="48" y="-119" on="0"/>
      </contour>
    </TTGlyph>
    <TTGlyph name="J_alt" xMin="-54" yMin="-141" xMax="360" yMax="666">
      <contour>
        <pt x="316" y="666" on="1"/>
        <pt x="360" y="666" on="0"/>
        <pt x="360" y="635" on="1"/>
        <pt x="360" y="628" on="0"/>
        <pt x="349" y="572" on="0"/>
        <pt x="330" y="470" on="0"/>
        <pt x="323" y="421" on="1"/>
        <pt x="315" y="363" on="0"/>
        <pt x="292" y="198" on="0"/>
        <pt x="275" y="77" on="0"/>
        <pt x="275" y="75" on="1"/>
        <pt x="261" y="-24" on="0"/>
        <pt x="145" y="-141" on="0"/>
        <pt x="60" y="-141" on="1"/>
        <pt x="13" y="-141" on="0"/>
        <pt x="-54" y="-108" on="0"/>
        <pt x="-54" y="-84" on="1"/>
        <pt x="-54" y="-59" on="0"/>
        <pt x="-20" y="-32" on="1"/>
        <pt x="15" y="-81" on="0"/>
        <pt x="80" y="-81" on="1"/>
        <pt x="122" y="-81" on="0"/>
        <pt x="187" y="-16" on="0"/>
        <pt x="197" y="53" on="1"/>
        <pt x="250" y="431" on="1"/>
        <pt x="266" y="545" on="0"/>
        <pt x="275" y="663" on="1"/>
        <pt x="292" y="666" on="0"/>
      </contour>
    </TTGlyph>
    <TTGlyph name="K" xMin="60" yMin="-10" xMax="497" yMax="668">
      <contour>
        <pt x="175" y="666" on="1"/>
        <pt x="219" y="666" on="0"/>
        <pt x="219" y="633" on="1"/>
        <pt x="219" y="628" on="0"/>
        <pt x="209" y="573" on="0"/>
        <pt x="191" y="462" on="0"/>
        <pt x="184" y="404" on="1"/>
        <pt x="180" y="375" on="1"/>
        <pt x="312" y="478" on="0"/>
        <pt x="420" y="609" on="0"/>
        <pt x="439" y="668" on="1"/>
        <pt x="497" y="660" on="0"/>
        <pt x="497" y="628" on="1"/>
        <pt x="497" y="590" on="0"/>
        <pt x="350" y="433" on="0"/>
        <pt x="252" y="350" on="1"/>
        <pt x="276" y="294" on="0"/>
        <pt x="372" y="116" on="0"/>
        <pt x="399" y="83" on="1"/>
        <pt x="423" y="55" on="0"/>
        <pt x="451" y="55" on="1"/>
        <pt x="470" y="55" on="0"/>
        <pt x="481" y="58" on="1"/>
        <pt x="485" y="43" on="0"/>
        <pt x="485" y="32" on="1"/>
        <pt x="485" y="-10" on="0"/>
        <pt x="423" y="-10" on="1"/>
        <pt x="376" y="-10" on="0"/>
        <pt x="336" y="47" on="1"/>
        <pt x="304" y="93" on="0"/>
        <pt x="216" y="252" on="0"/>
        <pt x="194" y="304" on="1"/>
        <pt x="189" y="299" on="0"/>
        <pt x="169" y="286" on="0"/>
        <pt x="168" y="285" on="1"/>
        <pt x="158" y="203" on="1"/>
        <pt x="146" y="115" on="0"/>
        <pt x="146" y="66" on="1"/>
        <pt x="146" y="32" on="0"/>
        <pt x="150" y="5" on="1"/>
        <pt x="132" y="-3" on="0"/>
        <pt x="102" y="-3" on="1"/>
        <pt x="60" y="-3" on="0"/>
        <pt x="60" y="39" on="1"/>
        <pt x="60" y="46" on="0"/>
        <pt x="70" y="119" on="0"/>
        <pt x="97" y="318" on="0"/>
        <pt x="111" y="431" on="1"/>
        <pt x="130" y="581" on="0"/>
        <pt x="134" y="663" on="1"/>
        <pt x="150" y="666" on="0"/>
      </contour>
    </TTGlyph>
    <TTGlyph name="L" xMin="60" yMin="-2" xMax="386" yMax="666">
      <contour>
        <pt x="113" y="450" on="1"/>
        <pt x="125" y="540" on="0"/>
        <pt x="133" y="663" on="1"/>
        <pt x="148" y="666" on="0"/>
        <pt x="173" y="666" on="1"/>
        <pt x="218" y="666" on="0"/>
        <pt x="218" y="634" on="1"/>
        <pt x="218" y="628" on="0"/>
        <pt x="207" y="561" on="0"/>
        <pt x="189" y="451" on="0"/>
        <pt x="183" y="404" on="1"/>
        <pt x="146" y="125" on="0"/>
        <pt x="145" y="81" on="1"/>
        <pt x="145" y="72" on="0"/>
        <pt x="145" y="62" on="1"/>
        <pt x="173" y="60" on="0"/>
        <pt x="195" y="60" on="1"/>
        <pt x="249" y="60" on="0"/>
        <pt x="360" y="74" on="0"/>
        <pt x="378" y="83" on="1"/>
        <pt x="386" y="56" on="0"/>
        <pt x="386" y="41" on="1"/>
        <pt x="386" y="12" on="0"/>
        <pt x="323" y="-2" on="0"/>
        <pt x="234" y="-2" on="1"/>
        <pt x="122" y="-2" on="0"/>
        <pt x="96" y="0" on="1"/>
        <pt x="76" y="1" on="0"/>
        <pt x="60" y="18" on="0"/>
        <pt x="60" y="35" on="1"/>
        <pt x="60" y="54" on="0"/>
      </contour>
    </TTGlyph>
    <TTGlyph name="Lslash" xMin="-34" yMin="-2" xMax="386" yMax="666">
      <contour>
        <pt x="173" y="666" on="1"/>
        <pt x="218" y="666" on="0"/>
        <pt x="218" y="634" on="1"/>
        <pt x="218" y="628" on="0"/>
        <pt x="205" y="553" on="0"/>
        <pt x="187" y="435" on="0"/>
        <pt x="181" y="392" on="1"/>
        <pt x="229" y="426" on="0"/>
        <pt x="295" y="479" on="1"/>
        <pt x="322" y="466" on="0"/>
        <pt x="322" y="444" on="1"/>
        <pt x="322" y="429" on="0"/>
        <pt x="303" y="416" on="1"/>
        <pt x="172" y="325" on="1"/>
        <pt x="145" y="113" on="0"/>
        <pt x="145" y="62" on="1"/>
        <pt x="173" y="60" on="0"/>
        <pt x="195" y="60" on="1"/>
        <pt x="249" y="60" on="0"/>
        <pt x="360" y="74" on="0"/>
        <pt x="378" y="83" on="1"/>
        <pt x="386" y="56" on="0"/>
        <pt x="386" y="41" on="1"/>
        <pt x="386" y="12" on="0"/>
        <pt x="323" y="-2" on="0"/>
        <pt x="234" y="-2" on="1"/>
        <pt x="122" y="-2" on="0"/>
        <pt x="96" y="0" on="1"/>
        <pt x="76" y="1" on="0"/>
        <pt x="60" y="18" on="0"/>
        <pt x="60" y="35" on="1"/>
        <pt x="60" y="65" on="0"/>
        <pt x="88" y="265" on="1"/>
        <pt x="68" y="250" on="0"/>
        <pt x="1" y="198" on="0"/>
        <pt x="-7" y="192" on="1"/>
        <pt x="-34" y="208" on="0"/>
        <pt x="-34" y="228" on="1"/>
        <pt x="-34" y="241" on="0"/>
        <pt x="-15" y="255" on="1"/>
        <pt x="97" y="333" on="1"/>
        <pt x="123" y="517" on="0"/>
        <pt x="133" y="663" on="1"/>
        <pt x="148" y="666" on="0"/>
      </contour>
    </TTGlyph>
    <TTGlyph name="M" xMin="60" yMin="-3" xMax="743" yMax="667">
      <contour>
        <pt x="696" y="436" on="1"/>
        <pt x="663" y="203" on="1"/>
        <pt x="649" y="111" on="0"/>
        <pt x="649" y="59" on="1"/>
        <pt x="649" y="39" on="0"/>
        <pt x="653" y="5" on="1"/>
        <pt x="635" y="-3" on="0"/>
        <pt x="603" y="-3" on="1"/>
        <pt x="562" y="-3" on="0"/>
        <pt x="562" y="35" on="1"/>
        <pt x="562" y="40" on="0"/>
        <pt x="583" y="176" on="0"/>
        <pt x="620" y="428" on="0"/>
        <pt x="635" y="538" on="1"/>
        <pt x="515" y="334" on="0"/>
        <pt x="382" y="2" on="1"/>
        <pt x="372" y="-2" on="0"/>
        <pt x="352" y="-2" on="1"/>
        <pt x="316" y="-2" on="0"/>
        <pt x="310" y="24" on="1"/>
        <pt x="296" y="76" on="0"/>
        <pt x="229" y="436" on="0"/>
        <pt x="197" y="541" on="1"/>
        <pt x="189" y="487" on="0"/>
        <pt x="172" y="365" on="0"/>
        <pt x="162" y="299" on="0"/>
        <pt x="151" y="221" on="0"/>
        <pt x="146" y="184" on="0"/>
        <pt x="140" y="137" on="0"/>
        <pt x="138" y="116" on="0"/>
        <pt x="135" y="88" on="0"/>
        <pt x="135" y="70" on="0"/>
        <pt x="135" y="59" on="1"/>
        <pt x="135" y="39" on="0"/>
        <pt x="139" y="5" on="1"/>
        <pt x="121" y="-3" on="0"/>
        <pt x="97" y="-3" on="1"/>
        <pt x="60" y="-3" on="0"/>
        <pt x="60" y="32" on="1"/>
        <pt x="60" y="40" on="0"/>
        <pt x="88" y="231" on="1"/>
        <pt x="124" y="483" on="1"/>
        <pt x="134" y="555" on="0"/>
        <pt x="134" y="610" on="1"/>
        <pt x="134" y="636" on="0"/>
        <pt x="131" y="659" on="1"/>
        <pt x="161" y="667" on="0"/>
        <pt x="190" y="667" on="1"/>
        <pt x="231" y="667" on="0"/>
        <pt x="250" y="619" on="1"/>
        <pt x="271" y="564" on="0"/>
        <pt x="307" y="432" on="0"/>
        <pt x="326" y="339" on="0"/>
        <pt x="356" y="182" on="0"/>
        <pt x="364" y="142" on="1"/>
        <pt x="483" y="426" on="0"/>
        <pt x="609" y="619" on="1"/>
        <pt x="640" y="667" on="0"/>
        <pt x="690" y="667" on="1"/>
        <pt x="724" y="667" on="0"/>
        <pt x="743" y="659" on="1"/>
        <pt x="719" y="599" on="0"/>
      </contour>
    </TTGlyph>
    <TTGlyph name="N" xMin="60" yMin="-3" xMax="563" yMax="667">
      <contour>
        <pt x="483" y="1" on="1"/>
        <pt x="468" y="-3" on="0"/>
        <pt x="450" y="-3" on="1"/>
        <pt x="418" y="-3" on="0"/>
        <pt x="406" y="24" on="1"/>
        <pt x="380" y="83" on="0"/>
        <pt x="242" y="424" on="0"/>
        <pt x="192" y="534" on="1"/>
        <pt x="185" y="482" on="0"/>
        <pt x="161" y="302" on="0"/>
        <pt x="147" y="199" on="0"/>
        <pt x="136" y="87" on="0"/>
        <pt x="136" y="59" on="1"/>
        <pt x="136" y="39" on="0"/>
        <pt x="140" y="5" on="1"/>
        <pt x="122" y="-3" on="0"/>
        <pt x="102" y="-3" on="1"/>
        <pt x="78" y="-3" on="0"/>
        <pt x="60" y="15" on="0"/>
        <pt x="60" y="35" on="1"/>
        <pt x="60" y="44" on="0"/>
        <pt x="69" y="108" on="0"/>
        <pt x="82" y="202" on="0"/>
        <pt x="86" y="231" on="1"/>
        <pt x="93" y="286" on="0"/>
        <pt x="111" y="424" on="0"/>
        <pt x="120" y="494" on="0"/>
        <pt x="127" y="573" on="0"/>
        <pt x="127" y="604" on="1"/>
        <pt x="127" y="636" on="0"/>
        <pt x="123" y="659" on="1"/>
        <pt x="142" y="667" on="0"/>
        <pt x="198" y="667" on="0"/>
        <pt x="218" y="638" on="1"/>
        <pt x="294" y="523" on="0"/>
        <pt x="432" y="157" on="1"/>
        <pt x="466" y="431" on="1"/>
        <pt x="483" y="562" on="0"/>
        <pt x="489" y="663" on="1"/>
        <pt x="504" y="666" on="0"/>
        <pt x="521" y="666" on="1"/>
        <pt x="563" y="666" on="0"/>
        <pt x="563" y="632" on="1"/>
        <pt x="563" y="625" on="0"/>
        <pt x="551" y="560" on="0"/>
        <pt x="534" y="451" on="0"/>
        <pt x="528" y="404" on="1"/>
        <pt x="522" y="355" on="0"/>
        <pt x="498" y="170" on="0"/>
        <pt x="486" y="53" on="0"/>
      </contour>
    </TTGlyph>
    <TTGlyph name="Ntilde" xMin="60" yMin="-3" xMax="563" yMax="825">
      <contour>
        <pt x="483" y="1" on="1"/>
        <pt x="468" y="-3" on="0"/>
        <pt x="450" y="-3" on="1"/>
        <pt x="418" y="-3" on="0"/>
        <pt x="406" y="24" on="1"/>
        <pt x="380" y="83" on="0"/>
        <pt x="242" y="424" on="0"/>
        <pt x="192" y="534" on="1"/>
        <pt x="185" y="482" on="0"/>
        <pt x="161" y="302" on="0"/>
        <pt x="147" y="199" on="0"/>
        <pt x="136" y="87" on="0"/>
        <pt x="136" y="59" on="1"/>
        <pt x="136" y="39" on="0"/>
        <pt x="140" y="5" on="1"/>
        <pt x="122" y="-3" on="0"/>
        <pt x="102" y="-3" on="1"/>
        <pt x="78" y="-3" on="0"/>
        <pt x="60" y="15" on="0"/>
        <pt x="60" y="35" on="1"/>
        <pt x="60" y="44" on="0"/>
        <pt x="69" y="108" on="0"/>
        <pt x="82" y="202" on="0"/>
        <pt x="86" y="231" on="1"/>
        <pt x="93" y="286" on="0"/>
        <pt x="111" y="424" on="0"/>
        <pt x="120" y="494" on="0"/>
        <pt x="127" y="573" on="0"/>
        <pt x="127" y="604" on="1"/>
        <pt x="127" y="636" on="0"/>
        <pt x="123" y="659" on="1"/>
        <pt x="142" y="667" on="0"/>
        <pt x="198" y="667" on="0"/>
        <pt x="218" y="638" on="1"/>
        <pt x="294" y="523" on="0"/>
        <pt x="432" y="157" on="1"/>
        <pt x="466" y="431" on="1"/>
        <pt x="483" y="562" on="0"/>
        <pt x="489" y="663" on="1"/>
        <pt x="504" y="666" on="0"/>
        <pt x="521" y="666" on="1"/>
        <pt x="563" y="666" on="0"/>
        <pt x="563" y="632" on="1"/>
        <pt x="563" y="625" on="0"/>
        <pt x="551" y="560" on="0"/>
        <pt x="534" y="451" on="0"/>
        <pt x="528" y="404" on="1"/>
        <pt x="522" y="355" on="0"/>
        <pt x="498" y="170" on="0"/>
        <pt x="486" y="53" on="0"/>
      </contour>
      <contour>
        <pt x="430" y="780" on="1"/>
        <pt x="441" y="780" on="0"/>
        <pt x="480" y="806" on="0"/>
        <pt x="495" y="822" on="1"/>
        <pt x="508" y="817" on="0"/>
        <pt x="508" y="805" on="1"/>
        <pt x="508" y="777" on="0"/>
        <pt x="436" y="721" on="0"/>
        <pt x="400" y="721" on="1"/>
        <pt x="379" y="721" on="0"/>
        <pt x="311" y="766" on="0"/>
        <pt x="293" y="766" on="1"/>
        <pt x="274" y="766" on="0"/>
        <pt x="228" y="724" on="1"/>
        <pt x="215" y="730" on="0"/>
        <pt x="215" y="741" on="1"/>
        <pt x="215" y="769" on="0"/>
        <pt x="287" y="825" on="0"/>
        <pt x="324" y="825" on="1"/>
        <pt x="342" y="825" on="0"/>
        <pt x="413" y="780" on="0"/>
      </contour>
    </TTGlyph>
    <TTGlyph name="O" xMin="48" yMin="-10" xMax="609" yMax="674">
      <contour>
        <pt x="284" y="-10" on="1"/>
        <pt x="173" y="-10" on="0"/>
        <pt x="48" y="137" on="0"/>
        <pt x="48" y="263" on="1"/>
        <pt x="48" y="438" on="0"/>
        <pt x="227" y="674" on="0"/>
        <pt x="370" y="674" on="1"/>
        <pt x="482" y="674" on="0"/>
        <pt x="609" y="529" on="0"/>
        <pt x="609" y="402" on="1"/>
        <pt x="609" y="230" on="0"/>
        <pt x="429" y="-10" on="0"/>
      </contour>
      <contour>
        <pt x="362" y="612" on="1"/>
        <pt x="256" y="612" on="0"/>
        <pt x="131" y="424" on="0"/>
        <pt x="131" y="288" on="1"/>
        <pt x="131" y="185" on="0"/>
        <pt x="210" y="50" on="0"/>
        <pt x="293" y="50" on="1"/>
        <pt x="367" y="50" on="0"/>
        <pt x="475" y="147" on="0"/>
        <pt x="525" y="294" on="0"/>
        <pt x="525" y="381" on="1"/>
        <pt x="525" y="480" on="0"/>
        <pt x="446" y="612" on="0"/>
      </contour>
    </TTGlyph>
    <TTGlyph name="OE" xMin="48" yMin="-11" xMax="856" yMax="674">
      <contour>
        <pt x="131" y="288" on="1"/>
        <pt x="131" y="165" on="0"/>
        <pt x="222" y="50" on="0"/>
        <pt x="313" y="50" on="1"/>
        <pt x="367" y="50" on="0"/>
        <pt x="444" y="70" on="1"/>
        <pt x="447" y="94" on="0"/>
        <pt x="503" y="505" on="0"/>
        <pt x="508" y="588" on="1"/>
        <pt x="444" y="612" on="0"/>
        <pt x="382" y="612" on="1"/>
        <pt x="266" y="612" on="0"/>
        <pt x="131" y="438" on="0"/>
      </contour>
      <contour>
        <pt x="48" y="263" on="1"/>
        <pt x="48" y="450" on="0"/>
        <pt x="233" y="674" on="0"/>
        <pt x="380" y="674" on="1"/>
        <pt x="440" y="674" on="0"/>
        <pt x="509" y="651" on="1"/>
        <pt x="583" y="666" on="0"/>
        <pt x="707" y="666" on="1"/>
        <pt x="835" y="666" on="0"/>
        <pt x="851" y="650" on="1"/>
        <pt x="856" y="644" on="0"/>
        <pt x="856" y="631" on="1"/>
        <pt x="856" y="605" on="0"/>
        <pt x="842" y="580" on="1"/>
        <pt x="794" y="601" on="0"/>
        <pt x="678" y="601" on="1"/>
        <pt x="639" y="601" on="0"/>
        <pt x="588" y="598" on="1"/>
        <pt x="586" y="551" on="0"/>
        <pt x="564" y="386" on="1"/>
        <pt x="701" y="386" on="0"/>
        <pt x="734" y="390" on="1"/>
        <pt x="736" y="374" on="0"/>
        <pt x="736" y="368" on="1"/>
        <pt x="736" y="327" on="0"/>
        <pt x="691" y="324" on="1"/>
        <pt x="667" y="323" on="0"/>
        <pt x="555" y="323" on="1"/>
        <pt x="528" y="112" on="0"/>
        <pt x="528" y="61" on="1"/>
        <pt x="556" y="59" on="0"/>
        <pt x="578" y="59" on="1"/>
        <pt x="632" y="59" on="0"/>
        <pt x="743" y="73" on="0"/>
        <pt x="761" y="82" on="1"/>
        <pt x="769" y="55" on="0"/>
        <pt x="769" y="40" on="1"/>
        <pt x="769" y="13" on="0"/>
        <pt x="710" y="-3" on="0"/>
        <pt x="648" y="-3" on="1"/>
        <pt x="578" y="-3" on="1"/>
        <pt x="469" y="-3" on="0"/>
        <pt x="446" y="13" on="1"/>
        <pt x="366" y="-11" on="0"/>
        <pt x="297" y="-11" on="1"/>
        <pt x="185" y="-11" on="0"/>
        <pt x="48" y="120" on="0"/>
      </contour>
    </TTGlyph>
    <TTGlyph name="Oacute" xMin="48" yMin="-10" xMax="609" yMax="879">
      <contour>
        <pt x="284" y="-10" on="1"/>
        <pt x="173" y="-10" on="0"/>
        <pt x="48" y="137" on="0"/>
        <pt x="48" y="263" on="1"/>
        <pt x="48" y="438" on="0"/>
        <pt x="227" y="674" on="0"/>
        <pt x="370" y="674" on="1"/>
        <pt x="482" y="674" on="0"/>
        <pt x="609" y="529" on="0"/>
        <pt x="609" y="402" on="1"/>
        <pt x="609" y="230" on="0"/>
        <pt x="429" y="-10" on="0"/>
      </contour>
      <contour>
        <pt x="362" y="612" on="1"/>
        <pt x="256" y="612" on="0"/>
        <pt x="131" y="424" on="0"/>
        <pt x="131" y="288" on="1"/>
        <pt x="131" y="185" on="0"/>
        <pt x="210" y="50" on="0"/>
        <pt x="293" y="50" on="1"/>
        <pt x="367" y="50" on="0"/>
        <pt x="475" y="147" on="0"/>
        <pt x="525" y="294" on="0"/>
        <pt x="525" y="381" on="1"/>
        <pt x="525" y="480" on="0"/>
        <pt x="446" y="612" on="0"/>
      </contour>
      <contour>
        <pt x="482" y="795" on="1"/>
        <pt x="460" y="783" on="0"/>
        <pt x="338" y="727" on="0"/>
        <pt x="323" y="716" on="1"/>
        <pt x="310" y="729" on="0"/>
        <pt x="310" y="745" on="1"/>
        <pt x="310" y="765" on="0"/>
        <pt x="331" y="775" on="1"/>
        <pt x="436" y="835" on="0"/>
        <pt x="481" y="879" on="1"/>
        <pt x="511" y="857" on="0"/>
        <pt x="511" y="834" on="1"/>
        <pt x="511" y="812" on="0"/>
      </contour>
    </TTGlyph>
    <TTGlyph name="Ocircumflex" xMin="48" yMin="-10" xMax="609" yMax="870">
      <contour>
        <pt x="391" y="870" on="1"/>
        <pt x="497" y="790" on="0"/>
        <pt x="497" y="743" on="1"/>
        <pt x="497" y="721" on="0"/>
        <pt x="470" y="710" on="1"/>
        <pt x="456" y="734" on="0"/>
        <pt x="410" y="778" on="0"/>
        <pt x="394" y="788" on="1"/>
        <pt x="379" y="799" on="1"/>
        <pt x="276" y="718" on="0"/>
        <pt x="261" y="718" on="1"/>
        <pt x="249" y="718" on="0"/>
        <pt x="239" y="736" on="1"/>
        <pt x="307" y="811" on="0"/>
      </contour>
      <contour>
        <pt x="284" y="-10" on="1"/>
        <pt x="173" y="-10" on="0"/>
        <pt x="48" y="137" on="0"/>
        <pt x="48" y="263" on="1"/>
        <pt x="48" y="438" on="0"/>
        <pt x="227" y="674" on="0"/>
        <pt x="370" y="674" on="1"/>
        <pt x="482" y="674" on="0"/>
        <pt x="609" y="529" on="0"/>
        <pt x="609" y="402" on="1"/>
        <pt x="609" y="230" on="0"/>
        <pt x="429" y="-10" on="0"/>
      </contour>
      <contour>
        <pt x="362" y="612" on="1"/>
        <pt x="256" y="612" on="0"/>
        <pt x="131" y="424" on="0"/>
        <pt x="131" y="288" on="1"/>
        <pt x="131" y="185" on="0"/>
        <pt x="210" y="50" on="0"/>
        <pt x="293" y="50" on="1"/>
        <pt x="367" y="50" on="0"/>
        <pt x="475" y="147" on="0"/>
        <pt x="525" y="294" on="0"/>
        <pt x="525" y="381" on="1"/>
        <pt x="525" y="480" on="0"/>
        <pt x="446" y="612" on="0"/>
      </contour>
    </TTGlyph>
    <TTGlyph name="Odieresis" xMin="48" yMin="-10" xMax="609" yMax="819">
      <contour>
        <pt x="284" y="-10" on="1"/>
        <pt x="173" y="-10" on="0"/>
        <pt x="48" y="137" on="0"/>
        <pt x="48" y="263" on="1"/>
        <pt x="48" y="438" on="0"/>
        <pt x="227" y="674" on="0"/>
        <pt x="370" y="674" on="1"/>
        <pt x="482" y="674" on="0"/>
        <pt x="609" y="529" on="0"/>
        <pt x="609" y="402" on="1"/>
        <pt x="609" y="230" on="0"/>
        <pt x="429" y="-10" on="0"/>
      </contour>
      <contour>
        <pt x="362" y="612" on="1"/>
        <pt x="256" y="612" on="0"/>
        <pt x="131" y="424" on="0"/>
        <pt x="131" y="288" on="1"/>
        <pt x="131" y="185" on="0"/>
        <pt x="210" y="50" on="0"/>
        <pt x="293" y="50" on="1"/>
        <pt x="367" y="50" on="0"/>
        <pt x="475" y="147" on="0"/>
        <pt x="525" y="294" on="0"/>
        <pt x="525" y="381" on="1"/>
        <pt x="525" y="480" on="0"/>
        <pt x="446" y="612" on="0"/>
      </contour>
      <contour>
        <pt x="288" y="712" on="1"/>
        <pt x="269" y="712" on="0"/>
        <pt x="245" y="738" on="0"/>
        <pt x="245" y="759" on="1"/>
        <pt x="245" y="784" on="0"/>
        <pt x="279" y="819" on="0"/>
        <pt x="301" y="819" on="1"/>
        <pt x="319" y="819" on="0"/>
        <pt x="344" y="791" on="0"/>
        <pt x="344" y="770" on="1"/>
        <pt x="344" y="746" on="0"/>
        <pt x="308" y="712" on="0"/>
      </contour>
      <contour>
        <pt x="455" y="712" on="1"/>
        <pt x="436" y="712" on="0"/>
        <pt x="412" y="738" on="0"/>
        <pt x="412" y="759" on="1"/>
        <pt x="412" y="784" on="0"/>
        <pt x="446" y="819" on="0"/>
        <pt x="468" y="819" on="1"/>
        <pt x="486" y="819" on="0"/>
        <pt x="511" y="791" on="0"/>
        <pt x="511" y="770" on="1"/>
        <pt x="511" y="746" on="0"/>
        <pt x="475" y="712" on="0"/>
      </contour>
    </TTGlyph>
    <TTGlyph name="Ograve" xMin="48" yMin="-10" xMax="609" yMax="892">
      <contour>
        <pt x="284" y="-10" on="1"/>
        <pt x="173" y="-10" on="0"/>
        <pt x="48" y="137" on="0"/>
        <pt x="48" y="263" on="1"/>
        <pt x="48" y="438" on="0"/>
        <pt x="227" y="674" on="0"/>
        <pt x="370" y="674" on="1"/>
        <pt x="482" y="674" on="0"/>
        <pt x="609" y="529" on="0"/>
        <pt x="609" y="402" on="1"/>
        <pt x="609" y="230" on="0"/>
        <pt x="429" y="-10" on="0"/>
      </contour>
      <contour>
        <pt x="362" y="612" on="1"/>
        <pt x="256" y="612" on="0"/>
        <pt x="131" y="424" on="0"/>
        <pt x="131" y="288" on="1"/>
        <pt x="131" y="185" on="0"/>
        <pt x="210" y="50" on="0"/>
        <pt x="293" y="50" on="1"/>
        <pt x="367" y="50" on="0"/>
        <pt x="475" y="147" on="0"/>
        <pt x="525" y="294" on="0"/>
        <pt x="525" y="381" on="1"/>
        <pt x="525" y="480" on="0"/>
        <pt x="446" y="612" on="0"/>
      </contour>
      <contour>
        <pt x="250" y="810" on="1"/>
        <pt x="225" y="826" on="0"/>
        <pt x="225" y="846" on="1"/>
        <pt x="225" y="873" on="0"/>
        <pt x="260" y="892" on="1"/>
        <pt x="272" y="877" on="0"/>
        <pt x="314" y="839" on="0"/>
        <pt x="350" y="811" on="0"/>
        <pt x="392" y="779" on="0"/>
        <pt x="396" y="776" on="1"/>
        <pt x="415" y="762" on="0"/>
        <pt x="415" y="748" on="1"/>
        <pt x="415" y="732" on="0"/>
        <pt x="399" y="716" on="1"/>
        <pt x="386" y="727" on="0"/>
        <pt x="274" y="794" on="0"/>
      </contour>
    </TTGlyph>
    <TTGlyph name="Omega" xMin="40" yMin="0" xMax="787" yMax="677">
      <contour>
        <pt x="474" y="621" on="1"/>
        <pt x="359" y="621" on="0"/>
        <pt x="217" y="434" on="0"/>
        <pt x="217" y="309" on="1"/>
        <pt x="217" y="170" on="0"/>
        <pt x="336" y="92" on="1"/>
        <pt x="336" y="70" on="0"/>
        <pt x="334" y="59" on="1"/>
        <pt x="326" y="0" on="0"/>
        <pt x="268" y="0" on="1"/>
        <pt x="47" y="0" on="1"/>
        <pt x="40" y="72" on="0"/>
        <pt x="40" y="127" on="1"/>
        <pt x="40" y="140" on="0"/>
        <pt x="41" y="152" on="0"/>
        <pt x="51" y="163" on="0"/>
        <pt x="61" y="163" on="1"/>
        <pt x="65" y="163" on="0"/>
        <pt x="68" y="162" on="1"/>
        <pt x="90" y="92" on="0"/>
        <pt x="109" y="60" on="1"/>
        <pt x="290" y="60" on="1"/>
        <pt x="135" y="160" on="0"/>
        <pt x="135" y="320" on="1"/>
        <pt x="135" y="468" on="0"/>
        <pt x="341" y="677" on="0"/>
        <pt x="481" y="677" on="1"/>
        <pt x="602" y="677" on="0"/>
        <pt x="755" y="538" on="0"/>
        <pt x="755" y="302" on="0"/>
        <pt x="618" y="116" on="0"/>
        <pt x="512" y="60" on="1"/>
        <pt x="693" y="60" on="1"/>
        <pt x="719" y="89" on="0"/>
        <pt x="764" y="162" on="1"/>
        <pt x="767" y="163" on="0"/>
        <pt x="771" y="163" on="1"/>
        <pt x="787" y="163" on="0"/>
        <pt x="787" y="149" on="1"/>
        <pt x="787" y="143" on="0"/>
        <pt x="769" y="88" on="0"/>
        <pt x="744" y="16" on="0"/>
        <pt x="739" y="0" on="1"/>
        <pt x="518" y="0" on="1"/>
        <pt x="467" y="0" on="0"/>
        <pt x="467" y="46" on="1"/>
        <pt x="467" y="67" on="0"/>
        <pt x="476" y="92" on="1"/>
        <pt x="670" y="201" on="0"/>
        <pt x="670" y="412" on="1"/>
        <pt x="670" y="510" on="0"/>
        <pt x="570" y="621" on="0"/>
      </contour>
    </TTGlyph>
    <TTGlyph name="Oslash" xMin="48" yMin="-84" xMax="613" yMax="744">
      <contour>
        <pt x="293" y="50" on="1"/>
        <pt x="367" y="50" on="0"/>
        <pt x="475" y="147" on="0"/>
        <pt x="525" y="294" on="0"/>
        <pt x="525" y="381" on="1"/>
        <pt x="525" y="467" on="0"/>
        <pt x="496" y="526" on="1"/>
        <pt x="205" y="78" on="1"/>
        <pt x="241" y="50" on="0"/>
      </contour>
      <contour>
        <pt x="362" y="612" on="1"/>
        <pt x="256" y="612" on="0"/>
        <pt x="131" y="424" on="0"/>
        <pt x="131" y="288" on="1"/>
        <pt x="131" y="179" on="0"/>
        <pt x="171" y="116" on="1"/>
        <pt x="467" y="570" on="1"/>
        <pt x="427" y="612" on="0"/>
      </contour>
      <contour>
        <pt x="284" y="-10" on="1"/>
        <pt x="217" y="-10" on="0"/>
        <pt x="166" y="18" on="1"/>
        <pt x="147" y="-12" on="0"/>
        <pt x="105" y="-84" on="1"/>
        <pt x="88" y="-83" on="0"/>
        <pt x="66" y="-67" on="0"/>
        <pt x="66" y="-55" on="1"/>
        <pt x="66" y="-46" on="0"/>
        <pt x="74" y="-33" on="1"/>
        <pt x="126" y="47" on="1"/>
        <pt x="48" y="119" on="0"/>
        <pt x="48" y="263" on="1"/>
        <pt x="48" y="438" on="0"/>
        <pt x="227" y="674" on="0"/>
        <pt x="370" y="674" on="1"/>
        <pt x="451" y="674" on="0"/>
        <pt x="508" y="634" on="1"/>
        <pt x="542" y="688" on="0"/>
        <pt x="574" y="744" on="1"/>
        <pt x="613" y="742" on="0"/>
        <pt x="613" y="715" on="1"/>
        <pt x="613" y="704" on="0"/>
        <pt x="605" y="693" on="1"/>
        <pt x="545" y="602" on="1"/>
        <pt x="609" y="530" on="0"/>
        <pt x="609" y="402" on="1"/>
        <pt x="609" y="230" on="0"/>
        <pt x="429" y="-10" on="0"/>
      </contour>
    </TTGlyph>
    <TTGlyph name="Otilde" xMin="48" yMin="-10" xMax="609" yMax="825">
      <contour>
        <pt x="284" y="-10" on="1"/>
        <pt x="173" y="-10" on="0"/>
        <pt x="48" y="137" on="0"/>
        <pt x="48" y="263" on="1"/>
        <pt x="48" y="438" on="0"/>
        <pt x="227" y="674" on="0"/>
        <pt x="370" y="674" on="1"/>
        <pt x="482" y="674" on="0"/>
        <pt x="609" y="529" on="0"/>
        <pt x="609" y="402" on="1"/>
        <pt x="609" y="230" on="0"/>
        <pt x="429" y="-10" on="0"/>
      </contour>
      <contour>
        <pt x="362" y="612" on="1"/>
        <pt x="256" y="612" on="0"/>
        <pt x="131" y="424" on="0"/>
        <pt x="131" y="288" on="1"/>
        <pt x="131" y="185" on="0"/>
        <pt x="210" y="50" on="0"/>
        <pt x="293" y="50" on="1"/>
        <pt x="367" y="50" on="0"/>
        <pt x="475" y="147" on="0"/>
        <pt x="525" y="294" on="0"/>
        <pt x="525" y="381" on="1"/>
        <pt x="525" y="480" on="0"/>
        <pt x="446" y="612" on="0"/>
      </contour>
      <contour>
        <pt x="455" y="780" on="1"/>
        <pt x="466" y="780" on="0"/>
        <pt x="505" y="806" on="0"/>
        <pt x="520" y="822" on="1"/>
        <pt x="533" y="817" on="0"/>
        <pt x="533" y="805" on="1"/>
        <pt x="533" y="777" on="0"/>
        <pt x="461" y="721" on="0"/>
        <pt x="425" y="721" on="1"/>
        <pt x="404" y="721" on="0"/>
        <pt x="336" y="766" on="0"/>
        <pt x="318" y="766" on="1"/>
        <pt x="299" y="766" on="0"/>
        <pt x="253" y="724" on="1"/>
        <pt x="240" y="730" on="0"/>
        <pt x="240" y="741" on="1"/>
        <pt x="240" y="769" on="0"/>
        <pt x="312" y="825" on="0"/>
        <pt x="349" y="825" on="1"/>
        <pt x="367" y="825" on="0"/>
        <pt x="438" y="780" on="0"/>
      </contour>
    </TTGlyph>
    <TTGlyph name="P" xMin="60" yMin="-3" xMax="487" yMax="673">
      <contour>
        <pt x="255" y="304" on="1"/>
        <pt x="328" y="304" on="0"/>
        <pt x="405" y="411" on="0"/>
        <pt x="405" y="494" on="1"/>
        <pt x="405" y="561" on="0"/>
        <pt x="335" y="612" on="0"/>
        <pt x="270" y="612" on="1"/>
        <pt x="235" y="612" on="0"/>
        <pt x="206" y="608" on="1"/>
        <pt x="200" y="521" on="0"/>
        <pt x="184" y="404" on="1"/>
        <pt x="174" y="329" on="1"/>
        <pt x="210" y="304" on="0"/>
      </contour>
      <contour>
        <pt x="86" y="231" on="1"/>
        <pt x="111" y="431" on="1"/>
        <pt x="129" y="586" on="0"/>
        <pt x="129" y="661" on="1"/>
        <pt x="196" y="673" on="0"/>
        <pt x="268" y="673" on="1"/>
        <pt x="487" y="673" on="0"/>
        <pt x="487" y="496" on="1"/>
        <pt x="487" y="379" on="0"/>
        <pt x="353" y="243" on="0"/>
        <pt x="267" y="243" on="1"/>
        <pt x="207" y="243" on="0"/>
        <pt x="167" y="275" on="1"/>
        <pt x="158" y="203" on="1"/>
        <pt x="146" y="113" on="0"/>
        <pt x="146" y="63" on="1"/>
        <pt x="146" y="30" on="0"/>
        <pt x="150" y="5" on="1"/>
        <pt x="132" y="-3" on="0"/>
        <pt x="102" y="-3" on="1"/>
        <pt x="60" y="-3" on="0"/>
        <pt x="60" y="39" on="1"/>
        <pt x="60" y="48" on="0"/>
        <pt x="69" y="111" on="0"/>
        <pt x="83" y="204" on="0"/>
      </contour>
    </TTGlyph>
    <TTGlyph name="Q" xMin="48" yMin="-198" xMax="707" yMax="674">
      <contour>
        <pt x="362" y="612" on="1"/>
        <pt x="256" y="612" on="0"/>
        <pt x="131" y="424" on="0"/>
        <pt x="131" y="288" on="1"/>
        <pt x="131" y="185" on="0"/>
        <pt x="210" y="50" on="0"/>
        <pt x="293" y="50" on="1"/>
        <pt x="367" y="50" on="0"/>
        <pt x="475" y="147" on="0"/>
        <pt x="525" y="294" on="0"/>
        <pt x="525" y="381" on="1"/>
        <pt x="525" y="480" on="0"/>
        <pt x="446" y="612" on="0"/>
      </contour>
      <contour>
        <pt x="315" y="-8" on="1"/>
        <pt x="337" y="-62" on="0"/>
        <pt x="450" y="-131" on="0"/>
        <pt x="517" y="-131" on="1"/>
        <pt x="623" y="-131" on="0"/>
        <pt x="664" y="-49" on="1"/>
        <pt x="707" y="-71" on="0"/>
        <pt x="707" y="-103" on="1"/>
        <pt x="707" y="-148" on="0"/>
        <pt x="614" y="-198" on="0"/>
        <pt x="544" y="-198" on="1"/>
        <pt x="441" y="-198" on="0"/>
        <pt x="281" y="-106" on="0"/>
        <pt x="253" y="-8" on="1"/>
        <pt x="156" y="2" on="0"/>
        <pt x="48" y="146" on="0"/>
        <pt x="48" y="263" on="1"/>
        <pt x="48" y="438" on="0"/>
        <pt x="227" y="674" on="0"/>
        <pt x="370" y="674" on="1"/>
        <pt x="482" y="674" on="0"/>
        <pt x="609" y="529" on="0"/>
        <pt x="609" y="402" on="1"/>
        <pt x="609" y="240" on="0"/>
        <pt x="448" y="5" on="0"/>
      </contour>
    </TTGlyph>
    <TTGlyph name="Q_alt" xMin="48" yMin="-220" xMax="609" yMax="674">
      <contour>
        <pt x="362" y="612" on="1"/>
        <pt x="256" y="612" on="0"/>
        <pt x="131" y="424" on="0"/>
        <pt x="131" y="288" on="1"/>
        <pt x="131" y="185" on="0"/>
        <pt x="210" y="50" on="0"/>
        <pt x="293" y="50" on="1"/>
        <pt x="367" y="50" on="0"/>
        <pt x="475" y="147" on="0"/>
        <pt x="525" y="294" on="0"/>
        <pt x="525" y="381" on="1"/>
        <pt x="525" y="480" on="0"/>
        <pt x="446" y="612" on="0"/>
      </contour>
      <contour>
        <pt x="315" y="-8" on="1"/>
        <pt x="331" y="-71" on="0"/>
        <pt x="420" y="-149" on="0"/>
        <pt x="470" y="-149" on="1"/>
        <pt x="525" y="-149" on="0"/>
        <pt x="562" y="-103" on="1"/>
        <pt x="589" y="-128" on="0"/>
        <pt x="589" y="-154" on="1"/>
        <pt x="589" y="-188" on="0"/>
        <pt x="531" y="-220" on="0"/>
        <pt x="492" y="-220" on="1"/>
        <pt x="411" y="-220" on="0"/>
        <pt x="277" y="-115" on="0"/>
        <pt x="253" y="-8" on="1"/>
        <pt x="156" y="2" on="0"/>
        <pt x="48" y="146" on="0"/>
        <pt x="48" y="263" on="1"/>
        <pt x="48" y="438" on="0"/>
        <pt x="227" y="674" on="0"/>
        <pt x="370" y="674" on="1"/>
        <pt x="482" y="674" on="0"/>
        <pt x="609" y="529" on="0"/>
        <pt x="609" y="402" on="1"/>
        <pt x="609" y="240" on="0"/>
        <pt x="448" y="5" on="0"/>
      </contour>
    </TTGlyph>
    <TTGlyph name="R" xMin="60" yMin="-10" xMax="496" yMax="673">
      <contour>
        <pt x="401" y="84" on="1"/>
        <pt x="422" y="55" on="0"/>
        <pt x="458" y="55" on="1"/>
        <pt x="477" y="55" on="0"/>
        <pt x="492" y="58" on="1"/>
        <pt x="496" y="47" on="0"/>
        <pt x="496" y="36" on="1"/>
        <pt x="496" y="-10" on="0"/>
        <pt x="430" y="-10" on="1"/>
        <pt x="368" y="-10" on="0"/>
        <pt x="339" y="38" on="1"/>
        <pt x="315" y="78" on="0"/>
        <pt x="251" y="226" on="0"/>
        <pt x="234" y="278" on="1"/>
        <pt x="207" y="284" on="0"/>
        <pt x="207" y="299" on="1"/>
        <pt x="207" y="311" on="0"/>
        <pt x="218" y="328" on="1"/>
        <pt x="235" y="322" on="0"/>
        <pt x="254" y="322" on="1"/>
        <pt x="325" y="322" on="0"/>
        <pt x="405" y="415" on="0"/>
        <pt x="405" y="495" on="1"/>
        <pt x="405" y="565" on="0"/>
        <pt x="343" y="612" on="0"/>
        <pt x="273" y="612" on="1"/>
        <pt x="233" y="612" on="0"/>
        <pt x="206" y="608" on="1"/>
        <pt x="200" y="530" on="0"/>
        <pt x="187" y="429" on="1"/>
        <pt x="158" y="203" on="1"/>
        <pt x="146" y="113" on="0"/>
        <pt x="146" y="62" on="1"/>
        <pt x="146" y="29" on="0"/>
        <pt x="150" y="5" on="1"/>
        <pt x="132" y="-3" on="0"/>
        <pt x="102" y="-3" on="1"/>
        <pt x="60" y="-3" on="0"/>
        <pt x="60" y="39" on="1"/>
        <pt x="60" y="49" on="0"/>
        <pt x="69" y="112" on="0"/>
        <pt x="83" y="204" on="0"/>
        <pt x="86" y="231" on="1"/>
        <pt x="111" y="431" on="1"/>
        <pt x="129" y="577" on="0"/>
        <pt x="129" y="661" on="1"/>
        <pt x="196" y="673" on="0"/>
        <pt x="269" y="673" on="1"/>
        <pt x="313" y="673" on="0"/>
        <pt x="386" y="657" on="0"/>
        <pt x="451" y="620" on="0"/>
        <pt x="487" y="551" on="0"/>
        <pt x="487" y="503" on="1"/>
        <pt x="487" y="414" on="0"/>
        <pt x="388" y="288" on="0"/>
        <pt x="313" y="277" on="1"/>
        <pt x="329" y="226" on="0"/>
        <pt x="381" y="109" on="0"/>
      </contour>
    </TTGlyph>
    <TTGlyph name="S" xMin="25" yMin="-10" xMax="460" yMax="671">
      <contour>
        <pt x="402" y="531" on="1"/>
        <pt x="391" y="564" on="0"/>
        <pt x="319" y="607" on="0"/>
        <pt x="278" y="607" on="1"/>
        <pt x="228" y="607" on="0"/>
        <pt x="158" y="541" on="0"/>
        <pt x="158" y="479" on="1"/>
        <pt x="158" y="439" on="0"/>
        <pt x="213" y="391" on="0"/>
        <pt x="292" y="367" on="0"/>
        <pt x="371" y="338" on="0"/>
        <pt x="426" y="274" on="0"/>
        <pt x="426" y="222" on="1"/>
        <pt x="426" y="112" on="0"/>
        <pt x="300" y="-10" on="0"/>
        <pt x="194" y="-10" on="1"/>
        <pt x="127" y="-10" on="0"/>
        <pt x="25" y="41" on="0"/>
        <pt x="25" y="76" on="1"/>
        <pt x="25" y="114" on="0"/>
        <pt x="77" y="137" on="1"/>
        <pt x="90" y="100" on="0"/>
        <pt x="172" y="53" on="0"/>
        <pt x="218" y="53" on="1"/>
        <pt x="273" y="53" on="0"/>
        <pt x="354" y="128" on="0"/>
        <pt x="354" y="194" on="1"/>
        <pt x="354" y="233" on="0"/>
        <pt x="299" y="278" on="0"/>
        <pt x="220" y="301" on="0"/>
        <pt x="140" y="330" on="0"/>
        <pt x="85" y="400" on="0"/>
        <pt x="85" y="457" on="1"/>
        <pt x="85" y="558" on="0"/>
        <pt x="213" y="671" on="0"/>
        <pt x="310" y="671" on="1"/>
        <pt x="365" y="671" on="0"/>
        <pt x="460" y="627" on="0"/>
        <pt x="460" y="588" on="1"/>
        <pt x="460" y="542" on="0"/>
      </contour>
    </TTGlyph>
    <TTGlyph name="Scaron" xMin="25" yMin="-10" xMax="460" yMax="870">
      <contour>
        <pt x="280" y="710" on="1"/>
        <pt x="174" y="788" on="0"/>
        <pt x="174" y="837" on="1"/>
        <pt x="174" y="860" on="0"/>
        <pt x="201" y="870" on="1"/>
        <pt x="215" y="846" on="0"/>
        <pt x="261" y="802" on="0"/>
        <pt x="276" y="792" on="1"/>
        <pt x="292" y="781" on="1"/>
        <pt x="325" y="808" on="0"/>
        <pt x="397" y="862" on="0"/>
        <pt x="421" y="862" on="0"/>
        <pt x="431" y="844" on="1"/>
        <pt x="356" y="764" on="0"/>
      </contour>
      <contour>
        <pt x="402" y="531" on="1"/>
        <pt x="391" y="564" on="0"/>
        <pt x="319" y="607" on="0"/>
        <pt x="278" y="607" on="1"/>
        <pt x="228" y="607" on="0"/>
        <pt x="158" y="541" on="0"/>
        <pt x="158" y="479" on="1"/>
        <pt x="158" y="439" on="0"/>
        <pt x="213" y="391" on="0"/>
        <pt x="292" y="367" on="0"/>
        <pt x="371" y="338" on="0"/>
        <pt x="426" y="274" on="0"/>
        <pt x="426" y="222" on="1"/>
        <pt x="426" y="112" on="0"/>
        <pt x="300" y="-10" on="0"/>
        <pt x="194" y="-10" on="1"/>
        <pt x="127" y="-10" on="0"/>
        <pt x="25" y="41" on="0"/>
        <pt x="25" y="76" on="1"/>
        <pt x="25" y="114" on="0"/>
        <pt x="77" y="137" on="1"/>
        <pt x="90" y="100" on="0"/>
        <pt x="172" y="53" on="0"/>
        <pt x="218" y="53" on="1"/>
        <pt x="273" y="53" on="0"/>
        <pt x="354" y="128" on="0"/>
        <pt x="354" y="194" on="1"/>
        <pt x="354" y="233" on="0"/>
        <pt x="299" y="278" on="0"/>
        <pt x="220" y="301" on="0"/>
        <pt x="140" y="330" on="0"/>
        <pt x="85" y="400" on="0"/>
        <pt x="85" y="457" on="1"/>
        <pt x="85" y="558" on="0"/>
        <pt x="213" y="671" on="0"/>
        <pt x="310" y="671" on="1"/>
        <pt x="365" y="671" on="0"/>
        <pt x="460" y="627" on="0"/>
        <pt x="460" y="588" on="1"/>
        <pt x="460" y="542" on="0"/>
      </contour>
    </TTGlyph>
    <TTGlyph name="T" xMin="45" yMin="-3" xMax="468" yMax="664">
      <contour>
        <pt x="46" y="598" on="1"/>
        <pt x="45" y="604" on="0"/>
        <pt x="45" y="613" on="1"/>
        <pt x="45" y="638" on="0"/>
        <pt x="66" y="659" on="0"/>
        <pt x="90" y="660" on="1"/>
        <pt x="113" y="661" on="0"/>
        <pt x="187" y="661" on="1"/>
        <pt x="293" y="661" on="1"/>
        <pt x="434" y="661" on="0"/>
        <pt x="466" y="664" on="1"/>
        <pt x="468" y="654" on="0"/>
        <pt x="468" y="644" on="1"/>
        <pt x="468" y="623" on="0"/>
        <pt x="447" y="605" on="0"/>
        <pt x="423" y="603" on="1"/>
        <pt x="395" y="602" on="0"/>
        <pt x="296" y="602" on="1"/>
        <pt x="274" y="468" on="0"/>
        <pt x="266" y="404" on="1"/>
        <pt x="240" y="203" on="1"/>
        <pt x="228" y="115" on="0"/>
        <pt x="228" y="66" on="1"/>
        <pt x="228" y="32" on="0"/>
        <pt x="232" y="5" on="1"/>
        <pt x="214" y="-3" on="0"/>
        <pt x="184" y="-3" on="1"/>
        <pt x="142" y="-3" on="0"/>
        <pt x="142" y="39" on="1"/>
        <pt x="142" y="51" on="0"/>
        <pt x="166" y="221" on="0"/>
        <pt x="201" y="493" on="0"/>
        <pt x="212" y="602" on="1"/>
        <pt x="89" y="602" on="0"/>
      </contour>
    </TTGlyph>
    <TTGlyph name="Thorn" xMin="51" yMin="-3" xMax="463" yMax="666">
      <contour>
        <pt x="231" y="188" on="1"/>
        <pt x="304" y="188" on="0"/>
        <pt x="381" y="295" on="0"/>
        <pt x="381" y="378" on="1"/>
        <pt x="381" y="445" on="0"/>
        <pt x="311" y="496" on="0"/>
        <pt x="246" y="496" on="1"/>
        <pt x="217" y="496" on="0"/>
        <pt x="187" y="493" on="1"/>
        <pt x="181" y="453" on="0"/>
        <pt x="150" y="213" on="1"/>
        <pt x="186" y="188" on="0"/>
      </contour>
      <contour>
        <pt x="166" y="666" on="1"/>
        <pt x="210" y="666" on="0"/>
        <pt x="210" y="633" on="1"/>
        <pt x="210" y="620" on="0"/>
        <pt x="197" y="555" on="1"/>
        <pt x="233" y="557" on="0"/>
        <pt x="244" y="557" on="1"/>
        <pt x="463" y="557" on="0"/>
        <pt x="463" y="380" on="1"/>
        <pt x="463" y="263" on="0"/>
        <pt x="329" y="127" on="0"/>
        <pt x="243" y="127" on="1"/>
        <pt x="183" y="127" on="0"/>
        <pt x="143" y="159" on="1"/>
        <pt x="137" y="112" on="0"/>
        <pt x="137" y="66" on="1"/>
        <pt x="137" y="32" on="0"/>
        <pt x="141" y="5" on="1"/>
        <pt x="123" y="-3" on="0"/>
        <pt x="93" y="-3" on="1"/>
        <pt x="51" y="-3" on="0"/>
        <pt x="51" y="39" on="1"/>
        <pt x="51" y="47" on="0"/>
        <pt x="73" y="212" on="0"/>
        <pt x="99" y="407" on="0"/>
        <pt x="102" y="431" on="1"/>
        <pt x="121" y="581" on="0"/>
        <pt x="125" y="663" on="1"/>
        <pt x="141" y="666" on="0"/>
      </contour>
    </TTGlyph>
    <TTGlyph name="U" xMin="79" yMin="-10" xMax="579" yMax="666">
      <contour>
        <pt x="450" y="274" on="1"/>
        <pt x="490" y="579" on="0"/>
        <pt x="494" y="663" on="1"/>
        <pt x="510" y="666" on="0"/>
        <pt x="535" y="666" on="1"/>
        <pt x="579" y="666" on="0"/>
        <pt x="579" y="633" on="1"/>
        <pt x="579" y="628" on="0"/>
        <pt x="569" y="573" on="0"/>
        <pt x="551" y="462" on="0"/>
        <pt x="544" y="404" on="1"/>
        <pt x="518" y="203" on="1"/>
        <pt x="506" y="115" on="0"/>
        <pt x="506" y="66" on="1"/>
        <pt x="506" y="32" on="0"/>
        <pt x="510" y="5" on="1"/>
        <pt x="492" y="-3" on="0"/>
        <pt x="462" y="-3" on="1"/>
        <pt x="420" y="-3" on="0"/>
        <pt x="420" y="39" on="1"/>
        <pt x="420" y="48" on="0"/>
        <pt x="432" y="132" on="1"/>
        <pt x="389" y="64" on="0"/>
        <pt x="274" y="-10" on="0"/>
        <pt x="219" y="-10" on="1"/>
        <pt x="152" y="-10" on="0"/>
        <pt x="79" y="86" on="0"/>
        <pt x="79" y="157" on="1"/>
        <pt x="79" y="182" on="0"/>
        <pt x="129" y="561" on="0"/>
        <pt x="134" y="663" on="1"/>
        <pt x="150" y="666" on="0"/>
        <pt x="175" y="666" on="1"/>
        <pt x="219" y="666" on="0"/>
        <pt x="219" y="633" on="1"/>
        <pt x="219" y="630" on="0"/>
        <pt x="210" y="576" on="0"/>
        <pt x="193" y="471" on="0"/>
        <pt x="186" y="421" on="1"/>
        <pt x="156" y="200" on="0"/>
        <pt x="156" y="164" on="1"/>
        <pt x="156" y="122" on="0"/>
        <pt x="193" y="62" on="0"/>
        <pt x="232" y="62" on="1"/>
        <pt x="287" y="62" on="0"/>
        <pt x="417" y="183" on="0"/>
      </contour>
    </TTGlyph>
    <TTGlyph name="Uacute" xMin="79" yMin="-10" xMax="579" yMax="879">
      <contour>
        <pt x="450" y="274" on="1"/>
        <pt x="490" y="579" on="0"/>
        <pt x="494" y="663" on="1"/>
        <pt x="510" y="666" on="0"/>
        <pt x="535" y="666" on="1"/>
        <pt x="579" y="666" on="0"/>
        <pt x="579" y="633" on="1"/>
        <pt x="579" y="628" on="0"/>
        <pt x="569" y="573" on="0"/>
        <pt x="551" y="462" on="0"/>
        <pt x="544" y="404" on="1"/>
        <pt x="518" y="203" on="1"/>
        <pt x="506" y="115" on="0"/>
        <pt x="506" y="66" on="1"/>
        <pt x="506" y="32" on="0"/>
        <pt x="510" y="5" on="1"/>
        <pt x="492" y="-3" on="0"/>
        <pt x="462" y="-3" on="1"/>
        <pt x="420" y="-3" on="0"/>
        <pt x="420" y="39" on="1"/>
        <pt x="420" y="48" on="0"/>
        <pt x="432" y="132" on="1"/>
        <pt x="389" y="64" on="0"/>
        <pt x="274" y="-10" on="0"/>
        <pt x="219" y="-10" on="1"/>
        <pt x="152" y="-10" on="0"/>
        <pt x="79" y="86" on="0"/>
        <pt x="79" y="157" on="1"/>
        <pt x="79" y="182" on="0"/>
        <pt x="129" y="561" on="0"/>
        <pt x="134" y="663" on="1"/>
        <pt x="150" y="666" on="0"/>
        <pt x="175" y="666" on="1"/>
        <pt x="219" y="666" on="0"/>
        <pt x="219" y="633" on="1"/>
        <pt x="219" y="630" on="0"/>
        <pt x="210" y="576" on="0"/>
        <pt x="193" y="471" on="0"/>
        <pt x="186" y="421" on="1"/>
        <pt x="156" y="200" on="0"/>
        <pt x="156" y="164" on="1"/>
        <pt x="156" y="122" on="0"/>
        <pt x="193" y="62" on="0"/>
        <pt x="232" y="62" on="1"/>
        <pt x="287" y="62" on="0"/>
        <pt x="417" y="183" on="0"/>
      </contour>
      <contour>
        <pt x="483" y="795" on="1"/>
        <pt x="461" y="783" on="0"/>
        <pt x="339" y="727" on="0"/>
        <pt x="324" y="716" on="1"/>
        <pt x="311" y="729" on="0"/>
        <pt x="311" y="745" on="1"/>
        <pt x="311" y="765" on="0"/>
        <pt x="332" y="775" on="1"/>
        <pt x="437" y="835" on="0"/>
        <pt x="482" y="879" on="1"/>
        <pt x="512" y="857" on="0"/>
        <pt x="512" y="834" on="1"/>
        <pt x="512" y="812" on="0"/>
      </contour>
    </TTGlyph>
    <TTGlyph name="Ucircumflex" xMin="79" yMin="-10" xMax="579" yMax="870">
      <contour>
        <pt x="388" y="870" on="1"/>
        <pt x="494" y="790" on="0"/>
        <pt x="494" y="743" on="1"/>
        <pt x="494" y="721" on="0"/>
        <pt x="467" y="710" on="1"/>
        <pt x="453" y="734" on="0"/>
        <pt x="407" y="778" on="0"/>
        <pt x="392" y="788" on="1"/>
        <pt x="376" y="799" on="1"/>
        <pt x="370" y="794" on="0"/>
        <pt x="343" y="773" on="0"/>
        <pt x="328" y="761" on="0"/>
        <pt x="305" y="743" on="0"/>
        <pt x="290" y="733" on="0"/>
        <pt x="273" y="723" on="0"/>
        <pt x="262" y="718" on="0"/>
        <pt x="258" y="718" on="1"/>
        <pt x="246" y="718" on="0"/>
        <pt x="236" y="736" on="1"/>
        <pt x="304" y="811" on="0"/>
      </contour>
      <contour>
        <pt x="450" y="274" on="1"/>
        <pt x="490" y="579" on="0"/>
        <pt x="494" y="663" on="1"/>
        <pt x="510" y="666" on="0"/>
        <pt x="535" y="666" on="1"/>
        <pt x="579" y="666" on="0"/>
        <pt x="579" y="633" on="1"/>
        <pt x="579" y="628" on="0"/>
        <pt x="569" y="573" on="0"/>
        <pt x="551" y="462" on="0"/>
        <pt x="544" y="404" on="1"/>
        <pt x="518" y="203" on="1"/>
        <pt x="506" y="115" on="0"/>
        <pt x="506" y="66" on="1"/>
        <pt x="506" y="32" on="0"/>
        <pt x="510" y="5" on="1"/>
        <pt x="492" y="-3" on="0"/>
        <pt x="462" y="-3" on="1"/>
        <pt x="420" y="-3" on="0"/>
        <pt x="420" y="39" on="1"/>
        <pt x="420" y="48" on="0"/>
        <pt x="432" y="132" on="1"/>
        <pt x="389" y="64" on="0"/>
        <pt x="274" y="-10" on="0"/>
        <pt x="219" y="-10" on="1"/>
        <pt x="152" y="-10" on="0"/>
        <pt x="79" y="86" on="0"/>
        <pt x="79" y="157" on="1"/>
        <pt x="79" y="182" on="0"/>
        <pt x="129" y="561" on="0"/>
        <pt x="134" y="663" on="1"/>
        <pt x="150" y="666" on="0"/>
        <pt x="175" y="666" on="1"/>
        <pt x="219" y="666" on="0"/>
        <pt x="219" y="633" on="1"/>
        <pt x="219" y="630" on="0"/>
        <pt x="210" y="576" on="0"/>
        <pt x="193" y="471" on="0"/>
        <pt x="186" y="421" on="1"/>
        <pt x="156" y="200" on="0"/>
        <pt x="156" y="164" on="1"/>
        <pt x="156" y="122" on="0"/>
        <pt x="193" y="62" on="0"/>
        <pt x="232" y="62" on="1"/>
        <pt x="287" y="62" on="0"/>
        <pt x="417" y="183" on="0"/>
      </contour>
    </TTGlyph>
    <TTGlyph name="Udieresis" xMin="79" yMin="-10" xMax="579" yMax="819">
      <contour>
        <pt x="450" y="274" on="1"/>
        <pt x="490" y="579" on="0"/>
        <pt x="494" y="663" on="1"/>
        <pt x="510" y="666" on="0"/>
        <pt x="535" y="666" on="1"/>
        <pt x="579" y="666" on="0"/>
        <pt x="579" y="633" on="1"/>
        <pt x="579" y="628" on="0"/>
        <pt x="569" y="573" on="0"/>
        <pt x="551" y="462" on="0"/>
        <pt x="544" y="404" on="1"/>
        <pt x="518" y="203" on="1"/>
        <pt x="506" y="115" on="0"/>
        <pt x="506" y="66" on="1"/>
        <pt x="506" y="32" on="0"/>
        <pt x="510" y="5" on="1"/>
        <pt x="492" y="-3" on="0"/>
        <pt x="462" y="-3" on="1"/>
        <pt x="420" y="-3" on="0"/>
        <pt x="420" y="39" on="1"/>
        <pt x="420" y="48" on="0"/>
        <pt x="432" y="132" on="1"/>
        <pt x="389" y="64" on="0"/>
        <pt x="274" y="-10" on="0"/>
        <pt x="219" y="-10" on="1"/>
        <pt x="152" y="-10" on="0"/>
        <pt x="79" y="86" on="0"/>
        <pt x="79" y="157" on="1"/>
        <pt x="79" y="182" on="0"/>
        <pt x="129" y="561" on="0"/>
        <pt x="134" y="663" on="1"/>
        <pt x="150" y="666" on="0"/>
        <pt x="175" y="666" on="1"/>
        <pt x="219" y="666" on="0"/>
        <pt x="219" y="633" on="1"/>
        <pt x="219" y="630" on="0"/>
        <pt x="210" y="576" on="0"/>
        <pt x="193" y="471" on="0"/>
        <pt x="186" y="421" on="1"/>
        <pt x="156" y="200" on="0"/>
        <pt x="156" y="164" on="1"/>
        <pt x="156" y="122" on="0"/>
        <pt x="193" y="62" on="0"/>
        <pt x="232" y="62" on="1"/>
        <pt x="287" y="62" on="0"/>
        <pt x="417" y="183" on="0"/>
      </contour>
      <contour>
        <pt x="289" y="712" on="1"/>
        <pt x="270" y="712" on="0"/>
        <pt x="246" y="738" on="0"/>
        <pt x="246" y="759" on="1"/>
        <pt x="246" y="784" on="0"/>
        <pt x="280" y="819" on="0"/>
        <pt x="302" y="819" on="1"/>
        <pt x="320" y="819" on="0"/>
        <pt x="345" y="791" on="0"/>
        <pt x="345" y="770" on="1"/>
        <pt x="345" y="746" on="0"/>
        <pt x="309" y="712" on="0"/>
      </contour>
      <contour>
        <pt x="456" y="712" on="1"/>
        <pt x="437" y="712" on="0"/>
        <pt x="413" y="738" on="0"/>
        <pt x="413" y="759" on="1"/>
        <pt x="413" y="784" on="0"/>
        <pt x="447" y="819" on="0"/>
        <pt x="469" y="819" on="1"/>
        <pt x="487" y="819" on="0"/>
        <pt x="512" y="791" on="0"/>
        <pt x="512" y="770" on="1"/>
        <pt x="512" y="746" on="0"/>
        <pt x="476" y="712" on="0"/>
      </contour>
    </TTGlyph>
    <TTGlyph name="Ugrave" xMin="79" yMin="-10" xMax="579" yMax="892">
      <contour>
        <pt x="450" y="274" on="1"/>
        <pt x="490" y="579" on="0"/>
        <pt x="494" y="663" on="1"/>
        <pt x="510" y="666" on="0"/>
        <pt x="535" y="666" on="1"/>
        <pt x="579" y="666" on="0"/>
        <pt x="579" y="633" on="1"/>
        <pt x="579" y="628" on="0"/>
        <pt x="569" y="573" on="0"/>
        <pt x="551" y="462" on="0"/>
        <pt x="544" y="404" on="1"/>
        <pt x="518" y="203" on="1"/>
        <pt x="506" y="115" on="0"/>
        <pt x="506" y="66" on="1"/>
        <pt x="506" y="32" on="0"/>
        <pt x="510" y="5" on="1"/>
        <pt x="492" y="-3" on="0"/>
        <pt x="462" y="-3" on="1"/>
        <pt x="420" y="-3" on="0"/>
        <pt x="420" y="39" on="1"/>
        <pt x="420" y="48" on="0"/>
        <pt x="432" y="132" on="1"/>
        <pt x="389" y="64" on="0"/>
        <pt x="274" y="-10" on="0"/>
        <pt x="219" y="-10" on="1"/>
        <pt x="152" y="-10" on="0"/>
        <pt x="79" y="86" on="0"/>
        <pt x="79" y="157" on="1"/>
        <pt x="79" y="182" on="0"/>
        <pt x="129" y="561" on="0"/>
        <pt x="134" y="663" on="1"/>
        <pt x="150" y="666" on="0"/>
        <pt x="175" y="666" on="1"/>
        <pt x="219" y="666" on="0"/>
        <pt x="219" y="633" on="1"/>
        <pt x="219" y="630" on="0"/>
        <pt x="210" y="576" on="0"/>
        <pt x="193" y="471" on="0"/>
        <pt x="186" y="421" on="1"/>
        <pt x="156" y="200" on="0"/>
        <pt x="156" y="164" on="1"/>
        <pt x="156" y="122" on="0"/>
        <pt x="193" y="62" on="0"/>
        <pt x="232" y="62" on="1"/>
        <pt x="287" y="62" on="0"/>
        <pt x="417" y="183" on="0"/>
      </contour>
      <contour>
        <pt x="251" y="810" on="1"/>
        <pt x="226" y="826" on="0"/>
        <pt x="226" y="846" on="1"/>
        <pt x="226" y="873" on="0"/>
        <pt x="261" y="892" on="1"/>
        <pt x="273" y="877" on="0"/>
        <pt x="315" y="839" on="0"/>
        <pt x="351" y="811" on="0"/>
        <pt x="393" y="779" on="0"/>
        <pt x="397" y="776" on="1"/>
        <pt x="416" y="762" on="0"/>
        <pt x="416" y="748" on="1"/>
        <pt x="416" y="732" on="0"/>
        <pt x="400" y="716" on="1"/>
        <pt x="387" y="727" on="0"/>
        <pt x="275" y="794" on="0"/>
      </contour>
    </TTGlyph>
    <TTGlyph name="V" xMin="80" yMin="-10" xMax="560" yMax="674">
      <contour>
        <pt x="113" y="521" on="1"/>
        <pt x="113" y="594" on="0"/>
        <pt x="86" y="650" on="1"/>
        <pt x="122" y="674" on="0"/>
        <pt x="149" y="674" on="1"/>
        <pt x="200" y="674" on="0"/>
        <pt x="200" y="579" on="1"/>
        <pt x="200" y="528" on="0"/>
        <pt x="154" y="255" on="0"/>
        <pt x="154" y="191" on="1"/>
        <pt x="154" y="85" on="0"/>
        <pt x="191" y="48" on="1"/>
        <pt x="259" y="57" on="0"/>
        <pt x="390" y="227" on="0"/>
        <pt x="465" y="452" on="0"/>
        <pt x="465" y="547" on="1"/>
        <pt x="465" y="609" on="0"/>
        <pt x="448" y="653" on="1"/>
        <pt x="481" y="674" on="0"/>
        <pt x="508" y="674" on="1"/>
        <pt x="560" y="674" on="0"/>
        <pt x="560" y="594" on="1"/>
        <pt x="560" y="539" on="0"/>
        <pt x="527" y="386" on="0"/>
        <pt x="460" y="221" on="0"/>
        <pt x="373" y="81" on="0"/>
        <pt x="252" y="-10" on="0"/>
        <pt x="188" y="-10" on="1"/>
        <pt x="164" y="-10" on="0"/>
        <pt x="142" y="1" on="1"/>
        <pt x="80" y="67" on="0"/>
        <pt x="80" y="191" on="1"/>
        <pt x="80" y="255" on="0"/>
        <pt x="113" y="439" on="0"/>
      </contour>
    </TTGlyph>
    <TTGlyph name="W" xMin="80" yMin="-10" xMax="887" yMax="674">
      <contour>
        <pt x="113" y="521" on="1"/>
        <pt x="113" y="594" on="0"/>
        <pt x="86" y="650" on="1"/>
        <pt x="122" y="674" on="0"/>
        <pt x="149" y="674" on="1"/>
        <pt x="200" y="674" on="0"/>
        <pt x="200" y="579" on="1"/>
        <pt x="200" y="528" on="0"/>
        <pt x="154" y="255" on="0"/>
        <pt x="154" y="191" on="1"/>
        <pt x="154" y="85" on="0"/>
        <pt x="191" y="48" on="1"/>
        <pt x="257" y="57" on="0"/>
        <pt x="382" y="218" on="0"/>
        <pt x="454" y="431" on="0"/>
        <pt x="454" y="521" on="1"/>
        <pt x="454" y="580" on="0"/>
        <pt x="437" y="621" on="1"/>
        <pt x="471" y="641" on="0"/>
        <pt x="497" y="641" on="1"/>
        <pt x="549" y="641" on="0"/>
        <pt x="549" y="565" on="1"/>
        <pt x="549" y="460" on="0"/>
        <pt x="495" y="318" on="1"/>
        <pt x="491" y="252" on="0"/>
        <pt x="491" y="217" on="1"/>
        <pt x="491" y="85" on="0"/>
        <pt x="529" y="48" on="1"/>
        <pt x="595" y="57" on="0"/>
        <pt x="720" y="227" on="0"/>
        <pt x="792" y="452" on="0"/>
        <pt x="792" y="547" on="1"/>
        <pt x="792" y="609" on="0"/>
        <pt x="775" y="653" on="1"/>
        <pt x="808" y="674" on="0"/>
        <pt x="835" y="674" on="1"/>
        <pt x="887" y="674" on="0"/>
        <pt x="887" y="594" on="1"/>
        <pt x="887" y="539" on="0"/>
        <pt x="854" y="386" on="0"/>
        <pt x="789" y="221" on="0"/>
        <pt x="705" y="81" on="0"/>
        <pt x="587" y="-10" on="0"/>
        <pt x="525" y="-10" on="1"/>
        <pt x="502" y="-10" on="0"/>
        <pt x="480" y="1" on="1"/>
        <pt x="425" y="58" on="0"/>
        <pt x="419" y="159" on="1"/>
        <pt x="313" y="-10" on="0"/>
        <pt x="187" y="-10" on="1"/>
        <pt x="164" y="-10" on="0"/>
        <pt x="142" y="1" on="1"/>
        <pt x="80" y="67" on="0"/>
        <pt x="80" y="191" on="1"/>
        <pt x="80" y="255" on="0"/>
        <pt x="113" y="439" on="0"/>
      </contour>
    </TTGlyph>
    <TTGlyph name="X" xMin="6" yMin="-10" xMax="530" yMax="674">
      <contour>
        <pt x="505" y="46" on="1"/>
        <pt x="474" y="-10" on="0"/>
        <pt x="441" y="-10" on="1"/>
        <pt x="428" y="-10" on="0"/>
        <pt x="400" y="8" on="0"/>
        <pt x="374" y="46" on="0"/>
        <pt x="351" y="86" on="0"/>
        <pt x="325" y="147" on="0"/>
        <pt x="306" y="193" on="0"/>
        <pt x="279" y="262" on="0"/>
        <pt x="271" y="281" on="1"/>
        <pt x="214" y="224" on="0"/>
        <pt x="88" y="44" on="0"/>
        <pt x="69" y="-10" on="1"/>
        <pt x="6" y="5" on="0"/>
        <pt x="6" y="37" on="1"/>
        <pt x="6" y="55" on="0"/>
        <pt x="39" y="113" on="0"/>
        <pt x="106" y="195" on="0"/>
        <pt x="152" y="248" on="0"/>
        <pt x="239" y="341" on="0"/>
        <pt x="245" y="348" on="1"/>
        <pt x="187" y="486" on="0"/>
        <pt x="133" y="578" on="0"/>
        <pt x="81" y="618" on="1"/>
        <pt x="103" y="657" on="0"/>
        <pt x="125" y="669" on="1"/>
        <pt x="134" y="674" on="0"/>
        <pt x="145" y="674" on="1"/>
        <pt x="159" y="674" on="0"/>
        <pt x="187" y="654" on="0"/>
        <pt x="218" y="606" on="0"/>
        <pt x="239" y="569" on="0"/>
        <pt x="272" y="492" on="0"/>
        <pt x="286" y="457" on="0"/>
        <pt x="302" y="415" on="1"/>
        <pt x="359" y="482" on="0"/>
        <pt x="453" y="633" on="0"/>
        <pt x="464" y="674" on="1"/>
        <pt x="530" y="658" on="0"/>
        <pt x="530" y="623" on="1"/>
        <pt x="530" y="573" on="0"/>
        <pt x="330" y="348" on="1"/>
        <pt x="358" y="272" on="0"/>
        <pt x="389" y="193" on="0"/>
        <pt x="463" y="76" on="0"/>
      </contour>
    </TTGlyph>
    <TTGlyph name="Y" xMin="50" yMin="-3" xMax="511" yMax="672">
      <contour>
        <pt x="50" y="619" on="1"/>
        <pt x="54" y="623" on="0"/>
        <pt x="73" y="645" on="0"/>
        <pt x="80" y="651" on="0"/>
        <pt x="94" y="663" on="0"/>
        <pt x="106" y="667" on="0"/>
        <pt x="113" y="667" on="1"/>
        <pt x="140" y="667" on="0"/>
        <pt x="154" y="633" on="1"/>
        <pt x="196" y="551" on="0"/>
        <pt x="261" y="369" on="1"/>
        <pt x="312" y="433" on="0"/>
        <pt x="430" y="635" on="0"/>
        <pt x="437" y="672" on="1"/>
        <pt x="511" y="672" on="0"/>
        <pt x="511" y="631" on="1"/>
        <pt x="511" y="606" on="0"/>
        <pt x="349" y="381" on="0"/>
        <pt x="282" y="302" on="1"/>
        <pt x="269" y="203" on="1"/>
        <pt x="257" y="115" on="0"/>
        <pt x="257" y="66" on="1"/>
        <pt x="257" y="32" on="0"/>
        <pt x="261" y="5" on="1"/>
        <pt x="243" y="-3" on="0"/>
        <pt x="213" y="-3" on="1"/>
        <pt x="171" y="-3" on="0"/>
        <pt x="171" y="39" on="1"/>
        <pt x="171" y="45" on="0"/>
        <pt x="178" y="95" on="0"/>
        <pt x="197" y="231" on="0"/>
        <pt x="206" y="302" on="1"/>
        <pt x="112" y="567" on="0"/>
      </contour>
    </TTGlyph>
    <TTGlyph name="Yacute" xMin="50" yMin="-3" xMax="511" yMax="879">
      <contour>
        <pt x="50" y="619" on="1"/>
        <pt x="54" y="623" on="0"/>
        <pt x="73" y="645" on="0"/>
        <pt x="80" y="651" on="0"/>
        <pt x="94" y="663" on="0"/>
        <pt x="106" y="667" on="0"/>
        <pt x="113" y="667" on="1"/>
        <pt x="140" y="667" on="0"/>
        <pt x="154" y="633" on="1"/>
        <pt x="196" y="551" on="0"/>
        <pt x="261" y="369" on="1"/>
        <pt x="312" y="433" on="0"/>
        <pt x="430" y="635" on="0"/>
        <pt x="437" y="672" on="1"/>
        <pt x="511" y="672" on="0"/>
        <pt x="511" y="631" on="1"/>
        <pt x="511" y="606" on="0"/>
        <pt x="349" y="381" on="0"/>
        <pt x="282" y="302" on="1"/>
        <pt x="269" y="203" on="1"/>
        <pt x="257" y="115" on="0"/>
        <pt x="257" y="66" on="1"/>
        <pt x="257" y="32" on="0"/>
        <pt x="261" y="5" on="1"/>
        <pt x="243" y="-3" on="0"/>
        <pt x="213" y="-3" on="1"/>
        <pt x="171" y="-3" on="0"/>
        <pt x="171" y="39" on="1"/>
        <pt x="171" y="45" on="0"/>
        <pt x="178" y="95" on="0"/>
        <pt x="197" y="231" on="0"/>
        <pt x="206" y="302" on="1"/>
        <pt x="112" y="567" on="0"/>
      </contour>
      <contour>
        <pt x="404" y="795" on="1"/>
        <pt x="382" y="783" on="0"/>
        <pt x="260" y="727" on="0"/>
        <pt x="245" y="716" on="1"/>
        <pt x="232" y="729" on="0"/>
        <pt x="232" y="745" on="1"/>
        <pt x="232" y="765" on="0"/>
        <pt x="253" y="775" on="1"/>
        <pt x="358" y="835" on="0"/>
        <pt x="403" y="879" on="1"/>
        <pt x="433" y="857" on="0"/>
        <pt x="433" y="834" on="1"/>
        <pt x="433" y="812" on="0"/>
      </contour>
    </TTGlyph>
    <TTGlyph name="Ydieresis" xMin="50" yMin="-3" xMax="511" yMax="819">
      <contour>
        <pt x="50" y="619" on="1"/>
        <pt x="54" y="623" on="0"/>
        <pt x="73" y="645" on="0"/>
        <pt x="80" y="651" on="0"/>
        <pt x="94" y="663" on="0"/>
        <pt x="106" y="667" on="0"/>
        <pt x="113" y="667" on="1"/>
        <pt x="140" y="667" on="0"/>
        <pt x="154" y="633" on="1"/>
        <pt x="196" y="551" on="0"/>
        <pt x="261" y="369" on="1"/>
        <pt x="312" y="433" on="0"/>
        <pt x="430" y="635" on="0"/>
        <pt x="437" y="672" on="1"/>
        <pt x="511" y="672" on="0"/>
        <pt x="511" y="631" on="1"/>
        <pt x="511" y="606" on="0"/>
        <pt x="349" y="381" on="0"/>
        <pt x="282" y="302" on="1"/>
        <pt x="269" y="203" on="1"/>
        <pt x="257" y="115" on="0"/>
        <pt x="257" y="66" on="1"/>
        <pt x="257" y="32" on="0"/>
        <pt x="261" y="5" on="1"/>
        <pt x="243" y="-3" on="0"/>
        <pt x="213" y="-3" on="1"/>
        <pt x="171" y="-3" on="0"/>
        <pt x="171" y="39" on="1"/>
        <pt x="171" y="45" on="0"/>
        <pt x="178" y="95" on="0"/>
        <pt x="197" y="231" on="0"/>
        <pt x="206" y="302" on="1"/>
        <pt x="112" y="567" on="0"/>
      </contour>
      <contour>
        <pt x="211" y="712" on="1"/>
        <pt x="192" y="712" on="0"/>
        <pt x="168" y="738" on="0"/>
        <pt x="168" y="759" on="1"/>
        <pt x="168" y="784" on="0"/>
        <pt x="202" y="819" on="0"/>
        <pt x="224" y="819" on="1"/>
        <pt x="242" y="819" on="0"/>
        <pt x="267" y="791" on="0"/>
        <pt x="267" y="770" on="1"/>
        <pt x="267" y="746" on="0"/>
        <pt x="231" y="712" on="0"/>
      </contour>
      <contour>
        <pt x="378" y="712" on="1"/>
        <pt x="359" y="712" on="0"/>
        <pt x="335" y="738" on="0"/>
        <pt x="335" y="759" on="1"/>
        <pt x="335" y="784" on="0"/>
        <pt x="369" y="819" on="0"/>
        <pt x="391" y="819" on="1"/>
        <pt x="409" y="819" on="0"/>
        <pt x="434" y="791" on="0"/>
        <pt x="434" y="770" on="1"/>
        <pt x="434" y="746" on="0"/>
        <pt x="398" y="712" on="0"/>
      </contour>
    </TTGlyph>
    <TTGlyph name="Z" xMin="40" yMin="-10" xMax="509" yMax="667">
      <contour>
        <pt x="141" y="667" on="1"/>
        <pt x="170" y="667" on="0"/>
        <pt x="370" y="640" on="0"/>
        <pt x="418" y="640" on="1"/>
        <pt x="463" y="640" on="0"/>
        <pt x="486" y="653" on="1"/>
        <pt x="509" y="630" on="0"/>
        <pt x="509" y="595" on="1"/>
        <pt x="509" y="554" on="0"/>
        <pt x="489" y="531" on="1"/>
        <pt x="210" y="206" on="1"/>
        <pt x="153" y="138" on="0"/>
        <pt x="116" y="82" on="1"/>
        <pt x="124" y="83" on="0"/>
        <pt x="141" y="83" on="1"/>
        <pt x="178" y="83" on="0"/>
        <pt x="345" y="58" on="0"/>
        <pt x="380" y="58" on="1"/>
        <pt x="438" y="58" on="0"/>
        <pt x="469" y="74" on="1"/>
        <pt x="480" y="55" on="0"/>
        <pt x="480" y="41" on="1"/>
        <pt x="480" y="-10" on="0"/>
        <pt x="382" y="-10" on="1"/>
        <pt x="356" y="-10" on="0"/>
        <pt x="191" y="15" on="0"/>
        <pt x="146" y="15" on="1"/>
        <pt x="99" y="15" on="0"/>
        <pt x="67" y="3" on="1"/>
        <pt x="40" y="38" on="0"/>
        <pt x="40" y="84" on="0"/>
        <pt x="58" y="119" on="1"/>
        <pt x="117" y="224" on="0"/>
        <pt x="428" y="575" on="1"/>
        <pt x="388" y="575" on="0"/>
        <pt x="215" y="600" on="0"/>
        <pt x="170" y="600" on="1"/>
        <pt x="124" y="600" on="0"/>
        <pt x="86" y="581" on="1"/>
        <pt x="74" y="610" on="0"/>
        <pt x="74" y="619" on="1"/>
        <pt x="74" y="667" on="0"/>
      </contour>
    </TTGlyph>
    <TTGlyph name="Zcaron" xMin="40" yMin="-10" xMax="509" yMax="870">
      <contour>
        <pt x="312" y="710" on="1"/>
        <pt x="206" y="788" on="0"/>
        <pt x="206" y="837" on="1"/>
        <pt x="206" y="860" on="0"/>
        <pt x="233" y="870" on="1"/>
        <pt x="247" y="846" on="0"/>
        <pt x="293" y="802" on="0"/>
        <pt x="308" y="792" on="1"/>
        <pt x="324" y="781" on="1"/>
        <pt x="331" y="786" on="0"/>
        <pt x="371" y="819" on="0"/>
        <pt x="390" y="833" on="0"/>
        <pt x="419" y="853" on="0"/>
        <pt x="436" y="862" on="0"/>
        <pt x="441" y="862" on="1"/>
        <pt x="453" y="862" on="0"/>
        <pt x="463" y="844" on="1"/>
        <pt x="388" y="764" on="0"/>
      </contour>
      <contour>
        <pt x="141" y="667" on="1"/>
        <pt x="170" y="667" on="0"/>
        <pt x="370" y="640" on="0"/>
        <pt x="418" y="640" on="1"/>
        <pt x="463" y="640" on="0"/>
        <pt x="486" y="653" on="1"/>
        <pt x="509" y="630" on="0"/>
        <pt x="509" y="595" on="1"/>
        <pt x="509" y="554" on="0"/>
        <pt x="489" y="531" on="1"/>
        <pt x="210" y="206" on="1"/>
        <pt x="153" y="138" on="0"/>
        <pt x="116" y="82" on="1"/>
        <pt x="124" y="83" on="0"/>
        <pt x="141" y="83" on="1"/>
        <pt x="178" y="83" on="0"/>
        <pt x="345" y="58" on="0"/>
        <pt x="380" y="58" on="1"/>
        <pt x="438" y="58" on="0"/>
        <pt x="469" y="74" on="1"/>
        <pt x="480" y="55" on="0"/>
        <pt x="480" y="41" on="1"/>
        <pt x="480" y="-10" on="0"/>
        <pt x="382" y="-10" on="1"/>
        <pt x="356" y="-10" on="0"/>
        <pt x="191" y="15" on="0"/>
        <pt x="146" y="15" on="1"/>
        <pt x="99" y="15" on="0"/>
        <pt x="67" y="3" on="1"/>
        <pt x="40" y="38" on="0"/>
        <pt x="40" y="84" on="0"/>
        <pt x="58" y="119" on="1"/>
        <pt x="117" y="224" on="0"/>
        <pt x="428" y="575" on="1"/>
        <pt x="388" y="575" on="0"/>
        <pt x="215" y="600" on="0"/>
        <pt x="170" y="600" on="1"/>
        <pt x="124" y="600" on="0"/>
        <pt x="86" y="581" on="1"/>
        <pt x="74" y="610" on="0"/>
        <pt x="74" y="619" on="1"/>
        <pt x="74" y="667" on="0"/>
      </contour>
    </TTGlyph>
    <TTGlyph name="a" xMin="28" yMin="-10" xMax="430" yMax="474">
      <contour>
        <pt x="319" y="104" on="1"/>
        <pt x="290" y="49" on="0"/>
        <pt x="206" y="-10" on="0"/>
        <pt x="161" y="-10" on="1"/>
        <pt x="102" y="-10" on="0"/>
        <pt x="28" y="81" on="0"/>
        <pt x="28" y="166" on="1"/>
        <pt x="28" y="292" on="0"/>
        <pt x="157" y="474" on="0"/>
        <pt x="251" y="474" on="1"/>
        <pt x="353" y="474" on="0"/>
        <pt x="430" y="417" on="1"/>
        <pt x="384" y="193" on="0"/>
        <pt x="384" y="99" on="1"/>
        <pt x="384" y="58" on="0"/>
        <pt x="416" y="36" on="1"/>
        <pt x="402" y="-10" on="0"/>
        <pt x="365" y="-10" on="1"/>
        <pt x="318" y="-10" on="0"/>
        <pt x="318" y="71" on="1"/>
        <pt x="318" y="93" on="0"/>
      </contour>
      <contour>
        <pt x="326" y="189" on="1"/>
        <pt x="339" y="279" on="0"/>
        <pt x="355" y="379" on="1"/>
        <pt x="304" y="424" on="0"/>
        <pt x="252" y="424" on="1"/>
        <pt x="189" y="424" on="0"/>
        <pt x="106" y="290" on="0"/>
        <pt x="106" y="183" on="1"/>
        <pt x="106" y="123" on="0"/>
        <pt x="145" y="40" on="0"/>
        <pt x="181" y="40" on="1"/>
        <pt x="214" y="40" on="0"/>
        <pt x="298" y="123" on="0"/>
      </contour>
    </TTGlyph>
    <TTGlyph name="aacute" xMin="39" yMin="-10" xMax="441" yMax="688">
      <contour>
        <pt x="330" y="104" on="1"/>
        <pt x="301" y="49" on="0"/>
        <pt x="217" y="-10" on="0"/>
        <pt x="172" y="-10" on="1"/>
        <pt x="113" y="-10" on="0"/>
        <pt x="39" y="81" on="0"/>
        <pt x="39" y="166" on="1"/>
        <pt x="39" y="292" on="0"/>
        <pt x="168" y="474" on="0"/>
        <pt x="262" y="474" on="1"/>
        <pt x="364" y="474" on="0"/>
        <pt x="441" y="417" on="1"/>
        <pt x="395" y="193" on="0"/>
        <pt x="395" y="99" on="1"/>
        <pt x="395" y="58" on="0"/>
        <pt x="427" y="36" on="1"/>
        <pt x="413" y="-10" on="0"/>
        <pt x="376" y="-10" on="1"/>
        <pt x="329" y="-10" on="0"/>
        <pt x="329" y="71" on="1"/>
        <pt x="329" y="93" on="0"/>
      </contour>
      <contour>
        <pt x="337" y="189" on="1"/>
        <pt x="350" y="279" on="0"/>
        <pt x="366" y="379" on="1"/>
        <pt x="315" y="424" on="0"/>
        <pt x="263" y="424" on="1"/>
        <pt x="200" y="424" on="0"/>
        <pt x="117" y="290" on="0"/>
        <pt x="117" y="183" on="1"/>
        <pt x="117" y="123" on="0"/>
        <pt x="156" y="40" on="0"/>
        <pt x="192" y="40" on="1"/>
        <pt x="225" y="40" on="0"/>
        <pt x="309" y="123" on="0"/>
      </contour>
      <contour>
        <pt x="394" y="604" on="1"/>
        <pt x="372" y="592" on="0"/>
        <pt x="250" y="536" on="0"/>
        <pt x="235" y="525" on="1"/>
        <pt x="222" y="538" on="0"/>
        <pt x="222" y="554" on="1"/>
        <pt x="222" y="574" on="0"/>
        <pt x="243" y="584" on="1"/>
        <pt x="348" y="644" on="0"/>
        <pt x="393" y="688" on="1"/>
        <pt x="423" y="666" on="0"/>
        <pt x="423" y="643" on="1"/>
        <pt x="423" y="621" on="0"/>
      </contour>
    </TTGlyph>
    <TTGlyph name="acircumflex" xMin="39" yMin="-10" xMax="441" yMax="679">
      <contour>
        <pt x="303" y="679" on="1"/>
        <pt x="409" y="599" on="0"/>
        <pt x="409" y="552" on="1"/>
        <pt x="409" y="530" on="0"/>
        <pt x="382" y="519" on="1"/>
        <pt x="368" y="543" on="0"/>
        <pt x="322" y="587" on="0"/>
        <pt x="306" y="598" on="1"/>
        <pt x="291" y="608" on="1"/>
        <pt x="188" y="527" on="0"/>
        <pt x="173" y="527" on="1"/>
        <pt x="161" y="527" on="0"/>
        <pt x="151" y="545" on="1"/>
        <pt x="219" y="620" on="0"/>
      </contour>
      <contour>
        <pt x="330" y="104" on="1"/>
        <pt x="301" y="49" on="0"/>
        <pt x="217" y="-10" on="0"/>
        <pt x="172" y="-10" on="1"/>
        <pt x="113" y="-10" on="0"/>
        <pt x="39" y="81" on="0"/>
        <pt x="39" y="166" on="1"/>
        <pt x="39" y="292" on="0"/>
        <pt x="168" y="474" on="0"/>
        <pt x="262" y="474" on="1"/>
        <pt x="364" y="474" on="0"/>
        <pt x="441" y="417" on="1"/>
        <pt x="395" y="193" on="0"/>
        <pt x="395" y="99" on="1"/>
        <pt x="395" y="58" on="0"/>
        <pt x="427" y="36" on="1"/>
        <pt x="413" y="-10" on="0"/>
        <pt x="376" y="-10" on="1"/>
        <pt x="329" y="-10" on="0"/>
        <pt x="329" y="71" on="1"/>
        <pt x="329" y="93" on="0"/>
      </contour>
      <contour>
        <pt x="337" y="189" on="1"/>
        <pt x="350" y="279" on="0"/>
        <pt x="366" y="379" on="1"/>
        <pt x="315" y="424" on="0"/>
        <pt x="263" y="424" on="1"/>
        <pt x="200" y="424" on="0"/>
        <pt x="117" y="290" on="0"/>
        <pt x="117" y="183" on="1"/>
        <pt x="117" y="123" on="0"/>
        <pt x="156" y="40" on="0"/>
        <pt x="192" y="40" on="1"/>
        <pt x="225" y="40" on="0"/>
        <pt x="309" y="123" on="0"/>
      </contour>
    </TTGlyph>
    <TTGlyph name="acute" xMin="0" yMin="525" xMax="201" yMax="688">
      <contour>
        <pt x="172" y="604" on="1"/>
        <pt x="150" y="592" on="0"/>
        <pt x="28" y="536" on="0"/>
        <pt x="13" y="525" on="1"/>
        <pt x="0" y="538" on="0"/>
        <pt x="0" y="554" on="1"/>
        <pt x="0" y="574" on="0"/>
        <pt x="21" y="584" on="1"/>
        <pt x="126" y="644" on="0"/>
        <pt x="171" y="688" on="1"/>
        <pt x="201" y="666" on="0"/>
        <pt x="201" y="643" on="1"/>
        <pt x="201" y="621" on="0"/>
      </contour>
    </TTGlyph>
    <TTGlyph name="adieresis" xMin="39" yMin="-10" xMax="441" yMax="628">
      <contour>
        <pt x="330" y="104" on="1"/>
        <pt x="301" y="49" on="0"/>
        <pt x="217" y="-10" on="0"/>
        <pt x="172" y="-10" on="1"/>
        <pt x="113" y="-10" on="0"/>
        <pt x="39" y="81" on="0"/>
        <pt x="39" y="166" on="1"/>
        <pt x="39" y="292" on="0"/>
        <pt x="168" y="474" on="0"/>
        <pt x="262" y="474" on="1"/>
        <pt x="364" y="474" on="0"/>
        <pt x="441" y="417" on="1"/>
        <pt x="395" y="193" on="0"/>
        <pt x="395" y="99" on="1"/>
        <pt x="395" y="58" on="0"/>
        <pt x="427" y="36" on="1"/>
        <pt x="413" y="-10" on="0"/>
        <pt x="376" y="-10" on="1"/>
        <pt x="329" y="-10" on="0"/>
        <pt x="329" y="71" on="1"/>
        <pt x="329" y="93" on="0"/>
      </contour>
      <contour>
        <pt x="337" y="189" on="1"/>
        <pt x="350" y="279" on="0"/>
        <pt x="366" y="379" on="1"/>
        <pt x="315" y="424" on="0"/>
        <pt x="263" y="424" on="1"/>
        <pt x="200" y="424" on="0"/>
        <pt x="117" y="290" on="0"/>
        <pt x="117" y="183" on="1"/>
        <pt x="117" y="123" on="0"/>
        <pt x="156" y="40" on="0"/>
        <pt x="192" y="40" on="1"/>
        <pt x="225" y="40" on="0"/>
        <pt x="309" y="123" on="0"/>
      </contour>
      <contour>
        <pt x="204" y="521" on="1"/>
        <pt x="185" y="521" on="0"/>
        <pt x="161" y="547" on="0"/>
        <pt x="161" y="568" on="1"/>
        <pt x="161" y="593" on="0"/>
        <pt x="195" y="628" on="0"/>
        <pt x="217" y="628" on="1"/>
        <pt x="235" y="628" on="0"/>
        <pt x="260" y="600" on="0"/>
        <pt x="260" y="579" on="1"/>
        <pt x="260" y="555" on="0"/>
        <pt x="224" y="521" on="0"/>
      </contour>
      <contour>
        <pt x="371" y="521" on="1"/>
        <pt x="352" y="521" on="0"/>
        <pt x="328" y="547" on="0"/>
        <pt x="328" y="568" on="1"/>
        <pt x="328" y="593" on="0"/>
        <pt x="362" y="628" on="0"/>
        <pt x="384" y="628" on="1"/>
        <pt x="402" y="628" on="0"/>
        <pt x="427" y="600" on="0"/>
        <pt x="427" y="579" on="1"/>
        <pt x="427" y="555" on="0"/>
        <pt x="391" y="521" on="0"/>
      </contour>
    </TTGlyph>
    <TTGlyph name="ae" xMin="39" yMin="-10" xMax="678" yMax="474">
      <contour>
        <pt x="600" y="359" on="1"/>
        <pt x="600" y="387" on="0"/>
        <pt x="567" y="425" on="0"/>
        <pt x="537" y="425" on="1"/>
        <pt x="484" y="425" on="0"/>
        <pt x="403" y="314" on="0"/>
        <pt x="396" y="228" on="1"/>
        <pt x="424" y="228" on="0"/>
        <pt x="463" y="231" on="0"/>
        <pt x="528" y="246" on="0"/>
        <pt x="568" y="271" on="0"/>
        <pt x="600" y="323" on="0"/>
      </contour>
      <contour>
        <pt x="192" y="40" on="1"/>
        <pt x="219" y="40" on="0"/>
        <pt x="289" y="99" on="0"/>
        <pt x="317" y="149" on="1"/>
        <pt x="316" y="159" on="0"/>
        <pt x="316" y="180" on="1"/>
        <pt x="316" y="299" on="0"/>
        <pt x="376" y="379" on="1"/>
        <pt x="316" y="424" on="0"/>
        <pt x="263" y="424" on="1"/>
        <pt x="200" y="424" on="0"/>
        <pt x="117" y="290" on="0"/>
        <pt x="117" y="183" on="1"/>
        <pt x="117" y="123" on="0"/>
        <pt x="156" y="40" on="0"/>
      </contour>
      <contour>
        <pt x="607" y="102" on="1"/>
        <pt x="638" y="83" on="0"/>
        <pt x="638" y="60" on="1"/>
        <pt x="638" y="30" on="0"/>
        <pt x="554" y="-10" on="0"/>
        <pt x="499" y="-10" on="1"/>
        <pt x="366" y="-10" on="0"/>
        <pt x="328" y="104" on="1"/>
        <pt x="267" y="-10" on="0"/>
        <pt x="172" y="-10" on="1"/>
        <pt x="113" y="-10" on="0"/>
        <pt x="39" y="81" on="0"/>
        <pt x="39" y="166" on="1"/>
        <pt x="39" y="292" on="0"/>
        <pt x="168" y="474" on="0"/>
        <pt x="262" y="474" on="1"/>
        <pt x="350" y="474" on="0"/>
        <pt x="420" y="424" on="1"/>
        <pt x="479" y="474" on="0"/>
        <pt x="554" y="474" on="1"/>
        <pt x="614" y="474" on="0"/>
        <pt x="678" y="415" on="0"/>
        <pt x="678" y="370" on="1"/>
        <pt x="678" y="321" on="0"/>
        <pt x="638" y="249" on="0"/>
        <pt x="583" y="212" on="0"/>
        <pt x="507" y="190" on="0"/>
        <pt x="455" y="185" on="0"/>
        <pt x="428" y="185" on="1"/>
        <pt x="415" y="185" on="0"/>
        <pt x="395" y="187" on="1"/>
        <pt x="399" y="112" on="0"/>
        <pt x="457" y="40" on="0"/>
        <pt x="502" y="40" on="1"/>
        <pt x="567" y="40" on="0"/>
      </contour>
    </TTGlyph>
    <TTGlyph name="agrave" xMin="39" yMin="-10" xMax="441" yMax="701">
      <contour>
        <pt x="330" y="104" on="1"/>
        <pt x="301" y="49" on="0"/>
        <pt x="217" y="-10" on="0"/>
        <pt x="172" y="-10" on="1"/>
        <pt x="113" y="-10" on="0"/>
        <pt x="39" y="81" on="0"/>
        <pt x="39" y="166" on="1"/>
        <pt x="39" y="292" on="0"/>
        <pt x="168" y="474" on="0"/>
        <pt x="262" y="474" on="1"/>
        <pt x="364" y="474" on="0"/>
        <pt x="441" y="417" on="1"/>
        <pt x="395" y="193" on="0"/>
        <pt x="395" y="99" on="1"/>
        <pt x="395" y="58" on="0"/>
        <pt x="427" y="36" on="1"/>
        <pt x="413" y="-10" on="0"/>
        <pt x="376" y="-10" on="1"/>
        <pt x="329" y="-10" on="0"/>
        <pt x="329" y="71" on="1"/>
        <pt x="329" y="93" on="0"/>
      </contour>
      <contour>
        <pt x="337" y="189" on="1"/>
        <pt x="350" y="279" on="0"/>
        <pt x="366" y="379" on="1"/>
        <pt x="315" y="424" on="0"/>
        <pt x="263" y="424" on="1"/>
        <pt x="200" y="424" on="0"/>
        <pt x="117" y="290" on="0"/>
        <pt x="117" y="183" on="1"/>
        <pt x="117" y="123" on="0"/>
        <pt x="156" y="40" on="0"/>
        <pt x="192" y="40" on="1"/>
        <pt x="225" y="40" on="0"/>
        <pt x="309" y="123" on="0"/>
      </contour>
      <contour>
        <pt x="162" y="619" on="1"/>
        <pt x="137" y="635" on="0"/>
        <pt x="137" y="655" on="1"/>
        <pt x="137" y="682" on="0"/>
        <pt x="172" y="701" on="1"/>
        <pt x="184" y="686" on="0"/>
        <pt x="226" y="648" on="0"/>
        <pt x="262" y="620" on="0"/>
        <pt x="304" y="588" on="0"/>
        <pt x="308" y="585" on="1"/>
        <pt x="327" y="571" on="0"/>
        <pt x="327" y="557" on="1"/>
        <pt x="327" y="541" on="0"/>
        <pt x="311" y="525" on="1"/>
        <pt x="298" y="536" on="0"/>
        <pt x="186" y="603" on="0"/>
      </contour>
    </TTGlyph>
    <TTGlyph name="ampersand" xMin="39" yMin="-11" xMax="730" yMax="675">
      <contour>
        <pt x="415" y="235" on="1"/>
        <pt x="400" y="204" on="0"/>
        <pt x="346" y="204" on="0"/>
        <pt x="346" y="244" on="1"/>
        <pt x="346" y="291" on="0"/>
        <pt x="422" y="380" on="0"/>
        <pt x="476" y="380" on="1"/>
        <pt x="504" y="380" on="0"/>
        <pt x="612" y="350" on="0"/>
        <pt x="631" y="350" on="1"/>
        <pt x="673" y="350" on="0"/>
        <pt x="673" y="394" on="1"/>
        <pt x="673" y="418" on="0"/>
        <pt x="660" y="437" on="1"/>
        <pt x="674" y="467" on="0"/>
        <pt x="703" y="467" on="1"/>
        <pt x="730" y="467" on="0"/>
        <pt x="730" y="427" on="1"/>
        <pt x="730" y="382" on="0"/>
        <pt x="654" y="291" on="0"/>
        <pt x="601" y="291" on="1"/>
        <pt x="584" y="291" on="0"/>
        <pt x="565" y="295" on="1"/>
        <pt x="529" y="130" on="0"/>
        <pt x="375" y="-11" on="0"/>
        <pt x="257" y="-11" on="1"/>
        <pt x="157" y="-11" on="0"/>
        <pt x="39" y="101" on="0"/>
        <pt x="39" y="179" on="1"/>
        <pt x="39" y="238" on="0"/>
        <pt x="115" y="344" on="0"/>
        <pt x="188" y="375" on="1"/>
        <pt x="108" y="415" on="0"/>
        <pt x="108" y="492" on="1"/>
        <pt x="108" y="566" on="0"/>
        <pt x="227" y="675" on="0"/>
        <pt x="314" y="675" on="1"/>
        <pt x="371" y="675" on="0"/>
        <pt x="452" y="622" on="0"/>
        <pt x="452" y="590" on="1"/>
        <pt x="452" y="553" on="0"/>
        <pt x="406" y="547" on="1"/>
        <pt x="392" y="581" on="0"/>
        <pt x="338" y="616" on="0"/>
        <pt x="305" y="616" on="1"/>
        <pt x="254" y="616" on="0"/>
        <pt x="185" y="556" on="0"/>
        <pt x="185" y="507" on="1"/>
        <pt x="185" y="473" on="0"/>
        <pt x="237" y="418" on="0"/>
        <pt x="289" y="418" on="1"/>
        <pt x="301" y="418" on="0"/>
        <pt x="308" y="419" on="1"/>
        <pt x="310" y="405" on="0"/>
        <pt x="310" y="401" on="1"/>
        <pt x="310" y="393" on="0"/>
        <pt x="306" y="382" on="0"/>
        <pt x="303" y="375" on="0"/>
        <pt x="290" y="369" on="0"/>
        <pt x="287" y="368" on="0"/>
        <pt x="268" y="364" on="0"/>
        <pt x="267" y="364" on="1"/>
        <pt x="197" y="348" on="0"/>
        <pt x="121" y="252" on="0"/>
        <pt x="121" y="194" on="1"/>
        <pt x="121" y="134" on="0"/>
        <pt x="203" y="48" on="0"/>
        <pt x="275" y="48" on="1"/>
        <pt x="371" y="48" on="0"/>
        <pt x="481" y="167" on="0"/>
        <pt x="501" y="311" on="1"/>
        <pt x="464" y="322" on="0"/>
        <pt x="440" y="322" on="1"/>
        <pt x="421" y="322" on="0"/>
        <pt x="401" y="298" on="0"/>
        <pt x="401" y="278" on="1"/>
        <pt x="401" y="251" on="0"/>
      </contour>
    </TTGlyph>
    <TTGlyph name="ampersand_alt" xMin="60" yMin="-10" xMax="549" yMax="673">
      <contour>
        <pt x="375" y="552" on="1"/>
        <pt x="375" y="582" on="0"/>
        <pt x="342" y="621" on="0"/>
        <pt x="308" y="621" on="1"/>
        <pt x="260" y="621" on="0"/>
        <pt x="211" y="562" on="0"/>
        <pt x="211" y="470" on="0"/>
        <pt x="248" y="385" on="1"/>
        <pt x="310" y="425" on="0"/>
        <pt x="375" y="499" on="0"/>
      </contour>
      <contour>
        <pt x="212" y="296" on="1"/>
        <pt x="138" y="236" on="0"/>
        <pt x="138" y="161" on="1"/>
        <pt x="138" y="107" on="0"/>
        <pt x="204" y="46" on="0"/>
        <pt x="261" y="46" on="1"/>
        <pt x="313" y="46" on="0"/>
        <pt x="357" y="79" on="1"/>
        <pt x="280" y="167" on="0"/>
      </contour>
      <contour>
        <pt x="436" y="286" on="1"/>
        <pt x="460" y="298" on="0"/>
        <pt x="474" y="298" on="1"/>
        <pt x="510" y="298" on="0"/>
        <pt x="510" y="259" on="1"/>
        <pt x="510" y="174" on="0"/>
        <pt x="452" y="97" on="1"/>
        <pt x="502" y="56" on="0"/>
        <pt x="549" y="56" on="1"/>
        <pt x="549" y="45" on="0"/>
        <pt x="548" y="36" on="1"/>
        <pt x="545" y="17" on="0"/>
        <pt x="519" y="-10" on="0"/>
        <pt x="495" y="-10" on="1"/>
        <pt x="451" y="-10" on="0"/>
        <pt x="395" y="39" on="1"/>
        <pt x="330" y="-10" on="0"/>
        <pt x="240" y="-10" on="1"/>
        <pt x="165" y="-10" on="0"/>
        <pt x="60" y="71" on="0"/>
        <pt x="60" y="144" on="1"/>
        <pt x="60" y="212" on="0"/>
        <pt x="127" y="304" on="0"/>
        <pt x="187" y="345" on="1"/>
        <pt x="142" y="442" on="0"/>
        <pt x="142" y="497" on="1"/>
        <pt x="142" y="574" on="0"/>
        <pt x="248" y="673" on="0"/>
        <pt x="324" y="673" on="1"/>
        <pt x="383" y="673" on="0"/>
        <pt x="447" y="609" on="0"/>
        <pt x="447" y="562" on="1"/>
        <pt x="447" y="522" on="0"/>
        <pt x="417" y="454" on="0"/>
        <pt x="354" y="396" on="0"/>
        <pt x="309" y="364" on="0"/>
        <pt x="270" y="339" on="1"/>
        <pt x="330" y="219" on="0"/>
        <pt x="409" y="137" on="1"/>
        <pt x="439" y="189" on="0"/>
        <pt x="439" y="259" on="1"/>
        <pt x="439" y="278" on="0"/>
      </contour>
    </TTGlyph>
    <TTGlyph name="approxequal" xMin="36" yMin="74" xMax="539" yMax="414">
      <contour>
        <pt x="539" y="168" on="1"/>
        <pt x="539" y="139" on="0"/>
        <pt x="455" y="74" on="0"/>
        <pt x="405" y="74" on="1"/>
        <pt x="359" y="74" on="0"/>
        <pt x="270" y="113" on="0"/>
        <pt x="197" y="152" on="0"/>
        <pt x="170" y="152" on="1"/>
        <pt x="144" y="152" on="0"/>
        <pt x="100" y="130" on="0"/>
        <pt x="79" y="108" on="0"/>
        <pt x="64" y="89" on="1"/>
        <pt x="36" y="99" on="0"/>
        <pt x="36" y="121" on="1"/>
        <pt x="36" y="147" on="0"/>
        <pt x="119" y="214" on="0"/>
        <pt x="170" y="214" on="1"/>
        <pt x="215" y="214" on="0"/>
        <pt x="301" y="175" on="0"/>
        <pt x="375" y="136" on="0"/>
        <pt x="405" y="136" on="1"/>
        <pt x="431" y="136" on="0"/>
        <pt x="475" y="158" on="0"/>
        <pt x="496" y="180" on="0"/>
        <pt x="511" y="199" on="1"/>
        <pt x="539" y="190" on="0"/>
      </contour>
      <contour>
        <pt x="539" y="368" on="1"/>
        <pt x="539" y="339" on="0"/>
        <pt x="455" y="274" on="0"/>
        <pt x="405" y="274" on="1"/>
        <pt x="359" y="274" on="0"/>
        <pt x="270" y="313" on="0"/>
        <pt x="197" y="352" on="0"/>
        <pt x="170" y="352" on="1"/>
        <pt x="144" y="352" on="0"/>
        <pt x="100" y="330" on="0"/>
        <pt x="79" y="308" on="0"/>
        <pt x="64" y="289" on="1"/>
        <pt x="36" y="299" on="0"/>
        <pt x="36" y="321" on="1"/>
        <pt x="36" y="347" on="0"/>
        <pt x="119" y="414" on="0"/>
        <pt x="170" y="414" on="1"/>
        <pt x="215" y="414" on="0"/>
        <pt x="301" y="375" on="0"/>
        <pt x="375" y="336" on="0"/>
        <pt x="405" y="336" on="1"/>
        <pt x="431" y="336" on="0"/>
        <pt x="475" y="358" on="0"/>
        <pt x="496" y="380" on="0"/>
        <pt x="511" y="399" on="1"/>
        <pt x="539" y="390" on="0"/>
      </contour>
    </TTGlyph>
    <TTGlyph name="aring" xMin="39" yMin="-10" xMax="441" yMax="698">
      <contour>
        <pt x="299" y="520" on="1"/>
        <pt x="264" y="520" on="0"/>
        <pt x="224" y="560" on="0"/>
        <pt x="224" y="595" on="1"/>
        <pt x="224" y="639" on="0"/>
        <pt x="281" y="698" on="0"/>
        <pt x="322" y="698" on="1"/>
        <pt x="356" y="698" on="0"/>
        <pt x="396" y="658" on="0"/>
        <pt x="396" y="623" on="1"/>
        <pt x="396" y="579" on="0"/>
        <pt x="340" y="520" on="0"/>
      </contour>
      <contour>
        <pt x="318" y="665" on="1"/>
        <pt x="293" y="665" on="0"/>
        <pt x="266" y="628" on="0"/>
        <pt x="266" y="599" on="1"/>
        <pt x="266" y="578" on="0"/>
        <pt x="285" y="553" on="0"/>
        <pt x="303" y="553" on="1"/>
        <pt x="327" y="553" on="0"/>
        <pt x="353" y="590" on="0"/>
        <pt x="353" y="618" on="1"/>
        <pt x="353" y="639" on="0"/>
        <pt x="334" y="665" on="0"/>
      </contour>
      <contour>
        <pt x="330" y="104" on="1"/>
        <pt x="301" y="49" on="0"/>
        <pt x="217" y="-10" on="0"/>
        <pt x="172" y="-10" on="1"/>
        <pt x="113" y="-10" on="0"/>
        <pt x="39" y="81" on="0"/>
        <pt x="39" y="166" on="1"/>
        <pt x="39" y="292" on="0"/>
        <pt x="168" y="474" on="0"/>
        <pt x="262" y="474" on="1"/>
        <pt x="364" y="474" on="0"/>
        <pt x="441" y="417" on="1"/>
        <pt x="395" y="193" on="0"/>
        <pt x="395" y="99" on="1"/>
        <pt x="395" y="58" on="0"/>
        <pt x="427" y="36" on="1"/>
        <pt x="413" y="-10" on="0"/>
        <pt x="376" y="-10" on="1"/>
        <pt x="329" y="-10" on="0"/>
        <pt x="329" y="71" on="1"/>
        <pt x="329" y="93" on="0"/>
      </contour>
      <contour>
        <pt x="337" y="189" on="1"/>
        <pt x="350" y="279" on="0"/>
        <pt x="366" y="379" on="1"/>
        <pt x="315" y="424" on="0"/>
        <pt x="263" y="424" on="1"/>
        <pt x="200" y="424" on="0"/>
        <pt x="117" y="290" on="0"/>
        <pt x="117" y="183" on="1"/>
        <pt x="117" y="123" on="0"/>
        <pt x="156" y="40" on="0"/>
        <pt x="192" y="40" on="1"/>
        <pt x="225" y="40" on="0"/>
        <pt x="309" y="123" on="0"/>
      </contour>
    </TTGlyph>
    <TTGlyph name="asciicircum" xMin="25" yMin="417" xMax="445" yMax="675">
      <contour>
        <pt x="236" y="582" on="1"/>
        <pt x="82" y="417" on="0"/>
        <pt x="52" y="417" on="1"/>
        <pt x="41" y="417" on="0"/>
        <pt x="25" y="433" on="1"/>
        <pt x="48" y="472" on="0"/>
        <pt x="191" y="632" on="0"/>
        <pt x="235" y="675" on="1"/>
        <pt x="279" y="632" on="0"/>
        <pt x="422" y="472" on="0"/>
        <pt x="445" y="433" on="1"/>
        <pt x="429" y="417" on="0"/>
        <pt x="419" y="417" on="1"/>
        <pt x="413" y="417" on="0"/>
        <pt x="391" y="430" on="0"/>
        <pt x="362" y="455" on="0"/>
        <pt x="334" y="480" on="0"/>
        <pt x="298" y="517" on="0"/>
        <pt x="275" y="541" on="0"/>
        <pt x="241" y="577" on="0"/>
      </contour>
    </TTGlyph>
    <TTGlyph name="asciitilde" xMin="40" yMin="213" xMax="506" yMax="329">
      <contour>
        <pt x="40" y="267" on="1"/>
        <pt x="40" y="329" on="0"/>
        <pt x="138" y="329" on="1"/>
        <pt x="189" y="329" on="0"/>
        <pt x="348" y="289" on="0"/>
        <pt x="385" y="289" on="1"/>
        <pt x="451" y="289" on="0"/>
        <pt x="487" y="324" on="1"/>
        <pt x="506" y="299" on="0"/>
        <pt x="506" y="275" on="1"/>
        <pt x="506" y="243" on="0"/>
        <pt x="434" y="213" on="0"/>
        <pt x="385" y="213" on="1"/>
        <pt x="354" y="213" on="0"/>
        <pt x="202" y="253" on="0"/>
        <pt x="161" y="253" on="1"/>
        <pt x="95" y="253" on="0"/>
        <pt x="59" y="218" on="1"/>
        <pt x="40" y="243" on="0"/>
      </contour>
    </TTGlyph>
    <TTGlyph name="asterisk" xMin="100" yMin="405" xMax="430" yMax="743">
      <contour>
        <pt x="247" y="738" on="1"/>
        <pt x="264" y="743" on="0"/>
        <pt x="280" y="743" on="1"/>
        <pt x="321" y="743" on="0"/>
        <pt x="321" y="711" on="1"/>
        <pt x="321" y="696" on="0"/>
        <pt x="299" y="610" on="1"/>
        <pt x="339" y="633" on="0"/>
        <pt x="408" y="679" on="1"/>
        <pt x="430" y="657" on="0"/>
        <pt x="430" y="631" on="1"/>
        <pt x="430" y="619" on="0"/>
        <pt x="418" y="600" on="0"/>
        <pt x="388" y="583" on="0"/>
        <pt x="367" y="574" on="0"/>
        <pt x="317" y="556" on="0"/>
        <pt x="306" y="552" on="1"/>
        <pt x="339" y="511" on="0"/>
        <pt x="392" y="458" on="1"/>
        <pt x="363" y="417" on="0"/>
        <pt x="332" y="417" on="1"/>
        <pt x="326" y="417" on="0"/>
        <pt x="315" y="422" on="0"/>
        <pt x="304" y="433" on="0"/>
        <pt x="295" y="445" on="0"/>
        <pt x="283" y="466" on="0"/>
        <pt x="275" y="482" on="0"/>
        <pt x="260" y="510" on="0"/>
        <pt x="255" y="520" on="1"/>
        <pt x="216" y="475" on="0"/>
        <pt x="163" y="405" on="1"/>
        <pt x="119" y="422" on="0"/>
        <pt x="119" y="453" on="1"/>
        <pt x="119" y="476" on="0"/>
        <pt x="214" y="555" on="1"/>
        <pt x="158" y="582" on="0"/>
        <pt x="100" y="602" on="1"/>
        <pt x="107" y="625" on="0"/>
        <pt x="137" y="662" on="0"/>
        <pt x="156" y="662" on="1"/>
        <pt x="172" y="662" on="0"/>
        <pt x="241" y="613" on="1"/>
        <pt x="246" y="681" on="0"/>
      </contour>
    </TTGlyph>
    <TTGlyph name="at" xMin="90" yMin="-109" xMax="766" yMax="590">
      <contour>
        <pt x="336" y="54" on="1"/>
        <pt x="295" y="54" on="0"/>
        <pt x="246" y="110" on="0"/>
        <pt x="246" y="164" on="1"/>
        <pt x="246" y="268" on="0"/>
        <pt x="375" y="443" on="0"/>
        <pt x="457" y="443" on="1"/>
        <pt x="543" y="443" on="0"/>
        <pt x="597" y="397" on="1"/>
        <pt x="532" y="219" on="0"/>
        <pt x="532" y="156" on="1"/>
        <pt x="532" y="117" on="0"/>
        <pt x="561" y="117" on="1"/>
        <pt x="607" y="117" on="0"/>
        <pt x="692" y="262" on="0"/>
        <pt x="692" y="359" on="1"/>
        <pt x="692" y="534" on="0"/>
        <pt x="507" y="534" on="1"/>
        <pt x="413" y="534" on="0"/>
        <pt x="248" y="409" on="0"/>
        <pt x="158" y="228" on="0"/>
        <pt x="158" y="140" on="1"/>
        <pt x="158" y="57" on="0"/>
        <pt x="253" y="-48" on="0"/>
        <pt x="348" y="-48" on="1"/>
        <pt x="400" y="-48" on="0"/>
        <pt x="490" y="-4" on="0"/>
        <pt x="511" y="32" on="1"/>
        <pt x="549" y="17" on="0"/>
        <pt x="549" y="-11" on="1"/>
        <pt x="549" y="-52" on="0"/>
        <pt x="422" y="-109" on="0"/>
        <pt x="342" y="-109" on="1"/>
        <pt x="217" y="-109" on="0"/>
        <pt x="90" y="26" on="0"/>
        <pt x="90" y="132" on="1"/>
        <pt x="90" y="210" on="0"/>
        <pt x="157" y="373" on="0"/>
        <pt x="271" y="505" on="0"/>
        <pt x="438" y="590" on="0"/>
        <pt x="530" y="590" on="1"/>
        <pt x="641" y="590" on="0"/>
        <pt x="766" y="471" on="0"/>
        <pt x="766" y="376" on="1"/>
        <pt x="766" y="300" on="0"/>
        <pt x="688" y="154" on="0"/>
        <pt x="580" y="69" on="0"/>
        <pt x="535" y="69" on="1"/>
        <pt x="507" y="69" on="0"/>
        <pt x="471" y="108" on="0"/>
        <pt x="467" y="146" on="1"/>
        <pt x="405" y="54" on="0"/>
      </contour>
      <contour>
        <pt x="468" y="204" on="1"/>
        <pt x="476" y="233" on="0"/>
        <pt x="507" y="360" on="0"/>
        <pt x="508" y="363" on="1"/>
        <pt x="479" y="391" on="0"/>
        <pt x="446" y="391" on="1"/>
        <pt x="395" y="391" on="0"/>
        <pt x="319" y="266" on="0"/>
        <pt x="319" y="186" on="1"/>
        <pt x="319" y="115" on="0"/>
        <pt x="361" y="115" on="1"/>
        <pt x="385" y="115" on="0"/>
        <pt x="444" y="161" on="0"/>
      </contour>
    </TTGlyph>
    <TTGlyph name="atilde" xMin="39" yMin="-10" xMax="441" yMax="634">
      <contour>
        <pt x="330" y="104" on="1"/>
        <pt x="301" y="49" on="0"/>
        <pt x="217" y="-10" on="0"/>
        <pt x="172" y="-10" on="1"/>
        <pt x="113" y="-10" on="0"/>
        <pt x="39" y="81" on="0"/>
        <pt x="39" y="166" on="1"/>
        <pt x="39" y="292" on="0"/>
        <pt x="168" y="474" on="0"/>
        <pt x="262" y="474" on="1"/>
        <pt x="364" y="474" on="0"/>
        <pt x="441" y="417" on="1"/>
        <pt x="395" y="193" on="0"/>
        <pt x="395" y="99" on="1"/>
        <pt x="395" y="58" on="0"/>
        <pt x="427" y="36" on="1"/>
        <pt x="413" y="-10" on="0"/>
        <pt x="376" y="-10" on="1"/>
        <pt x="329" y="-10" on="0"/>
        <pt x="329" y="71" on="1"/>
        <pt x="329" y="93" on="0"/>
      </contour>
      <contour>
        <pt x="337" y="189" on="1"/>
        <pt x="350" y="279" on="0"/>
        <pt x="366" y="379" on="1"/>
        <pt x="315" y="424" on="0"/>
        <pt x="263" y="424" on="1"/>
        <pt x="200" y="424" on="0"/>
        <pt x="117" y="290" on="0"/>
        <pt x="117" y="183" on="1"/>
        <pt x="117" y="123" on="0"/>
        <pt x="156" y="40" on="0"/>
        <pt x="192" y="40" on="1"/>
        <pt x="225" y="40" on="0"/>
        <pt x="309" y="123" on="0"/>
      </contour>
      <contour>
        <pt x="359" y="589" on="1"/>
        <pt x="370" y="589" on="0"/>
        <pt x="409" y="615" on="0"/>
        <pt x="424" y="631" on="1"/>
        <pt x="437" y="626" on="0"/>
        <pt x="437" y="614" on="1"/>
        <pt x="437" y="586" on="0"/>
        <pt x="365" y="530" on="0"/>
        <pt x="329" y="530" on="1"/>
        <pt x="308" y="530" on="0"/>
        <pt x="240" y="575" on="0"/>
        <pt x="222" y="575" on="1"/>
        <pt x="203" y="575" on="0"/>
        <pt x="157" y="533" on="1"/>
        <pt x="144" y="540" on="0"/>
        <pt x="144" y="550" on="1"/>
        <pt x="144" y="578" on="0"/>
        <pt x="216" y="634" on="0"/>
        <pt x="253" y="634" on="1"/>
        <pt x="271" y="634" on="0"/>
        <pt x="342" y="589" on="0"/>
      </contour>
    </TTGlyph>
    <TTGlyph name="b" xMin="43" yMin="-10" xMax="445" yMax="742">
      <contour>
        <pt x="43" y="46" on="1"/>
        <pt x="64" y="164" on="0"/>
        <pt x="124" y="591" on="0"/>
        <pt x="124" y="637" on="1"/>
        <pt x="124" y="686" on="0"/>
        <pt x="103" y="691" on="1"/>
        <pt x="105" y="706" on="0"/>
        <pt x="136" y="742" on="0"/>
        <pt x="155" y="742" on="1"/>
        <pt x="199" y="742" on="0"/>
        <pt x="199" y="676" on="1"/>
        <pt x="199" y="608" on="0"/>
        <pt x="164" y="389" on="1"/>
        <pt x="190" y="429" on="0"/>
        <pt x="267" y="474" on="0"/>
        <pt x="304" y="474" on="1"/>
        <pt x="366" y="474" on="0"/>
        <pt x="445" y="377" on="0"/>
        <pt x="445" y="290" on="1"/>
        <pt x="445" y="170" on="0"/>
        <pt x="317" y="-10" on="0"/>
        <pt x="211" y="-10" on="1"/>
        <pt x="124" y="-10" on="0"/>
      </contour>
      <contour>
        <pt x="150" y="294" on="1"/>
        <pt x="150" y="290" on="0"/>
        <pt x="118" y="84" on="1"/>
        <pt x="166" y="39" on="0"/>
        <pt x="217" y="39" on="1"/>
        <pt x="279" y="39" on="0"/>
        <pt x="367" y="163" on="0"/>
        <pt x="367" y="271" on="1"/>
        <pt x="367" y="332" on="0"/>
        <pt x="322" y="424" on="0"/>
        <pt x="284" y="424" on="1"/>
        <pt x="254" y="424" on="0"/>
        <pt x="178" y="352" on="0"/>
      </contour>
    </TTGlyph>
    <TTGlyph name="backslash" xMin="35" yMin="-122" xMax="216" yMax="742">
      <contour>
        <pt x="129" y="113" on="1"/>
        <pt x="35" y="700" on="0"/>
        <pt x="35" y="715" on="1"/>
        <pt x="35" y="742" on="0"/>
        <pt x="71" y="742" on="1"/>
        <pt x="83" y="742" on="0"/>
        <pt x="92" y="739" on="1"/>
        <pt x="100" y="653" on="0"/>
        <pt x="122" y="507" on="1"/>
        <pt x="171" y="194" on="1"/>
        <pt x="216" y="-87" on="0"/>
        <pt x="216" y="-94" on="1"/>
        <pt x="216" y="-122" on="0"/>
        <pt x="183" y="-122" on="1"/>
        <pt x="172" y="-122" on="0"/>
        <pt x="159" y="-119" on="1"/>
        <pt x="151" y="-33" on="0"/>
      </contour>
    </TTGlyph>
    <TTGlyph name="bar" xMin="249" yMin="-249" xMax="326" yMax="736">
      <contour>
        <pt x="257" y="136" on="1"/>
        <pt x="257" y="444" on="1"/>
        <pt x="257" y="680" on="0"/>
        <pt x="249" y="733" on="1"/>
        <pt x="265" y="736" on="0"/>
        <pt x="279" y="736" on="1"/>
        <pt x="325" y="736" on="0"/>
        <pt x="325" y="698" on="1"/>
        <pt x="325" y="694" on="0"/>
        <pt x="322" y="595" on="0"/>
        <pt x="318" y="432" on="0"/>
        <pt x="318" y="351" on="1"/>
        <pt x="318" y="43" on="1"/>
        <pt x="318" y="-193" on="0"/>
        <pt x="326" y="-246" on="1"/>
        <pt x="310" y="-249" on="0"/>
        <pt x="296" y="-249" on="1"/>
        <pt x="250" y="-249" on="0"/>
        <pt x="250" y="-211" on="1"/>
        <pt x="250" y="-207" on="0"/>
        <pt x="254" y="-108" on="0"/>
        <pt x="257" y="55" on="0"/>
      </contour>
    </TTGlyph>
    <TTGlyph name="braceleft" xMin="66" yMin="-142" xMax="432" yMax="715">
      <contour>
        <pt x="181" y="286" on="1"/>
        <pt x="202" y="278" on="0"/>
        <pt x="235" y="223" on="0"/>
        <pt x="235" y="193" on="1"/>
        <pt x="235" y="179" on="0"/>
        <pt x="204" y="-36" on="0"/>
        <pt x="204" y="-48" on="1"/>
        <pt x="204" y="-67" on="0"/>
        <pt x="233" y="-83" on="0"/>
        <pt x="274" y="-83" on="1"/>
        <pt x="319" y="-83" on="0"/>
        <pt x="319" y="-110" on="1"/>
        <pt x="319" y="-125" on="0"/>
        <pt x="310" y="-141" on="1"/>
        <pt x="297" y="-142" on="0"/>
        <pt x="274" y="-142" on="1"/>
        <pt x="198" y="-142" on="0"/>
        <pt x="138" y="-102" on="0"/>
        <pt x="138" y="-59" on="1"/>
        <pt x="138" y="-39" on="0"/>
        <pt x="169" y="182" on="0"/>
        <pt x="169" y="186" on="1"/>
        <pt x="169" y="215" on="0"/>
        <pt x="118" y="261" on="0"/>
        <pt x="66" y="261" on="1"/>
        <pt x="73" y="311" on="1"/>
        <pt x="129" y="311" on="0"/>
        <pt x="194" y="365" on="0"/>
        <pt x="199" y="395" on="1"/>
        <pt x="199" y="394" on="0"/>
        <pt x="212" y="488" on="0"/>
        <pt x="228" y="596" on="0"/>
        <pt x="229" y="604" on="1"/>
        <pt x="237" y="662" on="0"/>
        <pt x="308" y="715" on="0"/>
        <pt x="395" y="715" on="1"/>
        <pt x="418" y="715" on="0"/>
        <pt x="431" y="714" on="1"/>
        <pt x="432" y="711" on="0"/>
        <pt x="432" y="705" on="1"/>
        <pt x="432" y="656" on="0"/>
        <pt x="384" y="656" on="1"/>
        <pt x="330" y="656" on="0"/>
        <pt x="297" y="631" on="0"/>
        <pt x="293" y="592" on="1"/>
        <pt x="264" y="393" on="1"/>
        <pt x="260" y="361" on="0"/>
        <pt x="207" y="295" on="0"/>
      </contour>
    </TTGlyph>
    <TTGlyph name="braceright" xMin="-15" yMin="-142" xMax="350" yMax="715">
      <contour>
        <pt x="234" y="286" on="1"/>
        <pt x="213" y="294" on="0"/>
        <pt x="180" y="352" on="0"/>
        <pt x="180" y="381" on="1"/>
        <pt x="180" y="385" on="0"/>
        <pt x="211" y="607" on="0"/>
        <pt x="211" y="621" on="1"/>
        <pt x="211" y="640" on="0"/>
        <pt x="182" y="656" on="0"/>
        <pt x="141" y="656" on="1"/>
        <pt x="97" y="656" on="0"/>
        <pt x="97" y="683" on="1"/>
        <pt x="97" y="698" on="0"/>
        <pt x="106" y="714" on="1"/>
        <pt x="119" y="715" on="0"/>
        <pt x="142" y="715" on="1"/>
        <pt x="218" y="715" on="0"/>
        <pt x="278" y="675" on="0"/>
        <pt x="278" y="632" on="1"/>
        <pt x="278" y="616" on="0"/>
        <pt x="247" y="394" on="0"/>
        <pt x="247" y="387" on="1"/>
        <pt x="247" y="358" on="0"/>
        <pt x="298" y="311" on="0"/>
        <pt x="350" y="311" on="1"/>
        <pt x="343" y="261" on="1"/>
        <pt x="287" y="261" on="0"/>
        <pt x="222" y="208" on="0"/>
        <pt x="217" y="178" on="1"/>
        <pt x="217" y="179" on="0"/>
        <pt x="203" y="84" on="0"/>
        <pt x="189" y="-20" on="0"/>
        <pt x="187" y="-31" on="1"/>
        <pt x="179" y="-89" on="0"/>
        <pt x="108" y="-142" on="0"/>
        <pt x="21" y="-142" on="1"/>
        <pt x="-1" y="-142" on="0"/>
        <pt x="-14" y="-141" on="1"/>
        <pt x="-15" y="-138" on="0"/>
        <pt x="-15" y="-131" on="1"/>
        <pt x="-15" y="-104" on="0"/>
        <pt x="9" y="-83" on="0"/>
        <pt x="37" y="-83" on="1"/>
        <pt x="89" y="-83" on="0"/>
        <pt x="117" y="-58" on="0"/>
        <pt x="122" y="-19" on="1"/>
        <pt x="151" y="180" on="1"/>
        <pt x="156" y="211" on="0"/>
        <pt x="209" y="277" on="0"/>
      </contour>
    </TTGlyph>
    <TTGlyph name="bracketleft" xMin="86" yMin="-190" xMax="401" yMax="720">
      <contour>
        <pt x="272" y="664" on="1"/>
        <pt x="159" y="-134" on="1"/>
        <pt x="198" y="-132" on="0"/>
        <pt x="240" y="-132" on="1"/>
        <pt x="280" y="-132" on="0"/>
        <pt x="280" y="-159" on="1"/>
        <pt x="280" y="-172" on="0"/>
        <pt x="272" y="-190" on="1"/>
        <pt x="86" y="-190" on="1"/>
        <pt x="213" y="720" on="1"/>
        <pt x="399" y="720" on="1"/>
        <pt x="401" y="710" on="0"/>
        <pt x="401" y="704" on="1"/>
        <pt x="401" y="662" on="0"/>
        <pt x="353" y="662" on="1"/>
        <pt x="308" y="662" on="0"/>
      </contour>
    </TTGlyph>
    <TTGlyph name="bracketright" xMin="-20" yMin="-190" xMax="293" yMax="720">
      <contour>
        <pt x="107" y="-134" on="1"/>
        <pt x="220" y="664" on="1"/>
        <pt x="182" y="662" on="0"/>
        <pt x="139" y="662" on="1"/>
        <pt x="99" y="662" on="0"/>
        <pt x="99" y="689" on="1"/>
        <pt x="99" y="702" on="0"/>
        <pt x="107" y="720" on="1"/>
        <pt x="293" y="720" on="1"/>
        <pt x="166" y="-190" on="1"/>
        <pt x="-19" y="-190" on="1"/>
        <pt x="-20" y="-184" on="0"/>
        <pt x="-20" y="-174" on="1"/>
        <pt x="-20" y="-132" on="0"/>
        <pt x="28" y="-132" on="1"/>
        <pt x="70" y="-132" on="0"/>
      </contour>
    </TTGlyph>
    <TTGlyph name="breve" xMin="125" yMin="534" xMax="386" yMax="687">
      <contour>
        <pt x="208" y="599" on="0"/>
        <pt x="288" y="599" on="0"/>
        <pt x="334" y="641" on="0"/>
        <pt x="353" y="687" on="1"/>
        <pt x="386" y="684" on="0"/>
        <pt x="386" y="662" on="1"/>
        <pt x="386" y="623" on="0"/>
        <pt x="299" y="534" on="0"/>
        <pt x="240" y="534" on="1"/>
        <pt x="187" y="534" on="0"/>
        <pt x="125" y="607" on="0"/>
        <pt x="125" y="647" on="1"/>
        <pt x="125" y="683" on="0"/>
        <pt x="167" y="687" on="1"/>
        <pt x="173" y="642" on="0"/>
      </contour>
    </TTGlyph>
    <TTGlyph name="brokenbar" xMin="249" yMin="-249" xMax="326" yMax="737">
      <contour>
        <pt x="257" y="534" on="1"/>
        <pt x="257" y="564" on="1"/>
        <pt x="257" y="681" on="0"/>
        <pt x="249" y="734" on="1"/>
        <pt x="265" y="737" on="0"/>
        <pt x="279" y="737" on="1"/>
        <pt x="325" y="737" on="0"/>
        <pt x="325" y="699" on="1"/>
        <pt x="325" y="694" on="0"/>
        <pt x="318" y="560" on="0"/>
        <pt x="318" y="528" on="1"/>
        <pt x="318" y="489" on="1"/>
        <pt x="318" y="369" on="0"/>
        <pt x="326" y="297" on="1"/>
        <pt x="310" y="294" on="0"/>
        <pt x="296" y="294" on="1"/>
        <pt x="250" y="294" on="0"/>
        <pt x="250" y="332" on="1"/>
        <pt x="250" y="337" on="0"/>
        <pt x="257" y="501" on="0"/>
      </contour>
      <contour>
        <pt x="257" y="-9" on="1"/>
        <pt x="257" y="22" on="1"/>
        <pt x="257" y="139" on="0"/>
        <pt x="249" y="192" on="1"/>
        <pt x="265" y="195" on="0"/>
        <pt x="279" y="195" on="1"/>
        <pt x="325" y="195" on="0"/>
        <pt x="325" y="157" on="1"/>
        <pt x="325" y="152" on="0"/>
        <pt x="318" y="19" on="0"/>
        <pt x="318" y="-14" on="1"/>
        <pt x="318" y="-54" on="1"/>
        <pt x="318" y="-174" on="0"/>
        <pt x="326" y="-246" on="1"/>
        <pt x="310" y="-249" on="0"/>
        <pt x="296" y="-249" on="1"/>
        <pt x="250" y="-249" on="0"/>
        <pt x="250" y="-211" on="1"/>
        <pt x="250" y="-206" on="0"/>
        <pt x="257" y="-42" on="0"/>
      </contour>
    </TTGlyph>
    <TTGlyph name="bullet" xMin="40" yMin="155" xMax="246" yMax="383">
      <contour>
        <pt x="129" y="155" on="1"/>
        <pt x="90" y="155" on="0"/>
        <pt x="40" y="208" on="0"/>
        <pt x="40" y="250" on="1"/>
        <pt x="40" y="302" on="0"/>
        <pt x="111" y="383" on="0"/>
        <pt x="160" y="383" on="1"/>
        <pt x="197" y="383" on="0"/>
        <pt x="246" y="328" on="0"/>
        <pt x="246" y="286" on="1"/>
        <pt x="246" y="232" on="0"/>
        <pt x="176" y="155" on="0"/>
      </contour>
    </TTGlyph>
    <TTGlyph name="c" xMin="39" yMin="-10" xMax="403" yMax="474">
      <contour>
        <pt x="355" y="354" on="1"/>
        <pt x="346" y="387" on="0"/>
        <pt x="290" y="419" on="0"/>
        <pt x="263" y="419" on="1"/>
        <pt x="197" y="419" on="0"/>
        <pt x="118" y="287" on="0"/>
        <pt x="118" y="195" on="1"/>
        <pt x="118" y="117" on="0"/>
        <pt x="179" y="40" on="0"/>
        <pt x="225" y="40" on="1"/>
        <pt x="290" y="40" on="0"/>
        <pt x="330" y="102" on="1"/>
        <pt x="361" y="83" on="0"/>
        <pt x="361" y="60" on="1"/>
        <pt x="361" y="30" on="0"/>
        <pt x="277" y="-10" on="0"/>
        <pt x="222" y="-10" on="1"/>
        <pt x="134" y="-10" on="0"/>
        <pt x="39" y="88" on="0"/>
        <pt x="39" y="180" on="1"/>
        <pt x="39" y="319" on="0"/>
        <pt x="187" y="474" on="0"/>
        <pt x="280" y="474" on="1"/>
        <pt x="324" y="474" on="0"/>
        <pt x="403" y="438" on="0"/>
        <pt x="403" y="403" on="1"/>
        <pt x="403" y="362" on="0"/>
      </contour>
    </TTGlyph>
    <TTGlyph name="caron" xMin="120" yMin="519" xMax="377" yMax="679">
      <contour>
        <pt x="226" y="519" on="1"/>
        <pt x="120" y="597" on="0"/>
        <pt x="120" y="646" on="1"/>
        <pt x="120" y="669" on="0"/>
        <pt x="147" y="679" on="1"/>
        <pt x="161" y="655" on="0"/>
        <pt x="207" y="610" on="0"/>
        <pt x="222" y="600" on="1"/>
        <pt x="238" y="590" on="1"/>
        <pt x="245" y="595" on="0"/>
        <pt x="285" y="628" on="0"/>
        <pt x="304" y="642" on="0"/>
        <pt x="333" y="662" on="0"/>
        <pt x="350" y="671" on="0"/>
        <pt x="355" y="671" on="1"/>
        <pt x="367" y="671" on="0"/>
        <pt x="377" y="653" on="1"/>
        <pt x="302" y="573" on="0"/>
      </contour>
    </TTGlyph>
    <TTGlyph name="ccedilla" xMin="39" yMin="-232" xMax="403" yMax="474">
      <contour>
        <pt x="355" y="354" on="1"/>
        <pt x="346" y="387" on="0"/>
        <pt x="290" y="419" on="0"/>
        <pt x="263" y="419" on="1"/>
        <pt x="197" y="419" on="0"/>
        <pt x="118" y="287" on="0"/>
        <pt x="118" y="195" on="1"/>
        <pt x="118" y="117" on="0"/>
        <pt x="179" y="40" on="0"/>
        <pt x="225" y="40" on="1"/>
        <pt x="290" y="40" on="0"/>
        <pt x="330" y="102" on="1"/>
        <pt x="361" y="83" on="0"/>
        <pt x="361" y="60" on="1"/>
        <pt x="361" y="30" on="0"/>
        <pt x="276" y="-10" on="0"/>
        <pt x="219" y="-10" on="1"/>
        <pt x="212" y="-29" on="0"/>
        <pt x="212" y="-33" on="1"/>
        <pt x="212" y="-44" on="0"/>
        <pt x="234" y="-60" on="1"/>
        <pt x="272" y="-83" on="0"/>
        <pt x="272" y="-122" on="1"/>
        <pt x="272" y="-164" on="0"/>
        <pt x="194" y="-232" on="0"/>
        <pt x="141" y="-232" on="1"/>
        <pt x="110" y="-232" on="0"/>
        <pt x="110" y="-209" on="1"/>
        <pt x="110" y="-195" on="0"/>
        <pt x="129" y="-178" on="1"/>
        <pt x="142" y="-187" on="0"/>
        <pt x="156" y="-187" on="1"/>
        <pt x="181" y="-187" on="0"/>
        <pt x="218" y="-163" on="0"/>
        <pt x="218" y="-142" on="1"/>
        <pt x="218" y="-122" on="0"/>
        <pt x="161" y="-76" on="0"/>
        <pt x="161" y="-59" on="1"/>
        <pt x="161" y="-40" on="0"/>
        <pt x="178" y="-6" on="1"/>
        <pt x="110" y="5" on="0"/>
        <pt x="39" y="100" on="0"/>
        <pt x="39" y="180" on="1"/>
        <pt x="39" y="319" on="0"/>
        <pt x="187" y="474" on="0"/>
        <pt x="280" y="474" on="1"/>
        <pt x="324" y="474" on="0"/>
        <pt x="403" y="438" on="0"/>
        <pt x="403" y="403" on="1"/>
        <pt x="403" y="362" on="0"/>
      </contour>
    </TTGlyph>
    <TTGlyph name="cedilla" xMin="51" yMin="-232" xMax="213" yMax="32">
      <contour>
        <pt x="142" y="32" on="1"/>
        <pt x="179" y="27" on="1"/>
        <pt x="178" y="24" on="0"/>
        <pt x="162" y="-6" on="0"/>
        <pt x="153" y="-28" on="0"/>
        <pt x="153" y="-33" on="1"/>
        <pt x="153" y="-44" on="0"/>
        <pt x="175" y="-60" on="1"/>
        <pt x="213" y="-83" on="0"/>
        <pt x="213" y="-122" on="1"/>
        <pt x="213" y="-164" on="0"/>
        <pt x="136" y="-232" on="0"/>
        <pt x="82" y="-232" on="1"/>
        <pt x="51" y="-232" on="0"/>
        <pt x="51" y="-209" on="1"/>
        <pt x="51" y="-195" on="0"/>
        <pt x="70" y="-178" on="1"/>
        <pt x="83" y="-187" on="0"/>
        <pt x="97" y="-187" on="1"/>
        <pt x="122" y="-187" on="0"/>
        <pt x="159" y="-163" on="0"/>
        <pt x="159" y="-142" on="1"/>
        <pt x="159" y="-122" on="0"/>
        <pt x="102" y="-76" on="0"/>
        <pt x="102" y="-59" on="1"/>
        <pt x="102" y="-29" on="0"/>
      </contour>
    </TTGlyph>
    <TTGlyph name="cent" xMin="85" yMin="-16" xMax="523" yMax="684">
      <contour>
        <pt x="156" y="288" on="1"/>
        <pt x="156" y="224" on="0"/>
        <pt x="217" y="146" on="0"/>
        <pt x="265" y="132" on="1"/>
        <pt x="320" y="518" on="1"/>
        <pt x="251" y="500" on="0"/>
        <pt x="156" y="379" on="0"/>
      </contour>
      <contour>
        <pt x="356" y="684" on="1"/>
        <pt x="380" y="684" on="0"/>
        <pt x="380" y="664" on="1"/>
        <pt x="380" y="662" on="0"/>
        <pt x="377" y="641" on="0"/>
        <pt x="370" y="597" on="0"/>
        <pt x="368" y="581" on="1"/>
        <pt x="376" y="581" on="1"/>
        <pt x="404" y="581" on="0"/>
        <pt x="469" y="567" on="0"/>
        <pt x="523" y="531" on="0"/>
        <pt x="523" y="506" on="1"/>
        <pt x="523" y="488" on="0"/>
        <pt x="497" y="461" on="0"/>
        <pt x="474" y="456" on="1"/>
        <pt x="434" y="525" on="0"/>
        <pt x="370" y="525" on="1"/>
        <pt x="360" y="525" on="1"/>
        <pt x="304" y="126" on="1"/>
        <pt x="314" y="126" on="1"/>
        <pt x="378" y="126" on="0"/>
        <pt x="437" y="195" on="1"/>
        <pt x="474" y="187" on="0"/>
        <pt x="474" y="156" on="1"/>
        <pt x="474" y="128" on="0"/>
        <pt x="408" y="86" on="0"/>
        <pt x="334" y="70" on="0"/>
        <pt x="304" y="70" on="1"/>
        <pt x="297" y="70" on="1"/>
        <pt x="292" y="29" on="0"/>
        <pt x="290" y="-14" on="1"/>
        <pt x="274" y="-16" on="1"/>
        <pt x="248" y="-16" on="0"/>
        <pt x="248" y="9" on="1"/>
        <pt x="248" y="18" on="0"/>
        <pt x="257" y="73" on="1"/>
        <pt x="181" y="85" on="0"/>
        <pt x="85" y="185" on="0"/>
        <pt x="85" y="276" on="1"/>
        <pt x="85" y="403" on="0"/>
        <pt x="225" y="560" on="0"/>
        <pt x="328" y="577" on="1"/>
        <pt x="338" y="659" on="0"/>
        <pt x="338" y="681" on="1"/>
        <pt x="350" y="684" on="0"/>
      </contour>
    </TTGlyph>
    <TTGlyph name="centoldstyle" xMin="84" yMin="-96" xMax="494" yMax="569">
      <contour>
        <pt x="156" y="196" on="1"/>
        <pt x="156" y="142" on="0"/>
        <pt x="205" y="66" on="0"/>
        <pt x="252" y="52" on="1"/>
        <pt x="285" y="299" on="0"/>
        <pt x="302" y="414" on="1"/>
        <pt x="239" y="399" on="0"/>
        <pt x="156" y="282" on="0"/>
      </contour>
      <contour>
        <pt x="361" y="549" on="1"/>
        <pt x="361" y="548" on="0"/>
        <pt x="359" y="532" on="0"/>
        <pt x="353" y="493" on="0"/>
        <pt x="351" y="475" on="1"/>
        <pt x="355" y="475" on="1"/>
        <pt x="382" y="475" on="0"/>
        <pt x="442" y="461" on="0"/>
        <pt x="494" y="424" on="0"/>
        <pt x="494" y="400" on="1"/>
        <pt x="494" y="383" on="0"/>
        <pt x="469" y="355" on="0"/>
        <pt x="447" y="350" on="1"/>
        <pt x="425" y="389" on="0"/>
        <pt x="378" y="418" on="0"/>
        <pt x="342" y="419" on="1"/>
        <pt x="318" y="249" on="0"/>
        <pt x="291" y="46" on="1"/>
        <pt x="301" y="46" on="1"/>
        <pt x="361" y="46" on="0"/>
        <pt x="416" y="115" on="1"/>
        <pt x="450" y="107" on="0"/>
        <pt x="450" y="77" on="1"/>
        <pt x="450" y="36" on="0"/>
        <pt x="341" y="-10" on="0"/>
        <pt x="292" y="-10" on="1"/>
        <pt x="283" y="-10" on="1"/>
        <pt x="276" y="-71" on="0"/>
        <pt x="276" y="-94" on="1"/>
        <pt x="261" y="-96" on="1"/>
        <pt x="236" y="-96" on="0"/>
        <pt x="236" y="-73" on="1"/>
        <pt x="236" y="-62" on="0"/>
        <pt x="244" y="-6" on="1"/>
        <pt x="167" y="5" on="0"/>
        <pt x="84" y="107" on="0"/>
        <pt x="84" y="188" on="1"/>
        <pt x="84" y="302" on="0"/>
        <pt x="208" y="456" on="0"/>
        <pt x="310" y="471" on="1"/>
        <pt x="319" y="540" on="0"/>
        <pt x="320" y="566" on="1"/>
        <pt x="331" y="569" on="0"/>
        <pt x="337" y="569" on="1"/>
        <pt x="361" y="569" on="0"/>
      </contour>
    </TTGlyph>
    <TTGlyph name="ch" xMin="39" yMin="-10" xMax="819" yMax="743">
      <contour>
        <pt x="564" y="382" on="1"/>
        <pt x="594" y="425" on="0"/>
        <pt x="676" y="474" on="0"/>
        <pt x="714" y="474" on="1"/>
        <pt x="764" y="474" on="0"/>
        <pt x="819" y="406" on="0"/>
        <pt x="819" y="351" on="1"/>
        <pt x="819" y="332" on="0"/>
        <pt x="781" y="123" on="0"/>
        <pt x="781" y="99" on="1"/>
        <pt x="781" y="58" on="0"/>
        <pt x="813" y="36" on="1"/>
        <pt x="799" y="-10" on="0"/>
        <pt x="762" y="-10" on="1"/>
        <pt x="712" y="-10" on="0"/>
        <pt x="712" y="81" on="1"/>
        <pt x="712" y="124" on="0"/>
        <pt x="749" y="327" on="0"/>
        <pt x="749" y="347" on="1"/>
        <pt x="749" y="382" on="0"/>
        <pt x="722" y="423" on="0"/>
        <pt x="698" y="423" on="1"/>
        <pt x="659" y="423" on="0"/>
        <pt x="565" y="332" on="0"/>
        <pt x="545" y="273" on="1"/>
        <pt x="524" y="112" on="0"/>
        <pt x="524" y="60" on="1"/>
        <pt x="524" y="30" on="0"/>
        <pt x="527" y="5" on="1"/>
        <pt x="509" y="-3" on="0"/>
        <pt x="485" y="-3" on="1"/>
        <pt x="446" y="-3" on="0"/>
        <pt x="446" y="31" on="1"/>
        <pt x="446" y="67" on="0"/>
        <pt x="532" y="603" on="0"/>
        <pt x="532" y="661" on="1"/>
        <pt x="532" y="681" on="0"/>
        <pt x="521" y="698" on="0"/>
        <pt x="505" y="698" on="1"/>
        <pt x="430" y="698" on="0"/>
        <pt x="346" y="627" on="0"/>
        <pt x="346" y="567" on="1"/>
        <pt x="346" y="528" on="0"/>
        <pt x="374" y="462" on="0"/>
        <pt x="403" y="417" on="0"/>
        <pt x="403" y="403" on="1"/>
        <pt x="403" y="362" on="0"/>
        <pt x="355" y="354" on="1"/>
        <pt x="346" y="387" on="0"/>
        <pt x="290" y="419" on="0"/>
        <pt x="263" y="419" on="1"/>
        <pt x="197" y="419" on="0"/>
        <pt x="118" y="287" on="0"/>
        <pt x="118" y="195" on="1"/>
        <pt x="118" y="117" on="0"/>
        <pt x="179" y="40" on="0"/>
        <pt x="225" y="40" on="1"/>
        <pt x="290" y="40" on="0"/>
        <pt x="330" y="102" on="1"/>
        <pt x="361" y="83" on="0"/>
        <pt x="361" y="60" on="1"/>
        <pt x="361" y="30" on="0"/>
        <pt x="277" y="-10" on="0"/>
        <pt x="222" y="-10" on="1"/>
        <pt x="134" y="-10" on="0"/>
        <pt x="39" y="88" on="0"/>
        <pt x="39" y="180" on="1"/>
        <pt x="39" y="319" on="0"/>
        <pt x="187" y="474" on="0"/>
        <pt x="280" y="474" on="1"/>
        <pt x="308" y="474" on="0"/>
        <pt x="333" y="467" on="1"/>
        <pt x="301" y="537" on="0"/>
        <pt x="301" y="590" on="1"/>
        <pt x="301" y="743" on="0"/>
        <pt x="551" y="743" on="1"/>
        <pt x="586" y="743" on="0"/>
        <pt x="608" y="708" on="0"/>
        <pt x="608" y="679" on="1"/>
        <pt x="608" y="642" on="0"/>
      </contour>
    </TTGlyph>
    <TTGlyph name="circumflex" xMin="73" yMin="519" xMax="331" yMax="679">
      <contour>
        <pt x="225" y="679" on="1"/>
        <pt x="331" y="599" on="0"/>
        <pt x="331" y="552" on="1"/>
        <pt x="331" y="530" on="0"/>
        <pt x="304" y="519" on="1"/>
        <pt x="290" y="543" on="0"/>
        <pt x="244" y="587" on="0"/>
        <pt x="228" y="598" on="1"/>
        <pt x="213" y="608" on="1"/>
        <pt x="110" y="527" on="0"/>
        <pt x="95" y="527" on="1"/>
        <pt x="83" y="527" on="0"/>
        <pt x="73" y="545" on="1"/>
        <pt x="141" y="620" on="0"/>
      </contour>
    </TTGlyph>
    <TTGlyph name="colon" xMin="30" yMin="-10" xMax="193" yMax="478">
      <contour>
        <pt x="80" y="-10" on="1"/>
        <pt x="59" y="-10" on="0"/>
        <pt x="30" y="19" on="0"/>
        <pt x="30" y="43" on="1"/>
        <pt x="30" y="72" on="0"/>
        <pt x="70" y="117" on="0"/>
        <pt x="96" y="117" on="1"/>
        <pt x="117" y="117" on="0"/>
        <pt x="145" y="86" on="0"/>
        <pt x="145" y="63" on="1"/>
        <pt x="145" y="33" on="0"/>
        <pt x="107" y="-10" on="0"/>
      </contour>
      <contour>
        <pt x="128" y="351" on="1"/>
        <pt x="107" y="351" on="0"/>
        <pt x="78" y="380" on="0"/>
        <pt x="78" y="404" on="1"/>
        <pt x="78" y="433" on="0"/>
        <pt x="118" y="478" on="0"/>
        <pt x="144" y="478" on="1"/>
        <pt x="165" y="478" on="0"/>
        <pt x="193" y="447" on="0"/>
        <pt x="193" y="424" on="1"/>
        <pt x="193" y="394" on="0"/>
        <pt x="155" y="351" on="0"/>
      </contour>
    </TTGlyph>
    <TTGlyph name="comma" xMin="-16" yMin="-143" xMax="141" yMax="120">
      <contour>
        <pt x="74" y="-12" on="1"/>
        <pt x="74" y="28" on="0"/>
        <pt x="35" y="37" on="1"/>
        <pt x="30" y="50" on="0"/>
        <pt x="30" y="61" on="1"/>
        <pt x="30" y="85" on="0"/>
        <pt x="67" y="120" on="0"/>
        <pt x="92" y="120" on="1"/>
        <pt x="113" y="120" on="0"/>
        <pt x="141" y="87" on="0"/>
        <pt x="141" y="53" on="1"/>
        <pt x="141" y="-13" on="0"/>
        <pt x="55" y="-143" on="0"/>
        <pt x="6" y="-143" on="1"/>
        <pt x="-16" y="-143" on="0"/>
        <pt x="-16" y="-119" on="1"/>
        <pt x="-16" y="-113" on="0"/>
        <pt x="-12" y="-101" on="1"/>
        <pt x="-8" y="-101" on="1"/>
        <pt x="26" y="-101" on="0"/>
        <pt x="74" y="-45" on="0"/>
      </contour>
    </TTGlyph>
    <TTGlyph name="copyright" xMin="130" yMin="-34" xMax="822" yMax="674">
      <contour>
        <pt x="617" y="157" on="1"/>
        <pt x="617" y="133" on="0"/>
        <pt x="543" y="98" on="0"/>
        <pt x="493" y="98" on="1"/>
        <pt x="455" y="98" on="0"/>
        <pt x="384" y="121" on="0"/>
        <pt x="321" y="170" on="0"/>
        <pt x="283" y="259" on="0"/>
        <pt x="283" y="318" on="1"/>
        <pt x="283" y="431" on="0"/>
        <pt x="408" y="548" on="0"/>
        <pt x="487" y="548" on="1"/>
        <pt x="514" y="548" on="0"/>
        <pt x="571" y="532" on="0"/>
        <pt x="618" y="493" on="0"/>
        <pt x="618" y="467" on="1"/>
        <pt x="618" y="433" on="0"/>
        <pt x="575" y="427" on="1"/>
        <pt x="566" y="458" on="0"/>
        <pt x="511" y="489" on="0"/>
        <pt x="480" y="489" on="1"/>
        <pt x="432" y="489" on="0"/>
        <pt x="367" y="401" on="0"/>
        <pt x="367" y="330" on="1"/>
        <pt x="367" y="240" on="0"/>
        <pt x="447" y="157" on="0"/>
        <pt x="502" y="157" on="1"/>
        <pt x="561" y="157" on="0"/>
        <pt x="588" y="195" on="1"/>
        <pt x="617" y="179" on="0"/>
      </contour>
      <contour>
        <pt x="750" y="320" on="1"/>
        <pt x="750" y="452" on="0"/>
        <pt x="591" y="617" on="0"/>
        <pt x="477" y="617" on="1"/>
        <pt x="361" y="617" on="0"/>
        <pt x="202" y="453" on="0"/>
        <pt x="202" y="187" on="0"/>
        <pt x="361" y="23" on="0"/>
        <pt x="477" y="23" on="1"/>
        <pt x="591" y="23" on="0"/>
        <pt x="750" y="187" on="0"/>
      </contour>
      <contour>
        <pt x="822" y="320" on="1"/>
        <pt x="822" y="170" on="0"/>
        <pt x="621" y="-34" on="0"/>
        <pt x="477" y="-34" on="1"/>
        <pt x="330" y="-34" on="0"/>
        <pt x="130" y="169" on="0"/>
        <pt x="130" y="320" on="1"/>
        <pt x="130" y="472" on="0"/>
        <pt x="330" y="674" on="0"/>
        <pt x="477" y="674" on="1"/>
        <pt x="622" y="674" on="0"/>
        <pt x="822" y="472" on="0"/>
      </contour>
    </TTGlyph>
    <TTGlyph name="ct" xMin="39" yMin="-10" xMax="760" yMax="644">
      <contour>
        <pt x="495" y="465" on="1"/>
        <pt x="528" y="465" on="1"/>
        <pt x="528" y="472" on="0"/>
        <pt x="541" y="560" on="0"/>
        <pt x="541" y="570" on="1"/>
        <pt x="541" y="602" on="0"/>
        <pt x="492" y="602" on="1"/>
        <pt x="454" y="602" on="0"/>
        <pt x="390" y="524" on="0"/>
        <pt x="390" y="470" on="1"/>
        <pt x="390" y="448" on="0"/>
        <pt x="403" y="410" on="0"/>
        <pt x="403" y="403" on="1"/>
        <pt x="403" y="362" on="0"/>
        <pt x="355" y="354" on="1"/>
        <pt x="346" y="387" on="0"/>
        <pt x="290" y="419" on="0"/>
        <pt x="263" y="419" on="1"/>
        <pt x="197" y="419" on="0"/>
        <pt x="118" y="287" on="0"/>
        <pt x="118" y="195" on="1"/>
        <pt x="118" y="117" on="0"/>
        <pt x="179" y="40" on="0"/>
        <pt x="225" y="40" on="1"/>
        <pt x="290" y="40" on="0"/>
        <pt x="330" y="102" on="1"/>
        <pt x="361" y="83" on="0"/>
        <pt x="361" y="60" on="1"/>
        <pt x="361" y="30" on="0"/>
        <pt x="277" y="-10" on="0"/>
        <pt x="222" y="-10" on="1"/>
        <pt x="134" y="-10" on="0"/>
        <pt x="39" y="88" on="0"/>
        <pt x="39" y="180" on="1"/>
        <pt x="39" y="319" on="0"/>
        <pt x="187" y="474" on="0"/>
        <pt x="280" y="474" on="1"/>
        <pt x="327" y="474" on="0"/>
        <pt x="362" y="457" on="1"/>
        <pt x="358" y="483" on="0"/>
        <pt x="358" y="495" on="1"/>
        <pt x="358" y="560" on="0"/>
        <pt x="440" y="644" on="0"/>
        <pt x="495" y="644" on="1"/>
        <pt x="539" y="644" on="0"/>
        <pt x="611" y="590" on="0"/>
        <pt x="613" y="553" on="1"/>
        <pt x="613" y="549" on="1"/>
        <pt x="613" y="543" on="0"/>
        <pt x="607" y="511" on="0"/>
        <pt x="600" y="471" on="0"/>
        <pt x="599" y="464" on="1"/>
        <pt x="689" y="464" on="0"/>
        <pt x="757" y="469" on="1"/>
        <pt x="760" y="458" on="0"/>
        <pt x="760" y="449" on="1"/>
        <pt x="760" y="412" on="0"/>
        <pt x="712" y="411" on="1"/>
        <pt x="680" y="410" on="0"/>
        <pt x="590" y="410" on="1"/>
        <pt x="553" y="157" on="0"/>
        <pt x="553" y="120" on="1"/>
        <pt x="553" y="74" on="0"/>
        <pt x="584" y="43" on="0"/>
        <pt x="618" y="43" on="1"/>
        <pt x="653" y="43" on="0"/>
        <pt x="690" y="73" on="1"/>
        <pt x="706" y="57" on="0"/>
        <pt x="706" y="39" on="1"/>
        <pt x="706" y="15" on="0"/>
        <pt x="650" y="-10" on="0"/>
        <pt x="612" y="-10" on="1"/>
        <pt x="487" y="-10" on="0"/>
        <pt x="487" y="125" on="1"/>
        <pt x="487" y="147" on="0"/>
        <pt x="499" y="239" on="0"/>
        <pt x="519" y="376" on="0"/>
        <pt x="523" y="410" on="1"/>
        <pt x="505" y="410" on="0"/>
        <pt x="439" y="404" on="1"/>
        <pt x="437" y="418" on="0"/>
        <pt x="437" y="422" on="1"/>
        <pt x="437" y="465" on="0"/>
      </contour>
    </TTGlyph>
    <TTGlyph name="d" xMin="29" yMin="-10" xMax="467" yMax="742">
      <contour>
        <pt x="365" y="426" on="1"/>
        <pt x="391" y="605" on="0"/>
        <pt x="391" y="639" on="1"/>
        <pt x="391" y="686" on="0"/>
        <pt x="371" y="691" on="1"/>
        <pt x="373" y="705" on="0"/>
        <pt x="405" y="742" on="0"/>
        <pt x="424" y="742" on="1"/>
        <pt x="467" y="742" on="0"/>
        <pt x="467" y="679" on="1"/>
        <pt x="467" y="642" on="0"/>
        <pt x="388" y="122" on="0"/>
        <pt x="388" y="99" on="1"/>
        <pt x="388" y="58" on="0"/>
        <pt x="420" y="36" on="1"/>
        <pt x="406" y="-10" on="0"/>
        <pt x="369" y="-10" on="1"/>
        <pt x="319" y="-10" on="0"/>
        <pt x="319" y="71" on="1"/>
        <pt x="319" y="94" on="0"/>
        <pt x="320" y="104" on="1"/>
        <pt x="291" y="49" on="0"/>
        <pt x="207" y="-10" on="0"/>
        <pt x="162" y="-10" on="1"/>
        <pt x="103" y="-10" on="0"/>
        <pt x="29" y="81" on="0"/>
        <pt x="29" y="166" on="1"/>
        <pt x="29" y="292" on="0"/>
        <pt x="158" y="474" on="0"/>
        <pt x="252" y="474" on="1"/>
        <pt x="308" y="474" on="0"/>
      </contour>
      <contour>
        <pt x="329" y="189" on="1"/>
        <pt x="357" y="378" on="1"/>
        <pt x="302" y="425" on="0"/>
        <pt x="256" y="425" on="1"/>
        <pt x="190" y="425" on="0"/>
        <pt x="107" y="291" on="0"/>
        <pt x="107" y="183" on="1"/>
        <pt x="107" y="123" on="0"/>
        <pt x="146" y="40" on="0"/>
        <pt x="182" y="40" on="1"/>
        <pt x="215" y="40" on="0"/>
        <pt x="301" y="123" on="0"/>
      </contour>
    </TTGlyph>
    <TTGlyph name="dagger" xMin="67" yMin="-106" xMax="438" yMax="673">
      <contour>
        <pt x="69" y="459" on="1"/>
        <pt x="75" y="506" on="0"/>
        <pt x="114" y="506" on="1"/>
        <pt x="119" y="506" on="0"/>
        <pt x="145" y="501" on="0"/>
        <pt x="194" y="494" on="0"/>
        <pt x="227" y="493" on="1"/>
        <pt x="229" y="508" on="0"/>
        <pt x="238" y="667" on="1"/>
        <pt x="266" y="673" on="0"/>
        <pt x="282" y="673" on="1"/>
        <pt x="299" y="673" on="0"/>
        <pt x="323" y="667" on="1"/>
        <pt x="288" y="505" on="0"/>
        <pt x="286" y="493" on="1"/>
        <pt x="357" y="494" on="0"/>
        <pt x="434" y="517" on="1"/>
        <pt x="438" y="508" on="0"/>
        <pt x="438" y="492" on="1"/>
        <pt x="438" y="459" on="0"/>
        <pt x="409" y="430" on="0"/>
        <pt x="373" y="430" on="1"/>
        <pt x="356" y="430" on="0"/>
        <pt x="299" y="436" on="0"/>
        <pt x="278" y="436" on="1"/>
        <pt x="258" y="272" on="0"/>
        <pt x="237" y="59" on="0"/>
        <pt x="232" y="-21" on="0"/>
        <pt x="231" y="-29" on="1"/>
        <pt x="228" y="-46" on="0"/>
        <pt x="199" y="-85" on="0"/>
        <pt x="186" y="-96" on="1"/>
        <pt x="172" y="-106" on="1"/>
        <pt x="135" y="-73" on="0"/>
        <pt x="135" y="-37" on="1"/>
        <pt x="135" y="-26" on="0"/>
        <pt x="150" y="41" on="0"/>
        <pt x="193" y="271" on="0"/>
        <pt x="219" y="437" on="1"/>
        <pt x="182" y="436" on="0"/>
        <pt x="85" y="426" on="0"/>
        <pt x="67" y="425" on="1"/>
        <pt x="67" y="443" on="0"/>
      </contour>
    </TTGlyph>
    <TTGlyph name="daggerdbl" xMin="17" yMin="-105" xMax="438" yMax="673">
      <contour>
        <pt x="270" y="281" on="1"/>
        <pt x="267" y="262" on="0"/>
        <pt x="241" y="162" on="0"/>
        <pt x="236" y="131" on="1"/>
        <pt x="273" y="132" on="0"/>
        <pt x="370" y="142" on="0"/>
        <pt x="388" y="143" on="1"/>
        <pt x="388" y="125" on="0"/>
        <pt x="386" y="109" on="1"/>
        <pt x="380" y="62" on="0"/>
        <pt x="341" y="62" on="1"/>
        <pt x="336" y="62" on="0"/>
        <pt x="310" y="67" on="0"/>
        <pt x="261" y="74" on="0"/>
        <pt x="228" y="75" on="1"/>
        <pt x="226" y="60" on="0"/>
        <pt x="217" y="-99" on="1"/>
        <pt x="188" y="-105" on="0"/>
        <pt x="173" y="-105" on="1"/>
        <pt x="156" y="-105" on="0"/>
        <pt x="132" y="-99" on="1"/>
        <pt x="167" y="63" on="0"/>
        <pt x="169" y="75" on="1"/>
        <pt x="98" y="74" on="0"/>
        <pt x="21" y="51" on="1"/>
        <pt x="17" y="60" on="0"/>
        <pt x="17" y="76" on="1"/>
        <pt x="17" y="110" on="0"/>
        <pt x="49" y="138" on="0"/>
        <pt x="82" y="138" on="1"/>
        <pt x="99" y="138" on="0"/>
        <pt x="156" y="132" on="0"/>
        <pt x="177" y="132" on="1"/>
        <pt x="181" y="161" on="0"/>
        <pt x="181" y="188" on="1"/>
        <pt x="181" y="192" on="0"/>
        <pt x="180" y="221" on="0"/>
        <pt x="180" y="229" on="1"/>
        <pt x="180" y="257" on="0"/>
        <pt x="183" y="281" on="1"/>
        <pt x="186" y="303" on="0"/>
        <pt x="214" y="406" on="0"/>
        <pt x="219" y="437" on="1"/>
        <pt x="182" y="436" on="0"/>
        <pt x="85" y="426" on="0"/>
        <pt x="67" y="425" on="1"/>
        <pt x="67" y="443" on="0"/>
        <pt x="69" y="459" on="1"/>
        <pt x="75" y="506" on="0"/>
        <pt x="114" y="506" on="1"/>
        <pt x="119" y="506" on="0"/>
        <pt x="145" y="501" on="0"/>
        <pt x="194" y="494" on="0"/>
        <pt x="227" y="493" on="1"/>
        <pt x="229" y="508" on="0"/>
        <pt x="238" y="667" on="1"/>
        <pt x="266" y="673" on="0"/>
        <pt x="282" y="673" on="1"/>
        <pt x="299" y="673" on="0"/>
        <pt x="323" y="667" on="1"/>
        <pt x="288" y="505" on="0"/>
        <pt x="286" y="493" on="1"/>
        <pt x="357" y="494" on="0"/>
        <pt x="434" y="517" on="1"/>
        <pt x="438" y="508" on="0"/>
        <pt x="438" y="492" on="1"/>
        <pt x="438" y="458" on="0"/>
        <pt x="407" y="430" on="0"/>
        <pt x="374" y="430" on="1"/>
        <pt x="357" y="430" on="0"/>
        <pt x="299" y="436" on="0"/>
        <pt x="278" y="436" on="1"/>
        <pt x="274" y="403" on="0"/>
        <pt x="272" y="300" on="0"/>
      </contour>
    </TTGlyph>
    <TTGlyph name="degree" xMin="47" yMin="387" xMax="353" yMax="711">
      <contour>
        <pt x="217" y="655" on="1"/>
        <pt x="171" y="655" on="0"/>
        <pt x="112" y="576" on="0"/>
        <pt x="112" y="525" on="1"/>
        <pt x="112" y="488" on="0"/>
        <pt x="149" y="443" on="0"/>
        <pt x="184" y="443" on="1"/>
        <pt x="229" y="443" on="0"/>
        <pt x="287" y="522" on="0"/>
        <pt x="287" y="573" on="1"/>
        <pt x="287" y="610" on="0"/>
        <pt x="251" y="655" on="0"/>
      </contour>
      <contour>
        <pt x="226" y="711" on="1"/>
        <pt x="283" y="711" on="0"/>
        <pt x="353" y="637" on="0"/>
        <pt x="353" y="579" on="1"/>
        <pt x="353" y="499" on="0"/>
        <pt x="249" y="387" on="0"/>
        <pt x="176" y="387" on="1"/>
        <pt x="117" y="387" on="0"/>
        <pt x="47" y="461" on="0"/>
        <pt x="47" y="520" on="1"/>
        <pt x="47" y="598" on="0"/>
        <pt x="151" y="711" on="0"/>
      </contour>
    </TTGlyph>
    <TTGlyph name="dieresis" xMin="39" yMin="521" xMax="305" yMax="628">
      <contour>
        <pt x="82" y="521" on="1"/>
        <pt x="63" y="521" on="0"/>
        <pt x="39" y="547" on="0"/>
        <pt x="39" y="568" on="1"/>
        <pt x="39" y="593" on="0"/>
        <pt x="73" y="628" on="0"/>
        <pt x="95" y="628" on="1"/>
        <pt x="113" y="628" on="0"/>
        <pt x="138" y="600" on="0"/>
        <pt x="138" y="579" on="1"/>
        <pt x="138" y="555" on="0"/>
        <pt x="102" y="521" on="0"/>
      </contour>
      <contour>
        <pt x="249" y="521" on="1"/>
        <pt x="230" y="521" on="0"/>
        <pt x="206" y="547" on="0"/>
        <pt x="206" y="568" on="1"/>
        <pt x="206" y="593" on="0"/>
        <pt x="240" y="628" on="0"/>
        <pt x="262" y="628" on="1"/>
        <pt x="280" y="628" on="0"/>
        <pt x="305" y="600" on="0"/>
        <pt x="305" y="579" on="1"/>
        <pt x="305" y="555" on="0"/>
        <pt x="269" y="521" on="0"/>
      </contour>
    </TTGlyph>
    <TTGlyph name="divide" xMin="89" yMin="23" xMax="486" yMax="481">
      <contour>
        <pt x="486" y="258" on="1"/>
        <pt x="486" y="240" on="0"/>
        <pt x="466" y="216" on="0"/>
        <pt x="434" y="216" on="0"/>
        <pt x="323" y="224" on="0"/>
        <pt x="294" y="224" on="1"/>
        <pt x="180" y="224" on="0"/>
        <pt x="92" y="216" on="1"/>
        <pt x="89" y="231" on="0"/>
        <pt x="89" y="246" on="1"/>
        <pt x="89" y="262" on="0"/>
        <pt x="107" y="288" on="0"/>
        <pt x="125" y="288" on="1"/>
        <pt x="128" y="288" on="0"/>
        <pt x="248" y="281" on="0"/>
        <pt x="292" y="281" on="1"/>
        <pt x="422" y="281" on="0"/>
        <pt x="483" y="288" on="1"/>
        <pt x="486" y="279" on="0"/>
      </contour>
      <contour>
        <pt x="314" y="367" on="0"/>
        <pt x="268" y="367" on="0"/>
        <pt x="236" y="399" on="0"/>
        <pt x="236" y="424" on="1"/>
        <pt x="236" y="448" on="0"/>
        <pt x="268" y="481" on="0"/>
        <pt x="314" y="481" on="0"/>
        <pt x="345" y="448" on="0"/>
        <pt x="345" y="424" on="1"/>
        <pt x="345" y="399" on="0"/>
      </contour>
      <contour>
        <pt x="314" y="23" on="0"/>
        <pt x="268" y="23" on="0"/>
        <pt x="236" y="55" on="0"/>
        <pt x="236" y="80" on="1"/>
        <pt x="236" y="104" on="0"/>
        <pt x="268" y="137" on="0"/>
        <pt x="314" y="137" on="0"/>
        <pt x="345" y="104" on="0"/>
        <pt x="345" y="80" on="1"/>
        <pt x="345" y="55" on="0"/>
      </contour>
    </TTGlyph>
</ttFont>
